<svg width="30" height="30" viewBox="0 0 30 30" fill="none" xmlns="http://www.w3.org/2000/svg">
<path d="M1.75842 23.1871C3.34543 24.4681 5.22795 25.0941 6.96797 24.9536C10.176 24.7576 15.1531 22.5176 20.0561 18.8155C25.6952 14.559 29.5272 9.65894 29.9162 6.58141C30.2292 4.55938 29.6732 2.23386 28.2107 0.254338C26.9302 -1.47818 16.8321 6.1454 18.1121 7.87742C19.0946 9.20743 20.3411 10.1829 21.6611 10.764C20.3246 12.1105 18.7786 13.466 17.0626 14.763C15.3371 16.065 13.6045 17.182 11.9415 18.098C11.7635 16.6545 11.192 15.171 10.2105 13.843C8.92949 12.111 -1.16812 19.735 0.111898 21.4671C0.394999 21.8486 0.706201 22.2084 1.04291 22.5436C-0.177605 23.3796 -0.0356037 24.3571 0.104898 24.7801C0.574903 26.1871 2.69793 27.1271 4.47344 26.7146C5.75896 26.4146 7.11147 26.5011 8.11148 26.9136C7.80098 27.4861 7.64348 28.0436 7.64298 28.3586C7.64298 29.2551 8.10348 29.6542 8.37799 29.8112C8.53299 29.9012 8.70399 29.9587 8.88099 29.9842C9.2334 30.0348 9.59252 29.9632 9.8985 29.7812C10.303 29.5382 10.539 29.1266 10.5315 28.6811C10.517 27.8816 10.145 27.1711 9.4545 26.6261C9.45 26.6236 9.4465 26.6196 9.442 26.6166C9.6815 26.3576 9.9695 26.1376 10.3065 26.0176C10.6608 25.8879 11.0476 25.8763 11.409 25.9846C11.0185 26.7791 10.8595 27.6886 11.139 28.4221C11.3865 29.0716 12.047 29.4247 12.746 29.2777C13.448 29.1311 13.9195 28.5411 13.8915 27.8421C13.86 27.0266 13.418 26.2066 12.723 25.6496C12.941 25.3966 13.182 25.1986 13.42 25.0976C13.896 24.8956 14.3436 24.8991 14.7861 25.1066C14.9241 25.1721 15.0546 25.2531 15.1761 25.3451C15.0453 25.4907 14.93 25.6496 14.8321 25.8191C14.4811 26.4281 14.4096 27.1166 14.6311 27.7591C14.9331 28.6321 15.6646 28.8326 16.2151 28.6471C16.9131 28.4141 17.4461 27.5626 17.1301 26.5431C17.0396 26.2521 16.8361 25.8381 16.5336 25.4306L16.4696 25.3611C16.7706 25.1446 17.1976 24.9311 17.7266 24.9246C17.6656 25.5726 17.7396 26.1471 17.8626 26.4371C18.2141 27.2616 18.7936 27.4476 19.1081 27.4856C19.2859 27.5066 19.4662 27.4936 19.6391 27.4471C19.9828 27.3549 20.2848 27.1482 20.4951 26.8611C20.7716 26.4786 20.8281 26.0081 20.6456 25.6006C20.3191 24.8716 19.6976 24.3636 18.8486 24.1331L18.8336 24.1291C18.9521 23.7971 19.1311 23.4811 19.3931 23.2386C19.6684 22.9805 20.0197 22.8181 20.3946 22.7756C20.3466 23.6596 20.5576 24.5586 21.1021 25.1231C21.5851 25.6241 22.3311 25.6896 22.9161 25.2801C23.5047 24.8701 23.7067 24.1426 23.4066 23.5106C23.0571 22.7721 22.3296 22.1916 21.4716 21.9521C21.5726 21.6336 21.7171 21.3571 21.8961 21.1706C22.2556 20.7986 22.6676 20.6256 23.1566 20.6431C23.3096 20.6491 23.4611 20.6726 23.6087 20.7086C23.5457 20.8941 23.5019 21.0856 23.4781 21.2801C23.3941 21.9781 23.5986 22.6396 24.0542 23.1441C24.6742 23.8291 25.4257 23.7266 25.8592 23.3401C26.4102 22.8516 26.5662 21.8596 25.8752 21.0451C25.6782 20.8126 25.3287 20.5126 24.8907 20.2566C25.1942 19.847 25.6272 19.4495 26.1637 19.095C26.2656 19.0268 26.3363 18.9211 26.3605 18.8009C26.3847 18.6807 26.3603 18.5558 26.2927 18.4535C26.2598 18.4026 26.2173 18.3587 26.1674 18.3244C26.1175 18.29 26.0613 18.2658 26.002 18.2533C25.9428 18.2407 25.8816 18.24 25.8221 18.2512C25.7626 18.2624 25.7058 18.2853 25.6552 18.3185C24.9532 18.783 24.4027 19.3105 24.0277 19.8695C23.754 19.7807 23.4696 19.7294 23.1821 19.717C22.4401 19.6895 21.7661 19.9685 21.2336 20.5231C20.9236 20.8446 20.6881 21.3116 20.5456 21.8361C19.8776 21.8561 19.2531 22.1036 18.7676 22.5541C18.3411 22.9486 18.0686 23.4656 17.9066 23.9991C16.9871 23.9721 16.2256 24.4206 15.8426 24.6976C15.6388 24.5254 15.414 24.3797 15.1736 24.2641C14.5016 23.9476 13.772 23.9401 13.0645 24.2406C12.6535 24.4146 12.2535 24.7521 11.9165 25.1786C11.2945 24.9351 10.6225 24.9176 9.9995 25.1421C9.4525 25.3376 8.99899 25.7061 8.64049 26.1331C7.44148 25.5796 5.82646 25.4466 4.26744 25.8091C2.84343 26.1401 1.26791 25.3571 0.975407 24.4826C0.782405 23.9061 1.28091 23.4656 1.75842 23.1871ZM24.3902 21.4001C24.4032 21.2921 24.4272 21.1831 24.4607 21.0741C24.7967 21.2756 25.0562 21.5021 25.1772 21.6451C25.5507 22.0861 25.4192 22.4906 25.2487 22.6426C25.0602 22.8086 24.8637 22.6691 24.7312 22.5226C24.4557 22.2186 24.3387 21.8306 24.3902 21.4001ZM22.5756 23.9051C22.7386 24.2491 22.4471 24.4756 22.3876 24.5176C22.3286 24.5596 22.0196 24.7521 21.7586 24.4816C21.4161 24.1266 21.2836 23.4996 21.3116 22.8701C21.8741 23.0501 22.3556 23.4381 22.5756 23.9051ZM18.6426 25.0356C19.2071 25.1956 19.5986 25.5121 19.8061 25.9766C19.8651 26.1071 19.8076 26.2296 19.7496 26.3101C19.6236 26.4831 19.4011 26.5876 19.2091 26.5651C18.9531 26.5341 18.7946 26.2831 18.7066 26.0766C18.6496 25.9426 18.5991 25.5281 18.6426 25.0356ZM15.6246 26.2856C15.6791 26.1916 15.7436 26.1011 15.8176 26.0131C16.0476 26.3306 16.1976 26.6411 16.2526 26.8191C16.4236 27.3711 16.1431 27.6921 15.9266 27.7651C15.6886 27.8436 15.5626 27.6381 15.4981 27.4516C15.3641 27.0651 15.4081 26.6616 15.6246 26.2856ZM12.217 26.4301C12.6635 26.8166 12.954 27.3621 12.9735 27.8781C12.9885 28.2591 12.6315 28.3521 12.5605 28.3676C12.4895 28.3831 12.13 28.4391 11.9965 28.0871C11.8205 27.6271 11.944 26.9986 12.217 26.4301ZM8.91149 27.3756C9.368 27.7441 9.604 28.1891 9.6125 28.6981C9.616 28.8406 9.515 28.9311 9.4295 28.9821C9.2465 29.0921 9.00099 29.1001 8.83299 29.0046C8.60949 28.8761 8.56199 28.5826 8.56249 28.3586C8.56199 28.2126 8.67849 27.8111 8.91149 27.3756Z" fill="#F49402"/>
</svg>
