<svg width="21" height="29" viewBox="0 0 21 29" fill="none" xmlns="http://www.w3.org/2000/svg">
<g filter="url(#filter0_d)">
<path d="M0.30704 10.3931C0.30704 9.23662 0.509202 8.14405 0.907579 7.12433C1.2882 6.13388 1.85369 5.22486 2.57393 4.44568C3.29269 3.67674 4.11521 3.01182 5.0177 2.47015C5.94366 1.90997 6.94611 1.48736 7.99364 1.21556C9.05382 0.937173 10.1455 0.796779 11.2416 0.797858C12.9347 0.797858 14.5104 1.1561 15.9716 1.86961C17.4137 2.57011 18.6412 3.64513 19.5258 4.98231C20.4385 6.34244 20.8918 7.88095 20.8918 9.59635C20.8918 10.625 20.7908 11.6313 20.5842 12.6154C20.3813 13.5989 20.0588 14.5539 19.6239 15.459C19.2093 16.3352 18.6673 17.1453 18.0155 17.8627C17.3604 18.5687 16.567 19.1324 15.6847 19.5186C14.7268 19.9384 13.6906 20.1497 12.6448 20.1385C11.918 20.1385 11.1926 19.9675 10.4761 19.6242C9.75958 19.2823 9.24526 18.8125 8.93607 18.2105C8.82756 18.6282 8.67891 19.2317 8.48121 20.021C8.29094 20.8089 8.1631 21.3173 8.10661 21.5477C8.04716 21.7766 7.93716 22.1586 7.77662 22.6878C7.66774 23.0793 7.52807 23.4615 7.35891 23.8309L6.84756 24.8328C6.62642 25.2627 6.37921 25.6787 6.1073 26.0785C5.83824 26.4679 5.50527 26.9332 5.10838 27.4683L4.88689 27.5471L4.73973 27.3866C4.58068 25.7024 4.49892 24.6945 4.49892 24.3616C4.49892 23.376 4.61635 22.2701 4.84824 21.0423C5.07568 19.8159 5.43541 18.2744 5.91851 16.4208C6.40162 14.5686 6.6781 13.479 6.75243 13.1565C6.41202 12.4623 6.23959 11.5555 6.23959 10.4407C6.23959 9.55027 6.51756 8.71635 7.075 7.93149C7.63391 7.1496 8.33999 6.75865 9.19621 6.75865C9.85174 6.75865 10.3601 6.97568 10.7243 7.41122C11.09 7.84527 11.2684 8.3923 11.2684 9.05973C11.2684 9.76729 11.0335 10.7915 10.5608 12.1308C10.0881 13.4716 9.85323 14.472 9.85323 15.1365C9.85323 15.8098 10.094 16.3732 10.5757 16.8147C11.051 17.2564 11.6795 17.4958 12.3282 17.4821C12.9169 17.4821 13.4624 17.3484 13.9693 17.0793C14.4683 16.8181 14.9002 16.4452 15.2313 15.9897C15.9526 15.0002 16.4668 13.8752 16.7431 12.6823C16.8858 12.055 16.9958 11.4589 17.0642 10.8985C17.137 10.3351 17.1682 9.80297 17.1682 9.29756C17.1682 7.44392 16.5796 5.99906 15.4097 4.96447C14.2339 3.92988 12.7028 3.41555 10.8194 3.41555C8.67742 3.41555 6.88621 4.10825 5.45176 5.49811C4.01581 6.88352 3.29338 8.645 3.29338 10.7811C3.29338 11.2523 3.36473 11.7072 3.5 12.1472C3.6323 12.5857 3.77649 12.935 3.93257 13.1936C4.08717 13.4478 4.23284 13.6961 4.36514 13.925C4.49892 14.1539 4.56879 14.3174 4.56879 14.4155C4.56879 14.7158 4.49 15.1067 4.33095 15.5898C4.16595 16.073 3.97122 16.3138 3.73636 16.3138C3.71406 16.3138 3.6219 16.2974 3.46136 16.2632C2.90536 16.0972 2.40324 15.7869 2.00609 15.3639C1.58458 14.9255 1.25193 14.4096 1.0265 13.8447C0.801709 13.2819 0.626627 12.7004 0.503256 12.107C0.369966 11.5455 0.304095 10.9702 0.30704 10.3931Z" fill="#38869C"/>
</g>
<defs>
<filter id="filter0_d" x="0.306946" y="0.797852" width="20.5849" height="27.6153" filterUnits="userSpaceOnUse" color-interpolation-filters="sRGB">
<feFlood flood-opacity="0" result="BackgroundImageFix"/>
<feColorMatrix in="SourceAlpha" type="matrix" values="0 0 0 0 0 0 0 0 0 0 0 0 0 0 0 0 0 0 127 0"/>
<feOffset dy="0.86609"/>
<feColorMatrix type="matrix" values="0 0 0 0 1 0 0 0 0 0.898039 0 0 0 0 0.384314 0 0 0 1 0"/>
<feBlend mode="normal" in2="BackgroundImageFix" result="effect1_dropShadow"/>
<feBlend mode="normal" in="SourceGraphic" in2="effect1_dropShadow" result="shape"/>
</filter>
</defs>
</svg>
