<svg width="38" height="65" viewBox="0 0 38 65" fill="none" xmlns="http://www.w3.org/2000/svg">
<g filter="url(#filter0_d)">
<path d="M30.5653 5L6.50281 29.0625L5 30.6353L6.50281 32.2081L30.5653 56.2706L33.7109 53.125L11.2191 30.6353L33.7131 8.14562L30.5653 5Z" fill="#38869C"/>
<path d="M31.6256 3.93897L30.5649 2.87905L29.5047 3.93934L5.44215 28.0018L5.43008 28.0139L5.41829 28.0263L3.91548 29.5991L2.92535 30.6353L3.91548 31.6716L5.41829 33.2444L5.43008 33.2567L5.44215 33.2688L29.5047 57.3313L30.5653 58.392L31.626 57.3313L34.7716 54.1857L35.8323 53.125L34.7715 52.0643L13.3405 30.6354L34.7737 9.20639L35.8349 8.14536L34.7734 7.0846L31.6256 3.93897Z" stroke="#38869C" stroke-width="3"/>
</g>
<defs>
<filter id="filter0_d" x="0.850708" y="0.758057" width="37.106" height="63.7552" filterUnits="userSpaceOnUse" color-interpolation-filters="sRGB">
<feFlood flood-opacity="0" result="BackgroundImageFix"/>
<feColorMatrix in="SourceAlpha" type="matrix" values="0 0 0 0 0 0 0 0 0 0 0 0 0 0 0 0 0 0 127 0"/>
<feOffset dy="4"/>
<feColorMatrix type="matrix" values="0 0 0 0 1 0 0 0 0 0.329412 0 0 0 0 0.313726 0 0 0 1 0"/>
<feBlend mode="normal" in2="BackgroundImageFix" result="effect1_dropShadow"/>
<feBlend mode="normal" in="SourceGraphic" in2="effect1_dropShadow" result="shape"/>
</filter>
</defs>
</svg>
