<svg width="22" height="19" viewBox="0 0 22 19" fill="none" xmlns="http://www.w3.org/2000/svg">
<g filter="url(#filter0_d)">
<path d="M19.1757 4.91098C19.1893 5.09429 19.1893 5.27655 19.1893 5.45881C19.1893 11.0366 14.9439 17.4639 7.18528 17.4639C4.79495 17.4639 2.57432 16.7715 0.705627 15.569C1.04501 15.6078 1.37182 15.6214 1.72482 15.6214C3.62387 15.626 5.46915 14.9909 6.96322 13.8187C6.08274 13.8027 5.22921 13.5122 4.52181 12.9878C3.81442 12.4633 3.28847 11.731 3.0174 10.8931C3.27822 10.9318 3.54008 10.958 3.81452 10.958C4.19266 10.958 4.57289 10.9057 4.92589 10.8145C3.97034 10.6216 3.11112 10.1037 2.49431 9.34879C1.8775 8.59391 1.54119 7.6487 1.54256 6.67388V6.6215C2.10505 6.9347 2.75762 7.13057 3.44895 7.15676C2.8698 6.7719 2.39491 6.24967 2.06665 5.63666C1.73839 5.02365 1.56698 4.33891 1.5677 3.64354C1.5677 2.86003 1.77614 2.14147 2.14171 1.51508C3.2019 2.8192 4.52419 3.8861 6.02294 4.64666C7.5217 5.40723 9.1635 5.8445 10.842 5.93017C10.7771 5.61593 10.7373 5.29017 10.7373 4.96336C10.737 4.4092 10.8459 3.86043 11.0579 3.34841C11.2698 2.83638 11.5806 2.37115 11.9724 1.97931C12.3643 1.58746 12.8295 1.27669 13.3415 1.06475C13.8535 0.852811 14.4023 0.743866 14.9565 0.744141C16.1715 0.744141 17.2682 1.25321 18.0392 2.07652C18.9838 1.89386 19.8896 1.54904 20.7165 1.05733C20.4017 2.03234 19.7421 2.85909 18.8614 3.38272C19.6992 3.28717 20.518 3.06686 21.2905 2.7291C20.7135 3.57032 19.9985 4.308 19.1757 4.91098Z" fill="#38869C"/>
</g>
<defs>
<filter id="filter0_d" x="0.705627" y="0.744141" width="20.5849" height="17.5858" filterUnits="userSpaceOnUse" color-interpolation-filters="sRGB">
<feFlood flood-opacity="0" result="BackgroundImageFix"/>
<feColorMatrix in="SourceAlpha" type="matrix" values="0 0 0 0 0 0 0 0 0 0 0 0 0 0 0 0 0 0 127 0"/>
<feOffset dy="0.86609"/>
<feColorMatrix type="matrix" values="0 0 0 0 1 0 0 0 0 0.898039 0 0 0 0 0.384314 0 0 0 1 0"/>
<feBlend mode="normal" in2="BackgroundImageFix" result="effect1_dropShadow"/>
<feBlend mode="normal" in="SourceGraphic" in2="effect1_dropShadow" result="shape"/>
</filter>
</defs>
</svg>
