<svg width="21" height="22" viewBox="0 0 21 22" fill="none" xmlns="http://www.w3.org/2000/svg">
<g filter="url(#filter0_d)">
<path d="M14.9632 12.8537C14.7128 12.725 13.4653 12.1139 13.2332 12.0312C13.0012 11.9439 12.8312 11.9025 12.6635 12.1598C12.4935 12.4149 12.011 12.9823 11.8594 13.1546C11.7124 13.3246 11.563 13.3453 11.3126 13.2189C9.82391 12.4746 8.84751 11.891 7.86653 10.2071C7.60692 9.75906 8.12613 9.79123 8.61088 8.82402C8.69359 8.65402 8.65224 8.50928 8.58791 8.38063C8.52358 8.25197 8.01815 7.00678 7.80679 6.49906C7.60233 6.00512 7.39097 6.07404 7.23704 6.06485C7.09001 6.05566 6.9223 6.05566 6.75229 6.05566C6.58228 6.05566 6.30889 6.11999 6.07686 6.37041C5.84482 6.62542 5.19006 7.23882 5.19006 8.48401C5.19006 9.7292 6.09753 10.9353 6.22159 11.1053C6.35025 11.2753 8.00667 13.83 10.5499 14.9305C12.1581 15.6243 12.7875 15.684 13.5916 15.5646C14.081 15.4911 15.0895 14.9535 15.2986 14.3584C15.5077 13.7657 15.5077 13.258 15.4456 13.1523C15.3836 13.0397 15.2136 12.9754 14.9632 12.8537Z" fill="#38869C"/>
<path d="M19.8268 6.84604C19.3076 5.61234 18.5632 4.505 17.6144 3.55388C16.6656 2.60505 15.5582 1.8584 14.3222 1.34149C13.0587 0.810787 11.717 0.541992 10.334 0.541992H10.288C8.89579 0.548884 7.54722 0.824572 6.27906 1.36676C5.05455 1.89056 3.95639 2.63492 3.01676 3.58374C2.07712 4.53256 1.33966 5.63531 0.82964 6.86442C0.30124 8.13718 0.0347421 9.49034 0.0416342 10.8826C0.0485264 12.477 0.429894 14.0599 1.14438 15.4751V18.9671C1.14438 19.5506 1.61765 20.0239 2.20118 20.0239H5.69552C7.11071 20.7384 8.69362 21.1197 10.288 21.1266H10.3363C11.7124 21.1266 13.0472 20.8601 14.3039 20.3386C15.533 19.8263 16.638 19.0911 17.5845 18.1515C18.5334 17.2119 19.28 16.1137 19.8015 14.8892C20.3437 13.6211 20.6194 12.2725 20.6263 10.8803C20.6332 9.48115 20.3621 8.12339 19.8268 6.84604ZM16.3554 16.9086C14.745 18.503 12.6084 19.3806 10.334 19.3806H10.2949C8.90957 19.3737 7.53343 19.0291 6.31811 18.3813L6.12513 18.2779H2.8904V15.0431L2.78702 14.8502C2.13915 13.6348 1.79455 12.2587 1.78765 10.8734C1.77846 8.58287 2.65377 6.43251 4.25965 4.81285C5.86323 3.19318 8.0067 2.2972 10.2972 2.28801H10.3363C11.485 2.28801 12.5992 2.51086 13.6491 2.95196C14.6737 3.38157 15.5927 3.99957 16.383 4.78987C17.171 5.57788 17.7913 6.49913 18.2209 7.52377C18.6666 8.58517 18.8895 9.71089 18.8849 10.8734C18.8711 13.1616 17.9728 15.305 16.3554 16.9086Z" fill="#38869C"/>
</g>
<defs>
<filter id="filter0_d" x="0.0415039" y="0.541992" width="20.5849" height="21.0846" filterUnits="userSpaceOnUse" color-interpolation-filters="sRGB">
<feFlood flood-opacity="0" result="BackgroundImageFix"/>
<feColorMatrix in="SourceAlpha" type="matrix" values="0 0 0 0 0 0 0 0 0 0 0 0 0 0 0 0 0 0 127 0"/>
<feOffset dy="0.5"/>
<feColorMatrix type="matrix" values="0 0 0 0 1 0 0 0 0 0.898039 0 0 0 0 0.384314 0 0 0 1 0"/>
<feBlend mode="normal" in2="BackgroundImageFix" result="effect1_dropShadow"/>
<feBlend mode="normal" in="SourceGraphic" in2="effect1_dropShadow" result="shape"/>
</filter>
</defs>
</svg>
