<svg width="34" height="26" viewBox="0 0 34 26" fill="none" xmlns="http://www.w3.org/2000/svg">
<path d="M33.7284 13.0502C33.7284 12.9674 33.7284 12.8733 33.7246 12.7641C33.7209 12.4592 33.7134 12.1167 33.7058 11.7515C33.6757 10.7013 33.623 9.65478 33.5402 8.66852C33.4273 7.3096 33.2616 6.17654 33.0358 5.3258C32.7974 4.43798 32.3302 3.62827 31.6809 2.97759C31.0315 2.32692 30.2228 1.85808 29.3354 1.61793C28.2701 1.33184 26.1847 1.15492 23.2485 1.04575C21.8519 0.993051 20.3575 0.959172 18.8631 0.94035C18.3398 0.932821 17.8542 0.929057 17.4176 0.925293H16.3108C15.8742 0.929057 15.3886 0.932821 14.8653 0.94035C13.3709 0.959172 11.8765 0.993051 10.4799 1.04575C7.54372 1.15868 5.45452 1.3356 4.39297 1.61793C3.50535 1.85749 2.69628 2.32613 2.04683 2.9769C1.39739 3.62766 0.930393 4.43769 0.692637 5.3258C0.463013 6.17654 0.301147 7.3096 0.188217 8.66852C0.105401 9.65478 0.0527006 10.7013 0.0225859 11.7515C0.0112929 12.1167 0.00752861 12.4592 0.00376427 12.7641C0.00376427 12.8733 0 12.9674 0 13.0502V13.261C0 13.3438 -5.74952e-08 13.4379 0.00376427 13.5471C0.00752861 13.852 0.0150573 14.1946 0.0225859 14.5597C0.0527006 15.61 0.105401 16.6564 0.188217 17.6427C0.301147 19.0016 0.466777 20.1347 0.692637 20.9854C1.17447 22.7885 2.58986 24.2115 4.39297 24.6933C5.45452 24.9794 7.54372 25.1563 10.4799 25.2655C11.8765 25.3182 13.3709 25.352 14.8653 25.3709C15.3886 25.3784 15.8742 25.3822 16.3108 25.3859H17.4176C17.8542 25.3822 18.3398 25.3784 18.8631 25.3709C20.3575 25.352 21.8519 25.3182 23.2485 25.2655C26.1847 25.1525 28.2739 24.9756 29.3354 24.6933C31.1385 24.2115 32.5539 22.7923 33.0358 20.9854C33.2654 20.1347 33.4273 19.0016 33.5402 17.6427C33.623 16.6564 33.6757 15.61 33.7058 14.5597C33.7171 14.1946 33.7209 13.852 33.7246 13.5471C33.7246 13.4379 33.7284 13.3438 33.7284 13.261V13.0502ZM31.0181 13.246C31.0181 13.325 31.0181 13.4116 31.0143 13.5132C31.0106 13.8068 31.003 14.1306 30.9955 14.4807C30.9692 15.482 30.9165 16.4833 30.8374 17.4131C30.7358 18.6252 30.5927 19.619 30.4158 20.2853C30.1824 21.1548 29.4973 21.8437 28.6315 22.0733C27.841 22.2841 25.8497 22.4535 23.1431 22.5551C21.7729 22.6078 20.2973 22.6417 18.8254 22.6605C18.3097 22.6681 17.8316 22.6718 17.4025 22.6718H16.3259L14.903 22.6605C13.4311 22.6417 11.9593 22.6078 10.5853 22.5551C7.87875 22.4497 5.88365 22.2841 5.0969 22.0733C4.23111 21.8399 3.546 21.1548 3.31261 20.2853C3.13569 19.619 2.99264 18.6252 2.89101 17.4131C2.81196 16.4833 2.76302 15.482 2.7329 14.4807C2.72161 14.1306 2.71785 13.8031 2.71408 13.5132C2.71408 13.4116 2.71032 13.3212 2.71032 13.246V13.0653C2.71032 12.9862 2.71032 12.8996 2.71408 12.798C2.71785 12.5044 2.72538 12.1806 2.7329 11.8306C2.75926 10.8292 2.81196 9.82794 2.89101 8.89815C2.99264 7.68603 3.13569 6.69225 3.31261 6.02596C3.546 5.1564 4.23111 4.46753 5.0969 4.2379C5.88741 4.0271 7.87875 3.85771 10.5853 3.75607C11.9555 3.70337 13.4311 3.66949 14.903 3.65067C15.4187 3.64314 15.8968 3.63938 16.3259 3.63938H17.4025L18.8254 3.65067C20.2973 3.66949 21.7691 3.70337 23.1431 3.75607C25.8497 3.86147 27.8448 4.0271 28.6315 4.2379C29.4973 4.47129 30.1824 5.1564 30.4158 6.02596C30.5927 6.69225 30.7358 7.68603 30.8374 8.89815C30.9165 9.82794 30.9654 10.8292 30.9955 11.8306C31.0068 12.1806 31.0106 12.5081 31.0143 12.798C31.0143 12.8996 31.0181 12.99 31.0181 13.0653V13.246ZM13.5139 18.1998L22.2472 13.118L13.5139 8.1114V18.1998Z" fill="#38869C"/>
</svg>
