<svg width="289" height="35" viewBox="0 0 289 35" fill="none" xmlns="http://www.w3.org/2000/svg">
<path d="M0.00335693 28.4883L70 28.4883V-9.15527e-05L0.00335693 -9.15527e-05V28.4883Z" fill="#38869C"/>
<path d="M58.3327 28.4882H46.6655L52.4991 19.1227L58.3327 9.75732L64.1663 19.1227L69.9967 28.4882H58.3327Z" fill="#4BB462"/>
<path d="M34.9983 28.4882H23.3344L29.1647 19.1227L34.9983 9.75732L40.8319 19.1227L46.6655 28.4882H34.9983Z" fill="#4BB462"/>
<path d="M11.6672 28.4882H0L5.83361 19.1227L11.6672 9.75732L17.5008 19.1227L23.3344 28.4882H11.6672Z" fill="#4BB462"/>
<path d="M11.6672 28.4883H6.97803L9.3226 24.7251L11.6672 20.9619L14.0118 24.7251L16.3531 28.4883H11.6672Z" fill="#FF5450"/>
<path d="M34.9983 28.4883H30.3124L32.6537 24.7251L34.9983 20.9619L37.3429 24.7251L39.6875 28.4883H34.9983Z" fill="#FF5450"/>
<path d="M58.3326 28.4883H53.6434L55.988 24.7251L58.3326 20.9619L60.6772 24.7251L63.0185 28.4883H58.3326Z" fill="#FF5450"/>
<path d="M69.9966 2.27393H0V3.49286H69.9966V2.27393Z" fill="#FFE562"/>
<path d="M69.9966 5.53516H0V6.75408H69.9966V5.53516Z" fill="#FFE562"/>
<mask id="mask0" mask-type="alpha" maskUnits="userSpaceOnUse" x="254" y="0" width="35" height="35">
<path d="M289 0H254V35H289V0Z" fill="#5081A2"/>
</mask>
<g mask="url(#mask0)">
<path d="M257.791 -6.59277L209.63 41.5677" stroke="#FF5450" stroke-miterlimit="10"/>
<path d="M260.817 -6.59277L212.656 41.5677" stroke="#FF5450" stroke-miterlimit="10"/>
<path d="M263.841 -6.59277L215.681 41.5677" stroke="#FF5450" stroke-miterlimit="10"/>
<path d="M266.867 -6.59277L218.707 41.5677" stroke="#FF5450" stroke-miterlimit="10"/>
<path d="M269.894 -6.59277L221.734 41.5677" stroke="#FF5450" stroke-miterlimit="10"/>
<path d="M272.92 -6.59277L224.76 41.5677" stroke="#FF5450" stroke-miterlimit="10"/>
<path d="M275.947 -6.59277L227.786 41.5677" stroke="#FF5450" stroke-miterlimit="10"/>
<path d="M278.973 -6.59277L230.813 41.5677" stroke="#FF5450" stroke-miterlimit="10"/>
<path d="M282 -6.59277L233.837 41.5677" stroke="#FF5450" stroke-miterlimit="10"/>
<path d="M285.024 -6.59277L236.864 41.5677" stroke="#FF5450" stroke-miterlimit="10"/>
<path d="M288.051 -6.59277L239.89 41.5677" stroke="#FF5450" stroke-miterlimit="10"/>
<path d="M291.077 -6.59277L242.917 41.5677" stroke="#FF5450" stroke-miterlimit="10"/>
<path d="M294.103 -6.59277L245.943 41.5677" stroke="#FF5450" stroke-miterlimit="10"/>
<path d="M297.13 -6.59277L248.969 41.5677" stroke="#FF5450" stroke-miterlimit="10"/>
<path d="M300.156 -6.59277L251.994 41.5677" stroke="#FF5450" stroke-miterlimit="10"/>
<path d="M303.181 -6.59277L255.02 41.5677" stroke="#FF5450" stroke-miterlimit="10"/>
<path d="M306.207 -6.59277L258.047 41.5677" stroke="#FF5450" stroke-miterlimit="10"/>
<path d="M309.234 -6.59277L261.073 41.5677" stroke="#FF5450" stroke-miterlimit="10"/>
<path d="M312.26 -6.59277L264.1 41.5677" stroke="#FF5450" stroke-miterlimit="10"/>
<path d="M315.286 -6.59277L267.126 41.5677" stroke="#FF5450" stroke-miterlimit="10"/>
<path d="M318.313 -6.59277L270.152 41.5677" stroke="#FF5450" stroke-miterlimit="10"/>
<path d="M321.337 -6.59277L273.177 41.5677" stroke="#FF5450" stroke-miterlimit="10"/>
<path d="M324.364 -6.59277L276.203 41.5677" stroke="#FF5450" stroke-miterlimit="10"/>
<path d="M327.39 -6.59277L279.23 41.5677" stroke="#FF5450" stroke-miterlimit="10"/>
<path d="M330.417 -6.59277L282.256 41.5677" stroke="#FF5450" stroke-miterlimit="10"/>
<path d="M333.443 -6.59277L285.283 41.5677" stroke="#FF5450" stroke-miterlimit="10"/>
</g>
<path d="M284.034 4.88379H258.207V30.7106H284.034V4.88379Z" fill="#38869C"/>
<path d="M279.104 9.81348H263.139V25.7785H279.104V9.81348Z" fill="#FFE562"/>
<path d="M274.183 14.7363H268.059V20.8602H274.183V14.7363Z" fill="#FF5450"/>
</svg>
