<svg width="320" height="72" viewBox="0 0 320 72" fill="none" xmlns="http://www.w3.org/2000/svg">
<path d="M321.973 -0.276382L321.973 65L113.564 65L113.564 -0.276373L321.973 -0.276382Z" fill="#4BB462"/>
<path d="M2.86227e-06 64.9597L0 -0.31665L116.245 -0.316655L116.245 64.9597L2.86227e-06 64.9597Z" fill="#FFE562"/>
<path d="M178.742 -0.316879L178.742 -0.132187C178.742 17.1337 171.873 33.6923 159.646 45.9011C147.42 58.1099 130.836 64.9688 113.545 64.9688C96.2536 64.9688 79.6705 58.1099 67.4436 45.9011C55.2168 33.6923 48.3478 17.1337 48.3478 -0.132181L48.3478 -0.316874L178.742 -0.316879Z" fill="#FF5450"/>
<g opacity="0.5">
<mask id="mask0" mask-type="alpha" maskUnits="userSpaceOnUse" x="201" y="0" width="56" height="65">
<rect width="64.6392" height="55.3136" transform="matrix(-4.38484e-08 -1 -1 4.35748e-08 256.333 64.6919)" fill="#C4C4C4"/>
</mask>
<g mask="url(#mask0)">
<path d="M201.27 4.62379L362.562 -156.43" stroke="#FF5450" stroke-miterlimit="10"/>
<path d="M201.27 14.7349L362.562 -146.309" stroke="#FF5450" stroke-miterlimit="10"/>
<path d="M201.27 24.856L362.562 -136.188" stroke="#FF5450" stroke-miterlimit="10"/>
<path d="M201.27 34.9766L362.562 -126.067" stroke="#FF5450" stroke-miterlimit="10"/>
<path d="M201.27 45.0972L362.562 -115.947" stroke="#FF5450" stroke-miterlimit="10"/>
<path d="M201.27 55.2178L362.562 -105.826" stroke="#FF5450" stroke-miterlimit="10"/>
<path d="M201.27 65.3384L362.562 -95.7149" stroke="#FF5450" stroke-miterlimit="10"/>
<path d="M201.27 75.4497L362.562 -85.5943" stroke="#FF5450" stroke-miterlimit="10"/>
<path d="M201.27 85.5708L362.562 -75.4732" stroke="#FF5450" stroke-miterlimit="10"/>
<path d="M201.27 95.6914L362.562 -65.3526" stroke="#FF5450" stroke-miterlimit="10"/>
<path d="M201.27 105.812L362.562 -55.2325" stroke="#FF5450" stroke-miterlimit="10"/>
<path d="M201.27 115.933L362.562 -45.1114" stroke="#FF5450" stroke-miterlimit="10"/>
</g>
<path d="M201.27 126.053L362.562 -35" stroke="#FF5450" stroke-miterlimit="10"/>
<path d="M201.27 136.165L362.562 -24.8795" stroke="#FF5450" stroke-miterlimit="10"/>
<path d="M201.27 146.285L362.562 -14.7589" stroke="#FF5450" stroke-miterlimit="10"/>
<path d="M201.27 156.406L362.562 -4.63779" stroke="#FF5450" stroke-miterlimit="10"/>
<path d="M201.27 166.526L362.562 5.48235" stroke="#FF5450" stroke-miterlimit="10"/>
<path d="M201.27 176.647L362.562 15.6034" stroke="#FF5450" stroke-miterlimit="10"/>
<path d="M201.27 186.768L362.562 25.7148" stroke="#FF5450" stroke-miterlimit="10"/>
<path d="M201.27 196.879L362.562 35.8354" stroke="#FF5450" stroke-miterlimit="10"/>
<path d="M201.27 207L362.562 45.956" stroke="#FF5450" stroke-miterlimit="10"/>
</g>
<path d="M256.785 64.9601L256.785 -0.131592L321.973 -0.131595L321.973 64.9601L256.785 64.9601Z" fill="#FF5450"/>
<path d="M321.973 -0.316917L321.973 64.9595C304.684 64.9595 288.103 58.1016 275.878 45.8945C263.653 33.6875 256.785 17.1312 256.785 -0.132222L256.785 -0.316915L321.973 -0.316917Z" fill="#38869C"/>
<path d="M113.24 -0.316589L113.563 -0.131889L56.7817 32.6033L0.00923157 65.3384L0.0092287 -0.131884L0.00922869 -0.316584L113.24 -0.316589Z" fill="#4BB462"/>
<path d="M113.24 -0.316742L113.563 -0.132046L57.1517 32.4092C51.4148 22.5218 48.3997 11.2949 48.4124 -0.132043L48.4124 -0.316739L113.24 -0.316742Z" fill="#38869C"/>
</svg>
