<svg width="1336" height="2171" viewBox="0 0 1336 2171" fill="none" xmlns="http://www.w3.org/2000/svg">
<path d="M146.232 356.17H2V227.997H146.232V356.17Z" fill="#FFE562"/>
<path d="M74.32 73.0469H2.40808V1.16999H74.32V73.0469Z" fill="#FFE562"/>
<mask id="mask0" mask-type="alpha" maskUnits="userSpaceOnUse" x="2" y="73" width="144" height="52">
<path d="M2.94872 73.4548L145.773 73.4548V124.439L2.94872 124.439V73.4548Z" fill="#5081A2"/>
</mask>
<g mask="url(#mask0)">
<path d="M25.0661 134.248L-152.852 -43.5837" stroke="#FF5450" stroke-miterlimit="10"/>
<path d="M36.2472 134.248L-141.671 -43.5835" stroke="#FF5450" stroke-miterlimit="10"/>
<path d="M47.4282 134.248L-130.49 -43.5835" stroke="#FF5450" stroke-miterlimit="10"/>
<path d="M58.6094 134.248L-119.309 -43.5835" stroke="#FF5450" stroke-miterlimit="10"/>
<path d="M69.7904 134.248L-108.138 -43.5835" stroke="#FF5450" stroke-miterlimit="10"/>
<path d="M80.9614 134.248L-96.9565 -43.5835" stroke="#FF5450" stroke-miterlimit="10"/>
<path d="M92.1424 134.248L-85.7755 -43.5835" stroke="#FF5450" stroke-miterlimit="10"/>
<path d="M103.323 134.248L-74.5945 -43.5835" stroke="#FF5450" stroke-miterlimit="10"/>
<path d="M114.504 134.248L-63.4135 -43.5835" stroke="#FF5450" stroke-miterlimit="10"/>
<path d="M125.686 134.248L-52.2322 -43.5835" stroke="#FF5450" stroke-miterlimit="10"/>
<path d="M136.867 134.248L-41.0615 -43.5835" stroke="#FF5450" stroke-miterlimit="10"/>
<path d="M148.037 134.248L-29.8804 -43.5835" stroke="#FF5450" stroke-miterlimit="10"/>
<path d="M159.219 134.248L-18.6992 -43.5835" stroke="#FF5450" stroke-miterlimit="10"/>
<path d="M170.4 134.248L-7.51819 -43.5835" stroke="#FF5450" stroke-miterlimit="10"/>
<path d="M181.581 134.248L3.66284 -43.5835" stroke="#FF5450" stroke-miterlimit="10"/>
<path d="M192.762 134.248L14.8439 -43.5835" stroke="#FF5450" stroke-miterlimit="10"/>
<path d="M203.943 134.248L26.0148 -43.5835" stroke="#FF5450" stroke-miterlimit="10"/>
<path d="M215.114 134.248L37.1959 -43.5835" stroke="#FF5450" stroke-miterlimit="10"/>
<path d="M226.295 134.248L48.3769 -43.5835" stroke="#FF5450" stroke-miterlimit="10"/>
<path d="M237.476 134.248L59.5581 -43.5835" stroke="#FF5450" stroke-miterlimit="10"/>
<path d="M248.657 134.248L70.7391 -43.5835" stroke="#FF5450" stroke-miterlimit="10"/>
<path d="M259.838 134.248L81.9202 -43.5835" stroke="#FF5450" stroke-miterlimit="10"/>
<path d="M271.019 134.248L93.0911 -43.5835" stroke="#FF5450" stroke-miterlimit="10"/>
<path d="M282.19 134.248L104.272 -43.5835" stroke="#FF5450" stroke-miterlimit="10"/>
<path d="M293.371 134.248L115.453 -43.5835" stroke="#FF5450" stroke-miterlimit="10"/>
<path d="M304.552 134.248L126.634 -43.5835" stroke="#FF5450" stroke-miterlimit="10"/>
</g>
<path d="M147 231H2V1.99976H147V231Z" fill="#4BB462"/>
<mask id="mask1" mask-type="alpha" maskUnits="userSpaceOnUse" x="2" y="72" width="144" height="52">
<path d="M2.00009 72.9998L145.824 72.9998V123.984L2.00009 123.984V72.9998Z" fill="#5081A2"/>
</mask>
<g mask="url(#mask1)">
<path d="M24.2722 133.792L-154.891 -44.0388" stroke="#FF5450" stroke-miterlimit="10"/>
<path d="M35.5315 133.793L-143.632 -44.0386" stroke="#FF5450" stroke-miterlimit="10"/>
<path d="M46.7908 133.793L-132.373 -44.0386" stroke="#FF5450" stroke-miterlimit="10"/>
<path d="M58.0504 133.793L-121.113 -44.0386" stroke="#FF5450" stroke-miterlimit="10"/>
<path d="M69.3097 133.793L-109.864 -44.0386" stroke="#FF5450" stroke-miterlimit="10"/>
<path d="M80.5588 133.793L-98.6048 -44.0386" stroke="#FF5450" stroke-miterlimit="10"/>
<path d="M91.8181 133.793L-87.3455 -44.0386" stroke="#FF5450" stroke-miterlimit="10"/>
<path d="M103.078 133.793L-76.0861 -44.0386" stroke="#FF5450" stroke-miterlimit="10"/>
<path d="M114.337 133.793L-64.8268 -44.0386" stroke="#FF5450" stroke-miterlimit="10"/>
<path d="M125.596 133.793L-53.5674 -44.0386" stroke="#FF5450" stroke-miterlimit="10"/>
<path d="M136.856 133.793L-42.3183 -44.0386" stroke="#FF5450" stroke-miterlimit="10"/>
<path d="M148.105 133.793L-31.059 -44.0386" stroke="#FF5450" stroke-miterlimit="10"/>
<path d="M159.364 133.793L-19.7995 -44.0386" stroke="#FF5450" stroke-miterlimit="10"/>
<path d="M170.623 133.793L-8.54022 -44.0386" stroke="#FF5450" stroke-miterlimit="10"/>
<path d="M181.883 133.793L2.71912 -44.0386" stroke="#FF5450" stroke-miterlimit="10"/>
<path d="M193.142 133.793L13.9784 -44.0386" stroke="#FF5450" stroke-miterlimit="10"/>
<path d="M204.401 133.793L25.2275 -44.0386" stroke="#FF5450" stroke-miterlimit="10"/>
<path d="M215.651 133.793L36.4869 -44.0386" stroke="#FF5450" stroke-miterlimit="10"/>
<path d="M226.91 133.793L47.7463 -44.0386" stroke="#FF5450" stroke-miterlimit="10"/>
<path d="M238.169 133.793L59.0057 -44.0386" stroke="#FF5450" stroke-miterlimit="10"/>
<path d="M249.429 133.793L70.265 -44.0386" stroke="#FF5450" stroke-miterlimit="10"/>
<path d="M260.688 133.793L81.5244 -44.0386" stroke="#FF5450" stroke-miterlimit="10"/>
<path d="M271.947 133.793L92.7735 -44.0386" stroke="#FF5450" stroke-miterlimit="10"/>
<path d="M283.196 133.793L104.033 -44.0386" stroke="#FF5450" stroke-miterlimit="10"/>
<path d="M294.456 133.793L115.292 -44.0386" stroke="#FF5450" stroke-miterlimit="10"/>
<path d="M305.715 133.793L126.552 -44.0386" stroke="#FF5450" stroke-miterlimit="10"/>
</g>
<path d="M147 72.9998H2V0.999756H147V72.9998Z" fill="#FF5450"/>
<path d="M74.32 159.087C114.036 159.087 146.232 191.267 146.232 230.963C146.232 270.66 114.036 302.84 74.32 302.84C34.6041 302.84 2.40808 270.66 2.40808 230.963C2.40808 191.267 34.6041 159.087 74.32 159.087Z" fill="#FF5450"/>
<path d="M74.32 73.0469C55.2477 73.0469 36.9567 65.4742 23.4706 51.9946C9.98449 38.5151 2.40808 20.2329 2.40808 1.16999H146.252C146.252 10.6107 144.392 19.959 140.776 28.6808C137.161 37.4026 131.862 45.3272 125.183 52.0019C118.503 58.6765 110.573 63.9705 101.846 67.5814C93.1186 71.1924 83.7653 73.0496 74.32 73.0469Z" fill="#38869C"/>
<path d="M74.32 356.17H146.64L110.485 293.572L74.32 230.964L38.1549 293.572L2 356.17H74.32Z" fill="#4BB462"/>
<path d="M110.271 293.204C99.3419 299.517 86.9423 302.841 74.3199 302.841C61.6974 302.841 49.2978 299.517 38.369 293.204L74.3199 231.004L110.271 293.204Z" fill="#FFE562"/>
<path d="M153.414 115.628H206.126V166.133H153.414V115.628Z" fill="#38869C"/>
<path d="M213.288 115.628H266V166.133H213.288V115.628Z" fill="#FFE562"/>
<path d="M153.414 58.394L206.126 58.394V108.899H153.414V58.394Z" fill="#38869C"/>
<path d="M213.288 58.394L266 58.394V108.899H213.288V58.394Z" fill="#FF5450"/>
<path d="M153.414 1.16968L206.126 1.16968V51.6742L153.414 51.6742V1.16968Z" fill="#38869C"/>
<path d="M213.288 1.16968L266 1.16968V51.6742L213.288 51.6742V1.16968Z" fill="#4BB462"/>
<path d="M74.4999 132H116L95.2529 155.998L74.4999 180L53.747 155.998L32.9999 132H74.4999Z" fill="#38869C"/>
<path d="M74.9999 216H84.9999L80.0006 221.999L74.9999 228L69.9992 221.999L64.9999 216H74.9999Z" fill="#154E60"/>
<path d="M74.9999 216H84.9999L80.0006 210L74.9999 204L69.9992 210L64.9999 216H74.9999Z" fill="#154E60"/>
<path d="M38.4763 155.265L47.4866 166.53L31.75 169.882L16.0103 173.234L22.7384 158.615L29.466 144L38.4763 155.265Z" fill="#154E60"/>
<path d="M110.404 154.679L119.809 144L125.755 158.715L131.701 173.434L116.349 169.396L101 165.358L110.404 154.679Z" fill="#154E60"/>
<circle cx="109" cy="198" r="24" fill="#FFE562"/>
<circle cx="40.9999" cy="198" r="24" fill="#FFE562"/>
<path d="M1258 203.063L1196.67 203.063L1196.67 144.299L1258 144.299L1258 203.063Z" fill="#38869C"/>
<path d="M1188.33 269.659L1127 269.659L1127 210.894L1188.33 210.894L1188.33 269.659Z" fill="#FF5450"/>
<path d="M1258 336.241L1196.67 336.241L1196.67 277.477L1258 277.477L1258 336.241Z" fill="#38869C"/>
<path d="M1188.33 336.241L1127 336.241L1127 277.477L1188.33 277.477L1188.33 336.241Z" fill="#FFE562"/>
<path d="M1258 123.026L1258 0.24133L1135.15 0.241341L1258 123.026Z" fill="#FF5450"/>
<path d="M1227.34 210.894C1243.57 210.894 1256.73 224.046 1256.73 240.27C1256.73 256.494 1243.57 269.646 1227.34 269.646C1211.11 269.646 1197.95 256.494 1197.95 240.27C1197.95 224.046 1211.11 210.894 1227.34 210.894Z" fill="#38869C"/>
<path d="M1157.67 143.801C1173.9 143.801 1187.06 156.953 1187.06 173.177C1187.06 189.401 1173.9 202.553 1157.67 202.553C1141.44 202.553 1128.28 189.401 1128.28 173.177C1128.28 156.953 1141.44 143.801 1157.67 143.801Z" fill="#4BB462"/>
<path d="M1174.01 123.026L1135.15 123.026L1135.15 84.1939L1174.01 84.1939L1174.01 123.026Z" fill="#38869C"/>
<path d="M1257.63 2139.82L1257.63 2035.97L927.105 2035.97L927.105 2139.82L1257.63 2139.82Z" fill="#4BB462"/>
<path d="M747 2035.97L747 2139.82L931.358 2139.82L931.358 2035.97L747 2035.97Z" fill="#FFE562"/>
<path d="M1030.47 2139.82L1030.47 2139.53C1030.47 2112.06 1019.58 2085.72 1000.19 2066.29C980.798 2046.87 954.498 2035.96 927.075 2035.96C899.652 2035.96 873.352 2046.87 853.961 2066.29C834.57 2085.72 823.677 2112.06 823.677 2139.53L823.677 2139.82L1030.47 2139.82Z" fill="#FF5450"/>
<mask id="mask2" mask-type="alpha" maskUnits="userSpaceOnUse" x="1066" y="2036" width="89" height="104">
<rect x="1154.8" y="2036.4" width="102.835" height="87.999" transform="rotate(90 1154.8 2036.4)" fill="#C4C4C4"/>
</mask>
<g mask="url(#mask2)">
<path d="M1066.2 2131.96L1322 2388.18" stroke="#FF5450" stroke-miterlimit="10"/>
<path d="M1066.2 2115.88L1322 2372.08" stroke="#FF5450" stroke-miterlimit="10"/>
<path d="M1066.2 2099.77L1322 2355.98" stroke="#FF5450" stroke-miterlimit="10"/>
<path d="M1066.2 2083.67L1322 2339.88" stroke="#FF5450" stroke-miterlimit="10"/>
<path d="M1066.2 2067.57L1322 2323.78" stroke="#FF5450" stroke-miterlimit="10"/>
<path d="M1066.2 2051.47L1322 2307.68" stroke="#FF5450" stroke-miterlimit="10"/>
<path d="M1066.2 2035.37L1322 2291.59" stroke="#FF5450" stroke-miterlimit="10"/>
<path d="M1066.2 2019.28L1322 2275.49" stroke="#FF5450" stroke-miterlimit="10"/>
<path d="M1066.2 2003.18L1322 2259.39" stroke="#FF5450" stroke-miterlimit="10"/>
<path d="M1066.2 1987.08L1322 2243.29" stroke="#FF5450" stroke-miterlimit="10"/>
<path d="M1066.2 1970.98L1322 2227.19" stroke="#FF5450" stroke-miterlimit="10"/>
<path d="M1066.2 1954.88L1322 2211.09" stroke="#FF5450" stroke-miterlimit="10"/>
</g>
<path d="M1066.2 1938.78L1322 2195" stroke="#FF5450" stroke-miterlimit="10"/>
<path d="M1066.2 1922.69L1322 2178.9" stroke="#FF5450" stroke-miterlimit="10"/>
<path d="M1066.2 1906.59L1322 2162.8" stroke="#FF5450" stroke-miterlimit="10"/>
<path d="M1066.2 1890.49L1322 2146.7" stroke="#FF5450" stroke-miterlimit="10"/>
<path d="M1066.2 1874.39L1322 2130.6" stroke="#FF5450" stroke-miterlimit="10"/>
<path d="M1066.2 1858.29L1322 2114.5" stroke="#FF5450" stroke-miterlimit="10"/>
<path d="M1066.2 1842.19L1322 2098.41" stroke="#FF5450" stroke-miterlimit="10"/>
<path d="M1066.2 1826.1L1322 2082.31" stroke="#FF5450" stroke-miterlimit="10"/>
<path d="M1066.2 1810L1322 2066.21" stroke="#FF5450" stroke-miterlimit="10"/>
<path d="M1154.24 2035.97L1154.24 2139.53L1257.63 2139.53L1257.63 2035.97L1154.24 2035.97Z" fill="#FF5450"/>
<path d="M1257.63 2139.82L1257.63 2035.97C1230.21 2035.97 1203.91 2046.88 1184.53 2066.3C1165.14 2085.72 1154.24 2112.06 1154.24 2139.53L1154.24 2139.82L1257.63 2139.82Z" fill="#38869C"/>
<path d="M926.591 2139.82L927.104 2139.53L837.052 2087.45L747.015 2035.37L747.015 2139.53L747.015 2139.82L926.591 2139.82Z" fill="#4BB462"/>
<path d="M926.591 2139.82L927.104 2139.53L837.639 2087.76C828.541 2103.49 823.759 2121.35 823.779 2139.53L823.779 2139.82L926.591 2139.82Z" fill="#38869C"/>
<mask id="mask3" mask-type="alpha" maskUnits="userSpaceOnUse" x="127" y="972" width="180" height="179">
<path d="M217.187 1150.66C266.458 1150.66 306.4 1110.72 306.4 1061.44C306.4 1012.17 266.458 972.232 217.187 972.232C167.917 972.232 127.975 1012.17 127.975 1061.44C127.975 1110.72 167.917 1150.66 217.187 1150.66Z" fill="#FFE562"/>
</mask>
<g mask="url(#mask3)">
<path d="M162.538 960.698L-36.0109 1159.25" stroke="#FF5450" stroke-miterlimit="10"/>
<path d="M175.028 960.698L-23.521 1159.25" stroke="#FF5450" stroke-miterlimit="10"/>
<path d="M187.499 960.698L-11.0498 1159.25" stroke="#FF5450" stroke-miterlimit="10"/>
<path d="M199.97 960.698L1.42157 1159.25" stroke="#FF5450" stroke-miterlimit="10"/>
<path d="M212.442 960.698L13.893 1159.25" stroke="#FF5450" stroke-miterlimit="10"/>
<path d="M224.931 960.698L26.3644 1159.25" stroke="#FF5450" stroke-miterlimit="10"/>
<path d="M237.403 960.698L38.8541 1159.25" stroke="#FF5450" stroke-miterlimit="10"/>
<path d="M249.874 960.698L51.3254 1159.25" stroke="#FF5450" stroke-miterlimit="10"/>
<path d="M262.345 960.698L63.7969 1159.25" stroke="#FF5450" stroke-miterlimit="10"/>
<path d="M274.835 960.698L76.2683 1159.25" stroke="#FF5450" stroke-miterlimit="10"/>
<path d="M287.307 960.698L88.7579 1159.25" stroke="#FF5450" stroke-miterlimit="10"/>
<path d="M299.778 960.698L101.229 1159.25" stroke="#FF5450" stroke-miterlimit="10"/>
<path d="M312.249 960.698L113.701 1159.25" stroke="#FF5450" stroke-miterlimit="10"/>
<path d="M324.739 960.698L126.172 1159.25" stroke="#FF5450" stroke-miterlimit="10"/>
<path d="M337.21 960.698L138.662 1159.25" stroke="#FF5450" stroke-miterlimit="10"/>
<path d="M349.682 960.698L151.133 1159.25" stroke="#FF5450" stroke-miterlimit="10"/>
<path d="M362.153 960.698L163.605 1159.25" stroke="#FF5450" stroke-miterlimit="10"/>
<path d="M374.643 960.698L176.076 1159.25" stroke="#FF5450" stroke-miterlimit="10"/>
<path d="M387.114 960.698L188.566 1159.25" stroke="#FF5450" stroke-miterlimit="10"/>
<path d="M399.586 960.698L201.037 1159.25" stroke="#FF5450" stroke-miterlimit="10"/>
<path d="M412.057 960.698L213.509 1159.25" stroke="#FF5450" stroke-miterlimit="10"/>
<path d="M424.547 960.698L225.98 1159.25" stroke="#FF5450" stroke-miterlimit="10"/>
<path d="M437.018 960.698L238.47 1159.25" stroke="#FF5450" stroke-miterlimit="10"/>
<path d="M449.49 960.698L250.941 1159.25" stroke="#FF5450" stroke-miterlimit="10"/>
<path d="M461.961 960.698L263.412 1159.25" stroke="#FF5450" stroke-miterlimit="10"/>
<path d="M474.432 960.698L275.884 1159.25" stroke="#FF5450" stroke-miterlimit="10"/>
</g>
<path d="M319 960H116V1163H319V960Z" stroke="#FF5450" stroke-miterlimit="10"/>
<path d="M1089 718.626H1159.77V648H1089V718.626Z" fill="#FFE562"/>
<path d="M1202.19 817.796H1258.32V761.781H1202.19V817.796Z" fill="#38869C"/>
<mask id="mask4" mask-type="alpha" maskUnits="userSpaceOnUse" x="1089" y="647" width="148" height="154">
<path d="M1089 800.122H1236.42V648H1089V800.122Z" fill="#EF9020"/>
</mask>
<g mask="url(#mask4)">
<path d="M1110.47 629.935L934.562 805.486" stroke="#FF5450" stroke-miterlimit="10"/>
<path d="M1121.52 629.935L945.614 805.486" stroke="#FF5450" stroke-miterlimit="10"/>
<path d="M1132.57 629.935L956.675 805.486" stroke="#FF5450" stroke-miterlimit="10"/>
<path d="M1143.62 629.935L967.726 805.486" stroke="#FF5450" stroke-miterlimit="10"/>
<path d="M1154.68 629.935L978.778 805.486" stroke="#FF5450" stroke-miterlimit="10"/>
<path d="M1165.73 629.935L989.829 805.486" stroke="#FF5450" stroke-miterlimit="10"/>
<path d="M1176.79 629.935L1000.88 805.486" stroke="#FF5450" stroke-miterlimit="10"/>
<path d="M1187.84 629.935L1011.93 805.486" stroke="#FF5450" stroke-miterlimit="10"/>
<path d="M1198.89 629.935L1022.98 805.486" stroke="#FF5450" stroke-miterlimit="10"/>
<path d="M1209.94 629.935L1034.04 805.486" stroke="#FF5450" stroke-miterlimit="10"/>
<path d="M1220.99 629.935L1045.1 805.486" stroke="#FF5450" stroke-miterlimit="10"/>
<path d="M1232.05 629.935L1056.15 805.486" stroke="#FF5450" stroke-miterlimit="10"/>
<path d="M1243.1 629.935L1067.2 805.486" stroke="#FF5450" stroke-miterlimit="10"/>
<path d="M1254.15 629.935L1078.25 805.486" stroke="#FF5450" stroke-miterlimit="10"/>
<path d="M1265.21 629.935L1089.3 805.486" stroke="#FF5450" stroke-miterlimit="10"/>
<path d="M1276.26 629.935L1100.35 805.486" stroke="#FF5450" stroke-miterlimit="10"/>
<path d="M1287.31 629.935L1111.4 805.486" stroke="#FF5450" stroke-miterlimit="10"/>
<path d="M1298.36 629.935L1122.46 805.486" stroke="#FF5450" stroke-miterlimit="10"/>
<path d="M1309.41 629.935L1133.52 805.486" stroke="#FF5450" stroke-miterlimit="10"/>
<path d="M1320.47 629.935L1144.57 805.486" stroke="#FF5450" stroke-miterlimit="10"/>
<path d="M1331.52 629.935L1155.62 805.486" stroke="#FF5450" stroke-miterlimit="10"/>
<path d="M1342.57 629.935L1166.67 805.486" stroke="#FF5450" stroke-miterlimit="10"/>
<path d="M1353.63 629.935L1177.72 805.486" stroke="#FF5450" stroke-miterlimit="10"/>
<path d="M1364.68 629.935L1188.77 805.486" stroke="#FF5450" stroke-miterlimit="10"/>
<path d="M1375.73 629.935L1199.82 805.486" stroke="#FF5450" stroke-miterlimit="10"/>
<path d="M1386.78 629.935L1210.89 805.486" stroke="#FF5450" stroke-miterlimit="10"/>
</g>
<path d="M1258.32 771.849C1263.89 771.849 1268.41 767.341 1268.41 761.781C1268.41 756.22 1263.89 751.713 1258.32 751.713C1252.75 751.713 1248.23 756.22 1248.23 761.781C1248.23 767.341 1252.75 771.849 1258.32 771.849Z" stroke="#FFE562" stroke-miterlimit="10"/>
<path d="M1292.12 771.849C1297.69 771.849 1302.2 767.341 1302.2 761.781C1302.2 756.22 1297.69 751.713 1292.12 751.713C1286.54 751.713 1282.03 756.22 1282.03 761.781C1282.03 767.341 1286.54 771.849 1292.12 771.849Z" fill="#FFE562"/>
<path d="M1325.91 771.849C1331.48 771.849 1336 767.341 1336 761.781C1336 756.22 1331.48 751.713 1325.91 751.713C1320.34 751.713 1315.82 756.22 1315.82 761.781C1315.82 767.341 1320.34 771.849 1325.91 771.849Z" fill="#FFE562"/>
<path d="M1258.32 809.929C1263.89 809.929 1268.41 805.422 1268.41 799.861C1268.41 794.301 1263.89 789.793 1258.32 789.793C1252.75 789.793 1248.23 794.301 1248.23 799.861C1248.23 805.422 1252.75 809.929 1258.32 809.929Z" stroke="#FFE562" stroke-miterlimit="10"/>
<path d="M1292.12 809.929C1297.69 809.929 1302.2 805.422 1302.2 799.861C1302.2 794.301 1297.69 789.793 1292.12 789.793C1286.54 789.793 1282.03 794.301 1282.03 799.861C1282.03 805.422 1286.54 809.929 1292.12 809.929Z" fill="#FFE562"/>
<path d="M1325.91 809.929C1331.48 809.929 1336 805.422 1336 799.861C1336 794.301 1331.48 789.793 1325.91 789.793C1320.34 789.793 1315.82 794.301 1315.82 799.861C1315.82 805.422 1320.34 809.929 1325.91 809.929Z" fill="#FFE562"/>
<path d="M1258.32 848C1263.89 848 1268.41 843.492 1268.41 837.932C1268.41 832.371 1263.89 827.864 1258.32 827.864C1252.75 827.864 1248.23 832.371 1248.23 837.932C1248.23 843.492 1252.75 848 1258.32 848Z" fill="#FFE562"/>
<path d="M1292.12 848C1297.69 848 1302.2 843.492 1302.2 837.932C1302.2 832.371 1297.69 827.864 1292.12 827.864C1286.54 827.864 1282.03 832.371 1282.03 837.932C1282.03 843.492 1286.54 848 1292.12 848Z" fill="#FFE562"/>
<path d="M1325.91 848C1331.48 848 1336 843.492 1336 837.932C1336 832.371 1331.48 827.864 1325.91 827.864C1320.34 827.864 1315.82 832.371 1315.82 837.932C1315.82 843.492 1320.34 848 1325.91 848Z" fill="#FFE562"/>
<path d="M1 1861H143" stroke="#38869C" stroke-miterlimit="10"/>
<path d="M1 1870.48H143" stroke="#38869C" stroke-miterlimit="10"/>
<path d="M1 1879.95H143" stroke="#38869C" stroke-miterlimit="10"/>
<path d="M1 1889.45H143" stroke="#38869C" stroke-miterlimit="10"/>
<path d="M1 1898.93H143" stroke="#38869C" stroke-miterlimit="10"/>
<path d="M1 1908.38H143" stroke="#38869C" stroke-miterlimit="10"/>
<path d="M1 1917.88H143" stroke="#38869C" stroke-miterlimit="10"/>
<path d="M1 1927.36H143" stroke="#38869C" stroke-miterlimit="10"/>
<path d="M1 1936.81H143" stroke="#38869C" stroke-miterlimit="10"/>
<path d="M1 1946.31H143" stroke="#38869C" stroke-miterlimit="10"/>
<path d="M1 1955.79H143" stroke="#38869C" stroke-miterlimit="10"/>
<path d="M1 1965.24H143" stroke="#38869C" stroke-miterlimit="10"/>
<path d="M1 1974.74H143" stroke="#38869C" stroke-miterlimit="10"/>
<path d="M1 1984.22H143" stroke="#38869C" stroke-miterlimit="10"/>
<path d="M1 1993.67H143" stroke="#38869C" stroke-miterlimit="10"/>
<path d="M142.985 2003.17H1V2032H142.985V2003.17Z" stroke="#38869C" stroke-miterlimit="10"/>
</svg>
