<svg width="305" height="2190" viewBox="0 0 305 2190" fill="none" xmlns="http://www.w3.org/2000/svg">
<path d="M38.2433 94H0V60.0774H38.2433V94Z" fill="#FFE562"/>
<path d="M19.1757 19.0684H0.108154V0.0452728H19.1757V19.0684Z" fill="#FFE562"/>
<mask id="mask0" mask-type="alpha" maskUnits="userSpaceOnUse" x="0" y="19" width="39" height="14">
<path d="M0.251461 19.1758L38.1215 19.1758V32.6692L0.251461 32.6692V19.1758Z" fill="#5081A2"/>
</mask>
<g mask="url(#mask0)">
<path d="M6.11587 35.2651L-41.0593 -11.8001" stroke="#FF5450" stroke-miterlimit="10"/>
<path d="M9.0806 35.2656L-38.0946 -11.7996" stroke="#FF5450" stroke-miterlimit="10"/>
<path d="M12.0452 35.2656L-35.13 -11.7996" stroke="#FF5450" stroke-miterlimit="10"/>
<path d="M15.0099 35.2656L-32.1653 -11.7996" stroke="#FF5450" stroke-miterlimit="10"/>
<path d="M17.9747 35.2656L-29.2032 -11.7996" stroke="#FF5450" stroke-miterlimit="10"/>
<path d="M20.9366 35.2656L-26.2386 -11.7996" stroke="#FF5450" stroke-miterlimit="10"/>
<path d="M23.9013 35.2656L-23.2739 -11.7996" stroke="#FF5450" stroke-miterlimit="10"/>
<path d="M26.8659 35.2656L-20.3093 -11.7996" stroke="#FF5450" stroke-miterlimit="10"/>
<path d="M29.8306 35.2656L-17.3446 -11.7996" stroke="#FF5450" stroke-miterlimit="10"/>
<path d="M32.7953 35.2656L-14.3799 -11.7996" stroke="#FF5450" stroke-miterlimit="10"/>
<path d="M35.7599 35.2656L-11.418 -11.7996" stroke="#FF5450" stroke-miterlimit="10"/>
<path d="M38.722 35.2656L-8.45325 -11.7996" stroke="#FF5450" stroke-miterlimit="10"/>
<path d="M41.6867 35.2656L-5.48853 -11.7996" stroke="#FF5450" stroke-miterlimit="10"/>
<path d="M44.6513 35.2656L-2.52393 -11.7996" stroke="#FF5450" stroke-miterlimit="10"/>
<path d="M47.616 35.2656L0.440796 -11.7996" stroke="#FF5450" stroke-miterlimit="10"/>
<path d="M50.5806 35.2656L3.4054 -11.7996" stroke="#FF5450" stroke-miterlimit="10"/>
<path d="M53.5453 35.2656L6.36743 -11.7996" stroke="#FF5450" stroke-miterlimit="10"/>
<path d="M56.5074 35.2656L9.33215 -11.7996" stroke="#FF5450" stroke-miterlimit="10"/>
<path d="M59.4719 35.2656L12.2968 -11.7996" stroke="#FF5450" stroke-miterlimit="10"/>
<path d="M62.4367 35.2656L15.2615 -11.7996" stroke="#FF5450" stroke-miterlimit="10"/>
<path d="M65.4014 35.2656L18.2262 -11.7996" stroke="#FF5450" stroke-miterlimit="10"/>
<path d="M68.366 35.2656L21.1908 -11.7996" stroke="#FF5450" stroke-miterlimit="10"/>
<path d="M71.3307 35.2656L24.1528 -11.7996" stroke="#FF5450" stroke-miterlimit="10"/>
<path d="M74.2926 35.2656L27.1174 -11.7996" stroke="#FF5450" stroke-miterlimit="10"/>
<path d="M77.2573 35.2656L30.0822 -11.7996" stroke="#FF5450" stroke-miterlimit="10"/>
<path d="M80.2221 35.2656L33.0469 -11.7996" stroke="#FF5450" stroke-miterlimit="10"/>
</g>
<path d="M38.447 60.8721H0V0.264454H38.447V60.8721Z" fill="#4BB462"/>
<mask id="mask1" mask-type="alpha" maskUnits="userSpaceOnUse" x="0" y="19" width="39" height="14">
<path d="M-1.52588e-05 19.0552L38.1351 19.0552V32.5486L-1.52588e-05 32.5486V19.0552Z" fill="#5081A2"/>
</mask>
<g mask="url(#mask1)">
<path d="M5.90552 35.145L-41.6 -11.9202" stroke="#FF5450" stroke-miterlimit="10"/>
<path d="M8.89088 35.145L-38.6146 -11.9202" stroke="#FF5450" stroke-miterlimit="10"/>
<path d="M11.8763 35.145L-35.6292 -11.9202" stroke="#FF5450" stroke-miterlimit="10"/>
<path d="M14.8618 35.145L-32.6437 -11.9202" stroke="#FF5450" stroke-miterlimit="10"/>
<path d="M17.8472 35.145L-29.661 -11.9202" stroke="#FF5450" stroke-miterlimit="10"/>
<path d="M20.83 35.145L-26.6755 -11.9202" stroke="#FF5450" stroke-miterlimit="10"/>
<path d="M23.8154 35.145L-23.6901 -11.9202" stroke="#FF5450" stroke-miterlimit="10"/>
<path d="M26.8009 35.145L-20.7046 -11.9202" stroke="#FF5450" stroke-miterlimit="10"/>
<path d="M29.7863 35.145L-17.7192 -11.9202" stroke="#FF5450" stroke-miterlimit="10"/>
<path d="M32.7717 35.145L-14.7338 -11.9202" stroke="#FF5450" stroke-miterlimit="10"/>
<path d="M35.7571 35.145L-11.7511 -11.9202" stroke="#FF5450" stroke-miterlimit="10"/>
<path d="M38.7399 35.145L-8.76562 -11.9202" stroke="#FF5450" stroke-miterlimit="10"/>
<path d="M41.7253 35.145L-5.78015 -11.9202" stroke="#FF5450" stroke-miterlimit="10"/>
<path d="M44.7107 35.145L-2.7948 -11.9202" stroke="#FF5450" stroke-miterlimit="10"/>
<path d="M47.6962 35.145L0.190674 -11.9202" stroke="#FF5450" stroke-miterlimit="10"/>
<path d="M50.6817 35.145L3.17615 -11.9202" stroke="#FF5450" stroke-miterlimit="10"/>
<path d="M53.667 35.145L6.15881 -11.9202" stroke="#FF5450" stroke-miterlimit="10"/>
<path d="M56.6498 35.145L9.14429 -11.9202" stroke="#FF5450" stroke-miterlimit="10"/>
<path d="M59.6351 35.145L12.1296 -11.9202" stroke="#FF5450" stroke-miterlimit="10"/>
<path d="M62.6206 35.145L15.1151 -11.9202" stroke="#FF5450" stroke-miterlimit="10"/>
<path d="M65.6061 35.145L18.1006 -11.9202" stroke="#FF5450" stroke-miterlimit="10"/>
<path d="M68.5916 35.145L21.0861 -11.9202" stroke="#FF5450" stroke-miterlimit="10"/>
<path d="M71.5769 35.145L24.0687 -11.9202" stroke="#FF5450" stroke-miterlimit="10"/>
<path d="M74.5597 35.145L27.0542 -11.9202" stroke="#FF5450" stroke-miterlimit="10"/>
<path d="M77.5452 35.145L30.0397 -11.9202" stroke="#FF5450" stroke-miterlimit="10"/>
<path d="M80.5305 35.145L33.025 -11.9202" stroke="#FF5450" stroke-miterlimit="10"/>
</g>
<path d="M38.447 19.0557H0V-3.8147e-06H38.447V19.0557Z" fill="#FF5450"/>
<path d="M19.1757 41.8396C29.7064 41.8396 38.2432 50.3565 38.2432 60.8627C38.2432 71.3688 29.7064 79.8857 19.1757 79.8857C8.64498 79.8857 0.108154 71.3688 0.108154 60.8627C0.108154 50.3565 8.64498 41.8396 19.1757 41.8396Z" fill="#FF5450"/>
<path d="M19.1757 19.0684C14.1187 19.0684 9.26877 17.0642 5.69291 13.4966C2.11705 9.92911 0.108154 5.09051 0.108154 0.0452728H38.2486C38.2486 2.54387 37.7553 5.018 36.7967 7.32634C35.8381 9.63468 34.4331 11.732 32.662 13.4985C30.8908 15.2651 28.7882 16.6662 26.4742 17.6219C24.1602 18.5775 21.6801 19.0691 19.1757 19.0684Z" fill="#38869C"/>
<path d="M19.1757 94H38.3515L28.765 77.4327L19.1757 60.8627L9.58652 77.4327L0 94H19.1757Z" fill="#4BB462"/>
<path d="M28.7081 77.3354C25.8104 79.0061 22.5226 79.8857 19.1757 79.8857C15.8289 79.8857 12.5411 79.0061 9.64331 77.3354L19.1757 60.8734L28.7081 77.3354Z" fill="#FFE562"/>
<path d="M40.1475 30.3379H54.1243V43.7045H40.1475V30.3379Z" fill="#38869C"/>
<path d="M56.0233 30.3379H70V43.7045H56.0233V30.3379Z" fill="#FFE562"/>
<path d="M40.1475 15.1904L54.1243 15.1904V28.5571H40.1475V15.1904Z" fill="#38869C"/>
<path d="M56.0233 15.1904L70 15.1904V28.5571H56.0233V15.1904Z" fill="#FF5450"/>
<path d="M40.1475 0.0449219L54.1243 0.0449219V13.4115L40.1475 13.4115V0.0449219Z" fill="#38869C"/>
<path d="M56.0233 0.0449219L70 0.0449219V13.4115L56.0233 13.4115V0.0449219Z" fill="#4BB462"/>
<path d="M19.2234 34.6704H30.2272L24.7261 41.0218L19.2234 47.3742L13.7207 41.0218L8.2196 34.6704H19.2234Z" fill="#38869C"/>
<path d="M19.356 56.9023H22.0075L20.6819 58.4902L19.356 60.0783L18.03 58.4902L16.7045 56.9023H19.356Z" fill="#154E60"/>
<path d="M19.356 56.9023H22.0075L20.6819 55.3145L19.356 53.7264L18.03 55.3145L16.7045 56.9023H19.356Z" fill="#154E60"/>
<path d="M9.67169 40.8282L12.0608 43.8097L7.8882 44.6968L3.71479 45.5839L5.49877 41.7149L7.28259 37.8467L9.67169 40.8282Z" fill="#154E60"/>
<path d="M28.7436 40.6727L31.2372 37.8464L32.8138 41.741L34.3904 45.6365L30.3198 44.5677L26.25 43.499L28.7436 40.6727Z" fill="#154E60"/>
<ellipse cx="28.3712" cy="52.138" rx="6.36364" ry="6.35189" fill="#FFE562"/>
<ellipse cx="10.3409" cy="52.138" rx="6.36364" ry="6.35189" fill="#FFE562"/>
<path d="M304.873 2173.8L304.873 2143.32L207.862 2143.32L207.862 2173.8L304.873 2173.8Z" fill="#4BB462"/>
<path d="M155 2143.32L155 2173.8L209.11 2173.8L209.11 2143.32L155 2143.32Z" fill="#FFE562"/>
<path d="M238.201 2173.8L238.201 2173.72C238.201 2165.66 235.004 2157.92 229.313 2152.22C223.621 2146.52 215.902 2143.32 207.853 2143.32C199.804 2143.32 192.085 2146.52 186.394 2152.22C180.702 2157.92 177.505 2165.66 177.505 2173.72L177.505 2173.8L238.201 2173.8Z" fill="#FF5450"/>
<mask id="mask2" mask-type="alpha" maskUnits="userSpaceOnUse" x="248" y="2143" width="27" height="31">
<rect x="274.692" y="2143.45" width="30.1827" height="25.8282" transform="rotate(90 274.692 2143.45)" fill="#C4C4C4"/>
</mask>
<g mask="url(#mask2)">
<path d="M248.688 2171.5L323.766 2246.7" stroke="#FF5450" stroke-miterlimit="10"/>
<path d="M248.688 2166.78L323.766 2241.97" stroke="#FF5450" stroke-miterlimit="10"/>
<path d="M248.688 2162.05L323.766 2237.25" stroke="#FF5450" stroke-miterlimit="10"/>
<path d="M248.688 2157.33L323.766 2232.52" stroke="#FF5450" stroke-miterlimit="10"/>
<path d="M248.688 2152.6L323.766 2227.8" stroke="#FF5450" stroke-miterlimit="10"/>
<path d="M248.688 2147.87L323.766 2223.07" stroke="#FF5450" stroke-miterlimit="10"/>
<path d="M248.688 2143.15L323.766 2218.35" stroke="#FF5450" stroke-miterlimit="10"/>
<path d="M248.688 2138.43L323.766 2213.62" stroke="#FF5450" stroke-miterlimit="10"/>
<path d="M248.688 2133.7L323.766 2208.9" stroke="#FF5450" stroke-miterlimit="10"/>
<path d="M248.688 2128.98L323.766 2204.17" stroke="#FF5450" stroke-miterlimit="10"/>
<path d="M248.688 2124.25L323.766 2199.45" stroke="#FF5450" stroke-miterlimit="10"/>
<path d="M248.688 2119.52L323.766 2194.72" stroke="#FF5450" stroke-miterlimit="10"/>
</g>
<path d="M248.688 2114.8L323.766 2190" stroke="#FF5450" stroke-miterlimit="10"/>
<path d="M248.688 2110.08L323.766 2185.27" stroke="#FF5450" stroke-miterlimit="10"/>
<path d="M248.688 2105.35L323.766 2180.55" stroke="#FF5450" stroke-miterlimit="10"/>
<path d="M248.688 2100.62L323.766 2175.82" stroke="#FF5450" stroke-miterlimit="10"/>
<path d="M248.688 2095.9L323.766 2171.1" stroke="#FF5450" stroke-miterlimit="10"/>
<path d="M248.688 2091.17L323.766 2166.37" stroke="#FF5450" stroke-miterlimit="10"/>
<path d="M248.688 2086.45L323.766 2161.65" stroke="#FF5450" stroke-miterlimit="10"/>
<path d="M248.688 2081.73L323.766 2156.92" stroke="#FF5450" stroke-miterlimit="10"/>
<path d="M248.688 2077L323.766 2152.2" stroke="#FF5450" stroke-miterlimit="10"/>
<path d="M274.529 2143.32L274.529 2173.72L304.873 2173.72L304.873 2143.32L274.529 2143.32Z" fill="#FF5450"/>
<path d="M304.873 2173.8L304.873 2143.32C296.825 2143.32 289.107 2146.53 283.416 2152.23C277.726 2157.93 274.529 2165.66 274.529 2173.72L274.529 2173.8L304.873 2173.8Z" fill="#38869C"/>
<path d="M207.711 2173.8L207.862 2173.72L181.431 2158.43L155.004 2143.15L155.004 2173.72L155.004 2173.8L207.711 2173.8Z" fill="#4BB462"/>
<path d="M207.711 2173.81L207.862 2173.72L181.603 2158.52C178.933 2163.14 177.529 2168.38 177.535 2173.72L177.535 2173.81L207.711 2173.81Z" fill="#38869C"/>
<path d="M290 30.5918H275.954V44.0904H290V30.5918Z" fill="#38869C"/>
<path d="M274.046 15.2944H260V28.7931H274.046V15.2944Z" fill="#FF5450"/>
<path d="M290 0H275.954V13.4986H290V0Z" fill="#38869C"/>
<path d="M274.046 0H260V13.4986H274.046V0Z" fill="#FFE562"/>
<path d="M290 48.9771V77.1817H261.868L290 48.9771Z" fill="#FF5450"/>
<path d="M282.978 28.7933C286.696 28.7933 289.709 25.7721 289.709 22.0453C289.709 18.3185 286.696 15.2974 282.978 15.2974C279.261 15.2974 276.248 18.3185 276.248 22.0453C276.248 25.7721 279.261 28.7933 282.978 28.7933Z" fill="#38869C"/>
<path d="M267.024 44.2049C270.742 44.2049 273.755 41.1837 273.755 37.4569C273.755 33.7301 270.742 30.709 267.024 30.709C263.307 30.709 260.294 33.7301 260.294 37.4569C260.294 41.1837 263.307 44.2049 267.024 44.2049Z" fill="#4BB462"/>
<path d="M270.765 48.9771H261.868V57.8971H270.765V48.9771Z" fill="#38869C"/>
<mask id="mask3" mask-type="alpha" maskUnits="userSpaceOnUse" x="221" y="692" width="62" height="62">
<path d="M251.89 753.747C268.88 753.747 282.653 739.974 282.653 722.984C282.653 705.994 268.88 692.221 251.89 692.221C234.9 692.221 221.127 705.994 221.127 722.984C221.127 739.974 234.9 753.747 251.89 753.747Z" fill="#FFE562"/>
</mask>
<g mask="url(#mask3)">
<path d="M233.05 688.239L164.585 756.704" stroke="#FF5450" stroke-miterlimit="10"/>
<path d="M237.357 688.239L168.892 756.704" stroke="#FF5450" stroke-miterlimit="10"/>
<path d="M241.655 688.239L173.19 756.704" stroke="#FF5450" stroke-miterlimit="10"/>
<path d="M245.953 688.239L177.488 756.704" stroke="#FF5450" stroke-miterlimit="10"/>
<path d="M250.26 688.239L181.795 756.704" stroke="#FF5450" stroke-miterlimit="10"/>
<path d="M254.564 688.239L186.093 756.704" stroke="#FF5450" stroke-miterlimit="10"/>
<path d="M258.865 688.239L190.4 756.704" stroke="#FF5450" stroke-miterlimit="10"/>
<path d="M263.163 688.239L194.698 756.704" stroke="#FF5450" stroke-miterlimit="10"/>
<path d="M267.461 688.239L198.996 756.704" stroke="#FF5450" stroke-miterlimit="10"/>
<path d="M271.774 688.239L203.302 756.704" stroke="#FF5450" stroke-miterlimit="10"/>
<path d="M276.074 688.239L207.609 756.704" stroke="#FF5450" stroke-miterlimit="10"/>
<path d="M280.372 688.239L211.907 756.704" stroke="#FF5450" stroke-miterlimit="10"/>
<path d="M284.67 688.239L216.205 756.704" stroke="#FF5450" stroke-miterlimit="10"/>
<path d="M288.975 688.239L220.503 756.704" stroke="#FF5450" stroke-miterlimit="10"/>
<path d="M293.275 688.239L224.81 756.704" stroke="#FF5450" stroke-miterlimit="10"/>
<path d="M297.582 688.239L229.117 756.704" stroke="#FF5450" stroke-miterlimit="10"/>
<path d="M301.88 688.239L233.415 756.704" stroke="#FF5450" stroke-miterlimit="10"/>
<path d="M306.184 688.239L237.713 756.704" stroke="#FF5450" stroke-miterlimit="10"/>
<path d="M310.485 688.239L242.02 756.704" stroke="#FF5450" stroke-miterlimit="10"/>
<path d="M314.791 688.239L246.326 756.704" stroke="#FF5450" stroke-miterlimit="10"/>
<path d="M319.089 688.239L250.624 756.704" stroke="#FF5450" stroke-miterlimit="10"/>
<path d="M323.394 688.239L254.922 756.704" stroke="#FF5450" stroke-miterlimit="10"/>
<path d="M327.694 688.239L259.229 756.704" stroke="#FF5450" stroke-miterlimit="10"/>
<path d="M332.001 688.239L263.536 756.704" stroke="#FF5450" stroke-miterlimit="10"/>
<path d="M336.299 688.239L267.834 756.704" stroke="#FF5450" stroke-miterlimit="10"/>
<path d="M340.597 688.239L272.132 756.704" stroke="#FF5450" stroke-miterlimit="10"/>
</g>
<path d="M287 688H217V758H287V688Z" stroke="#FF5450" stroke-miterlimit="10"/>
<path d="M17 1396H97" stroke="#38869C" stroke-miterlimit="10"/>
<path d="M17 1401.34H97" stroke="#38869C" stroke-miterlimit="10"/>
<path d="M17 1406.68H97" stroke="#38869C" stroke-miterlimit="10"/>
<path d="M17 1412.03H97" stroke="#38869C" stroke-miterlimit="10"/>
<path d="M17 1417.37H97" stroke="#38869C" stroke-miterlimit="10"/>
<path d="M17 1422.69H97" stroke="#38869C" stroke-miterlimit="10"/>
<path d="M17 1428.05H97" stroke="#38869C" stroke-miterlimit="10"/>
<path d="M17 1433.38H97" stroke="#38869C" stroke-miterlimit="10"/>
<path d="M17 1438.71H97" stroke="#38869C" stroke-miterlimit="10"/>
<path d="M17 1444.06H97" stroke="#38869C" stroke-miterlimit="10"/>
<path d="M17 1449.4H97" stroke="#38869C" stroke-miterlimit="10"/>
<path d="M17 1454.73H97" stroke="#38869C" stroke-miterlimit="10"/>
<path d="M17 1460.08H97" stroke="#38869C" stroke-miterlimit="10"/>
<path d="M17 1465.42H97" stroke="#38869C" stroke-miterlimit="10"/>
<path d="M17 1470.75H97" stroke="#38869C" stroke-miterlimit="10"/>
<path d="M96.9917 1476.1H17V1492.34H96.9917V1476.1Z" stroke="#38869C" stroke-miterlimit="10"/>
</svg>
