<svg width="69" height="29" viewBox="0 0 69 29" fill="none" xmlns="http://www.w3.org/2000/svg">
<path d="M0.00330353 28.2275L69 28.2275V0.000284195L0.00330353 0.000284195V28.2275Z" fill="#38869C"/>
<path d="M57.4994 28.2271H45.9989L51.7492 18.9475L57.4994 9.66797L63.2497 18.9475L68.9967 28.2271H57.4994Z" fill="#4BB462"/>
<path d="M34.4984 28.2271H23.0011L28.7481 18.9475L34.4984 9.66797L40.2487 18.9475L45.9989 28.2271H34.4984Z" fill="#4BB462"/>
<path d="M11.5005 28.2271H0L5.75028 18.9475L11.5005 9.66797L17.2508 18.9475L23.0011 28.2271H11.5005Z" fill="#4BB462"/>
<path d="M11.5005 28.2269H6.8783L9.18938 24.4982L11.5005 20.7695L13.8116 24.4982L16.1194 28.2269H11.5005Z" fill="#FF5450"/>
<path d="M34.4982 28.2269H29.8793L32.1871 24.4982L34.4982 20.7695L36.8093 24.4982L39.1204 28.2269H34.4982Z" fill="#FF5450"/>
<path d="M57.4994 28.2269H52.8772L55.1883 24.4982L57.4994 20.7695L59.8105 24.4982L62.1183 28.2269H57.4994Z" fill="#FF5450"/>
<path d="M68.9967 2.25293H0V3.46069H68.9967V2.25293Z" fill="#FFE562"/>
<path d="M68.9967 5.48486H0V6.69262H68.9967V5.48486Z" fill="#FFE562"/>
</svg>
