<svg width="292" height="589" viewBox="0 0 292 589" fill="none" xmlns="http://www.w3.org/2000/svg">
<path d="M38.2433 94H0V60.0774H38.2433V94Z" fill="#FFE562"/>
<path d="M19.1757 19.0684H0.108154V0.0452728H19.1757V19.0684Z" fill="#FFE562"/>
<mask id="mask0" mask-type="alpha" maskUnits="userSpaceOnUse" x="0" y="19" width="39" height="14">
<path d="M0.251461 19.1768L38.1215 19.1768V32.6702L0.251461 32.6702V19.1768Z" fill="#5081A2"/>
</mask>
<g mask="url(#mask0)">
<path d="M6.11587 35.2666L-41.0593 -11.7986" stroke="#FF5450" stroke-miterlimit="10"/>
<path d="M9.0806 35.2666L-38.0946 -11.7986" stroke="#FF5450" stroke-miterlimit="10"/>
<path d="M12.0452 35.2666L-35.13 -11.7986" stroke="#FF5450" stroke-miterlimit="10"/>
<path d="M15.0099 35.2666L-32.1653 -11.7986" stroke="#FF5450" stroke-miterlimit="10"/>
<path d="M17.9747 35.2666L-29.2032 -11.7986" stroke="#FF5450" stroke-miterlimit="10"/>
<path d="M20.9366 35.2666L-26.2386 -11.7986" stroke="#FF5450" stroke-miterlimit="10"/>
<path d="M23.9013 35.2666L-23.2739 -11.7986" stroke="#FF5450" stroke-miterlimit="10"/>
<path d="M26.8659 35.2666L-20.3093 -11.7986" stroke="#FF5450" stroke-miterlimit="10"/>
<path d="M29.8306 35.2666L-17.3446 -11.7986" stroke="#FF5450" stroke-miterlimit="10"/>
<path d="M32.7953 35.2666L-14.3799 -11.7986" stroke="#FF5450" stroke-miterlimit="10"/>
<path d="M35.7599 35.2666L-11.418 -11.7986" stroke="#FF5450" stroke-miterlimit="10"/>
<path d="M38.722 35.2666L-8.45325 -11.7986" stroke="#FF5450" stroke-miterlimit="10"/>
<path d="M41.6867 35.2666L-5.48853 -11.7986" stroke="#FF5450" stroke-miterlimit="10"/>
<path d="M44.6513 35.2666L-2.52393 -11.7986" stroke="#FF5450" stroke-miterlimit="10"/>
<path d="M47.616 35.2666L0.440796 -11.7986" stroke="#FF5450" stroke-miterlimit="10"/>
<path d="M50.5806 35.2666L3.4054 -11.7986" stroke="#FF5450" stroke-miterlimit="10"/>
<path d="M53.5453 35.2666L6.36743 -11.7986" stroke="#FF5450" stroke-miterlimit="10"/>
<path d="M56.5074 35.2666L9.33215 -11.7986" stroke="#FF5450" stroke-miterlimit="10"/>
<path d="M59.4719 35.2666L12.2968 -11.7986" stroke="#FF5450" stroke-miterlimit="10"/>
<path d="M62.4367 35.2666L15.2615 -11.7986" stroke="#FF5450" stroke-miterlimit="10"/>
<path d="M65.4014 35.2666L18.2262 -11.7986" stroke="#FF5450" stroke-miterlimit="10"/>
<path d="M68.366 35.2666L21.1908 -11.7986" stroke="#FF5450" stroke-miterlimit="10"/>
<path d="M71.3307 35.2666L24.1528 -11.7986" stroke="#FF5450" stroke-miterlimit="10"/>
<path d="M74.2926 35.2666L27.1174 -11.7986" stroke="#FF5450" stroke-miterlimit="10"/>
<path d="M77.2573 35.2666L30.0822 -11.7986" stroke="#FF5450" stroke-miterlimit="10"/>
<path d="M80.2221 35.2666L33.0469 -11.7986" stroke="#FF5450" stroke-miterlimit="10"/>
</g>
<path d="M38.447 60.8721H0V0.264454H38.447V60.8721Z" fill="#4BB462"/>
<mask id="mask1" mask-type="alpha" maskUnits="userSpaceOnUse" x="0" y="19" width="39" height="14">
<path d="M-1.52588e-05 19.0557L38.1351 19.0557V32.5491L-1.52588e-05 32.5491V19.0557Z" fill="#5081A2"/>
</mask>
<g mask="url(#mask1)">
<path d="M5.90552 35.1445L-41.6 -11.9207" stroke="#FF5450" stroke-miterlimit="10"/>
<path d="M8.89088 35.1445L-38.6146 -11.9207" stroke="#FF5450" stroke-miterlimit="10"/>
<path d="M11.8763 35.1445L-35.6292 -11.9207" stroke="#FF5450" stroke-miterlimit="10"/>
<path d="M14.8618 35.1445L-32.6437 -11.9207" stroke="#FF5450" stroke-miterlimit="10"/>
<path d="M17.8472 35.1445L-29.661 -11.9207" stroke="#FF5450" stroke-miterlimit="10"/>
<path d="M20.83 35.1445L-26.6755 -11.9207" stroke="#FF5450" stroke-miterlimit="10"/>
<path d="M23.8154 35.1445L-23.6901 -11.9207" stroke="#FF5450" stroke-miterlimit="10"/>
<path d="M26.8009 35.1445L-20.7046 -11.9207" stroke="#FF5450" stroke-miterlimit="10"/>
<path d="M29.7863 35.1445L-17.7192 -11.9207" stroke="#FF5450" stroke-miterlimit="10"/>
<path d="M32.7717 35.1445L-14.7338 -11.9207" stroke="#FF5450" stroke-miterlimit="10"/>
<path d="M35.7571 35.1445L-11.7511 -11.9207" stroke="#FF5450" stroke-miterlimit="10"/>
<path d="M38.7399 35.1445L-8.76562 -11.9207" stroke="#FF5450" stroke-miterlimit="10"/>
<path d="M41.7253 35.1445L-5.78015 -11.9207" stroke="#FF5450" stroke-miterlimit="10"/>
<path d="M44.7107 35.1445L-2.7948 -11.9207" stroke="#FF5450" stroke-miterlimit="10"/>
<path d="M47.6962 35.1445L0.190674 -11.9207" stroke="#FF5450" stroke-miterlimit="10"/>
<path d="M50.6817 35.1445L3.17615 -11.9207" stroke="#FF5450" stroke-miterlimit="10"/>
<path d="M53.667 35.1445L6.15881 -11.9207" stroke="#FF5450" stroke-miterlimit="10"/>
<path d="M56.6498 35.1445L9.14429 -11.9207" stroke="#FF5450" stroke-miterlimit="10"/>
<path d="M59.6351 35.1445L12.1296 -11.9207" stroke="#FF5450" stroke-miterlimit="10"/>
<path d="M62.6206 35.1445L15.1151 -11.9207" stroke="#FF5450" stroke-miterlimit="10"/>
<path d="M65.6061 35.1445L18.1006 -11.9207" stroke="#FF5450" stroke-miterlimit="10"/>
<path d="M68.5916 35.1445L21.0861 -11.9207" stroke="#FF5450" stroke-miterlimit="10"/>
<path d="M71.5769 35.1445L24.0687 -11.9207" stroke="#FF5450" stroke-miterlimit="10"/>
<path d="M74.5597 35.1445L27.0542 -11.9207" stroke="#FF5450" stroke-miterlimit="10"/>
<path d="M77.5452 35.1445L30.0397 -11.9207" stroke="#FF5450" stroke-miterlimit="10"/>
<path d="M80.5305 35.1445L33.025 -11.9207" stroke="#FF5450" stroke-miterlimit="10"/>
</g>
<path d="M38.447 19.0557H0V-3.8147e-06H38.447V19.0557Z" fill="#FF5450"/>
<path d="M19.1757 41.8396C29.7064 41.8396 38.2432 50.3565 38.2432 60.8627C38.2432 71.3688 29.7064 79.8857 19.1757 79.8857C8.64498 79.8857 0.108154 71.3688 0.108154 60.8627C0.108154 50.3565 8.64498 41.8396 19.1757 41.8396Z" fill="#FF5450"/>
<path d="M19.1757 19.0684C14.1187 19.0684 9.26877 17.0642 5.69291 13.4966C2.11705 9.92911 0.108154 5.09051 0.108154 0.0452728H38.2486C38.2486 2.54387 37.7553 5.018 36.7967 7.32634C35.8381 9.63468 34.4331 11.732 32.662 13.4985C30.8908 15.2651 28.7882 16.6662 26.4742 17.6219C24.1602 18.5775 21.6801 19.0691 19.1757 19.0684Z" fill="#38869C"/>
<path d="M19.1757 94H38.3515L28.765 77.4327L19.1757 60.8627L9.58652 77.4327L0 94H19.1757Z" fill="#4BB462"/>
<path d="M28.7081 77.3354C25.8104 79.0061 22.5226 79.8857 19.1757 79.8857C15.8289 79.8857 12.5411 79.0061 9.64331 77.3354L19.1757 60.8734L28.7081 77.3354Z" fill="#FFE562"/>
<path d="M40.1475 30.3379H54.1243V43.7045H40.1475V30.3379Z" fill="#38869C"/>
<path d="M56.0233 30.3379H70V43.7045H56.0233V30.3379Z" fill="#FFE562"/>
<path d="M40.1475 15.1904L54.1243 15.1904V28.5571H40.1475V15.1904Z" fill="#38869C"/>
<path d="M56.0233 15.1904L70 15.1904V28.5571H56.0233V15.1904Z" fill="#FF5450"/>
<path d="M40.1475 0.0449219L54.1243 0.0449219V13.4115L40.1475 13.4115V0.0449219Z" fill="#38869C"/>
<path d="M56.0233 0.0449219L70 0.0449219V13.4115L56.0233 13.4115V0.0449219Z" fill="#4BB462"/>
<path d="M19.2234 34.6709H30.2272L24.7261 41.0223L19.2234 47.3747L13.7207 41.0223L8.2196 34.6709H19.2234Z" fill="#38869C"/>
<path d="M19.356 56.9023H22.0075L20.6819 58.4902L19.356 60.0783L18.03 58.4902L16.7045 56.9023H19.356Z" fill="#154E60"/>
<path d="M19.356 56.9023H22.0075L20.6819 55.3145L19.356 53.7264L18.03 55.3145L16.7045 56.9023H19.356Z" fill="#154E60"/>
<path d="M9.67169 40.8282L12.0608 43.8097L7.8882 44.6968L3.71479 45.5839L5.49877 41.7149L7.28259 37.8467L9.67169 40.8282Z" fill="#154E60"/>
<path d="M28.7436 40.6737L31.2372 37.8474L32.8138 41.742L34.3904 45.6374L30.3198 44.5687L26.25 43.5L28.7436 40.6737Z" fill="#154E60"/>
<ellipse cx="28.3712" cy="52.139" rx="6.36364" ry="6.35189" fill="#FFE562"/>
<ellipse cx="10.3409" cy="52.139" rx="6.36364" ry="6.35189" fill="#FFE562"/>
<path d="M292 30.5918H277.954V44.0904H292V30.5918Z" fill="#38869C"/>
<path d="M276.046 15.2949H262V28.7936H276.046V15.2949Z" fill="#FF5450"/>
<path d="M292 0H277.954V13.4986H292V0Z" fill="#38869C"/>
<path d="M276.046 0H262V13.4986H276.046V0Z" fill="#FFE562"/>
<path d="M292 48.9775V77.1822H263.868L292 48.9775Z" fill="#FF5450"/>
<path d="M284.978 28.7928C288.696 28.7928 291.709 25.7716 291.709 22.0448C291.709 18.318 288.696 15.2969 284.978 15.2969C281.261 15.2969 278.248 18.318 278.248 22.0448C278.248 25.7716 281.261 28.7928 284.978 28.7928Z" fill="#38869C"/>
<path d="M269.024 44.2049C272.742 44.2049 275.755 41.1837 275.755 37.4569C275.755 33.7301 272.742 30.709 269.024 30.709C265.307 30.709 262.294 33.7301 262.294 37.4569C262.294 41.1837 265.307 44.2049 269.024 44.2049Z" fill="#4BB462"/>
<path d="M272.765 48.9775H263.868V57.8976H272.765V48.9775Z" fill="#38869C"/>
<path d="M277.867 575.866L277.867 551.93L253.908 551.93L253.908 575.866L277.867 575.866Z" fill="#FF5450"/>
<mask id="mask2" mask-type="alpha" maskUnits="userSpaceOnUse" x="209" y="565" width="61" height="24">
<path d="M269.357 589L269.357 565.051L209 565.051L209 589L269.357 589Z" fill="#DD4327"/>
</mask>
<g mask="url(#mask2)">
<path d="M197.515 586.699L272.602 661.716" stroke="#FF5450" stroke-miterlimit="10"/>
<path d="M197.515 581.986L272.602 656.999" stroke="#FF5450" stroke-miterlimit="10"/>
<path d="M197.515 577.273L272.602 652.286" stroke="#FF5450" stroke-miterlimit="10"/>
<path d="M197.515 572.561L272.602 647.573" stroke="#FF5450" stroke-miterlimit="10"/>
<path d="M197.515 567.848L272.602 642.86" stroke="#FF5450" stroke-miterlimit="10"/>
<path d="M197.515 563.131L272.602 638.147" stroke="#FF5450" stroke-miterlimit="10"/>
<path d="M197.515 558.418L272.602 633.434" stroke="#FF5450" stroke-miterlimit="10"/>
<path d="M197.515 553.705L272.602 628.722" stroke="#FF5450" stroke-miterlimit="10"/>
<path d="M197.515 548.992L272.602 624.009" stroke="#FF5450" stroke-miterlimit="10"/>
<path d="M197.515 544.279L272.602 619.292" stroke="#FF5450" stroke-miterlimit="10"/>
<path d="M197.515 539.566L272.602 614.579" stroke="#FF5450" stroke-miterlimit="10"/>
<path d="M197.515 534.854L272.602 609.866" stroke="#FF5450" stroke-miterlimit="10"/>
<path d="M197.515 530.141L272.602 605.153" stroke="#FF5450" stroke-miterlimit="10"/>
<path d="M197.515 525.424L272.602 600.44" stroke="#FF5450" stroke-miterlimit="10"/>
<path d="M197.515 520.711L272.602 595.727" stroke="#FF5450" stroke-miterlimit="10"/>
<path d="M197.515 515.998L272.602 591.015" stroke="#FF5450" stroke-miterlimit="10"/>
<path d="M197.515 511.285L272.602 586.302" stroke="#FF5450" stroke-miterlimit="10"/>
<path d="M197.515 506.572L272.602 581.585" stroke="#FF5450" stroke-miterlimit="10"/>
<path d="M197.515 501.859L272.602 576.872" stroke="#FF5450" stroke-miterlimit="10"/>
<path d="M197.515 497.146L272.602 572.159" stroke="#FF5450" stroke-miterlimit="10"/>
</g>
<path d="M249.953 552.131C249.953 554.507 251.881 556.434 254.259 556.434C256.638 556.434 258.566 554.507 258.566 552.131C258.566 549.755 256.638 547.829 254.259 547.829C251.881 547.829 249.953 549.755 249.953 552.131Z" stroke="#FFE562" stroke-miterlimit="10"/>
<path d="M249.953 537.719C249.953 540.095 251.881 542.022 254.259 542.022C256.638 542.022 258.566 540.095 258.566 537.719C258.566 535.343 256.638 533.417 254.259 533.417C251.881 533.417 249.953 535.343 249.953 537.719Z" fill="#FF5450"/>
<path d="M249.953 523.302C249.953 525.678 251.881 527.605 254.259 527.605C256.638 527.605 258.566 525.678 258.566 523.302C258.566 520.926 256.638 519 254.259 519C251.881 519 249.953 520.926 249.953 523.302Z" fill="#38869C"/>
<path d="M266.241 552.131C266.241 554.507 268.169 556.434 270.547 556.434C272.925 556.434 274.853 554.507 274.853 552.131C274.853 549.755 272.925 547.829 270.547 547.829C268.169 547.829 266.241 549.755 266.241 552.131Z" stroke="#FFE562" stroke-miterlimit="10"/>
<path d="M266.241 537.719C266.241 540.095 268.169 542.022 270.547 542.022C272.925 542.022 274.853 540.095 274.853 537.719C274.853 535.343 272.925 533.417 270.547 533.417C268.169 533.417 266.241 535.343 266.241 537.719Z" fill="#FF5450"/>
<path d="M266.241 523.302C266.241 525.678 268.169 527.605 270.547 527.605C272.925 527.605 274.853 525.678 274.853 523.302C274.853 520.926 272.925 519 270.547 519C268.169 519 266.241 520.926 266.241 523.302Z" fill="#38869C"/>
<path d="M282.524 552.131C282.524 554.507 284.452 556.434 286.831 556.434C289.209 556.434 291.137 554.507 291.137 552.131C291.137 549.755 289.209 547.829 286.831 547.829C284.452 547.829 282.524 549.755 282.524 552.131Z" fill="#FFE562"/>
<path d="M282.524 537.719C282.524 540.095 284.452 542.022 286.831 542.022C289.209 542.022 291.137 540.095 291.137 537.719C291.137 535.343 289.209 533.417 286.831 533.417C284.452 533.417 282.524 535.343 282.524 537.719Z" fill="#FF5450"/>
<path d="M282.524 523.302C282.524 525.678 284.452 527.605 286.831 527.605C289.209 527.605 291.137 525.678 291.137 523.302C291.137 520.926 289.209 519 286.831 519C284.452 519 282.524 520.926 282.524 523.302Z" fill="#38869C"/>
</svg>
