<svg width="247" height="200" viewBox="0 0 247 200" fill="none" xmlns="http://www.w3.org/2000/svg">
<path d="M-5.34058e-05 70.6262L70.7705 70.6262L70.7705 -0.000289917L-5.34058e-05 -0.000289917L-5.34058e-05 70.6262Z" fill="#FFE562"/>
<path d="M113.191 169.796H169.32V113.781H113.191V169.796Z" fill="#38869C"/>
<mask id="mask0" mask-type="alpha" maskUnits="userSpaceOnUse" x="0" y="-1" width="148" height="154">
<path d="M0.00012207 152.122L147.418 152.122L147.418 -0.000137329L0.00012207 -0.000137329L0.00012207 152.122Z" fill="#EF9020"/>
</mask>
<g mask="url(#mask0)">
<path d="M21.4709 -18.0647L-154.438 157.486" stroke="#FF5450" stroke-miterlimit="10"/>
<path d="M32.5223 -18.0647L-143.386 157.486" stroke="#FF5450" stroke-miterlimit="10"/>
<path d="M43.5736 -18.0647L-132.325 157.486" stroke="#FF5450" stroke-miterlimit="10"/>
<path d="M54.6249 -18.0647L-121.274 157.486" stroke="#FF5450" stroke-miterlimit="10"/>
<path d="M65.6762 -18.0647L-110.222 157.486" stroke="#FF5450" stroke-miterlimit="10"/>
<path d="M76.7275 -18.0647L-99.1709 157.486" stroke="#FF5450" stroke-miterlimit="10"/>
<path d="M87.7889 -18.0647L-88.1196 157.486" stroke="#FF5450" stroke-miterlimit="10"/>
<path d="M98.8402 -18.0647L-77.0683 157.486" stroke="#FF5450" stroke-miterlimit="10"/>
<path d="M109.891 -18.0647L-66.017 157.486" stroke="#FF5450" stroke-miterlimit="10"/>
<path d="M120.943 -18.0647L-54.9556 157.486" stroke="#FF5450" stroke-miterlimit="10"/>
<path d="M131.994 -18.0647L-43.9043 157.486" stroke="#FF5450" stroke-miterlimit="10"/>
<path d="M143.045 -18.0647L-32.853 157.486" stroke="#FF5450" stroke-miterlimit="10"/>
<path d="M154.097 -18.0647L-21.8017 157.486" stroke="#FF5450" stroke-miterlimit="10"/>
<path d="M165.148 -18.0647L-10.7504 157.486" stroke="#FF5450" stroke-miterlimit="10"/>
<path d="M176.209 -18.0647L0.300949 157.486" stroke="#FF5450" stroke-miterlimit="10"/>
<path d="M187.261 -18.0647L11.3523 157.486" stroke="#FF5450" stroke-miterlimit="10"/>
<path d="M198.312 -18.0647L22.4036 157.486" stroke="#FF5450" stroke-miterlimit="10"/>
<path d="M209.363 -18.0647L33.4649 157.486" stroke="#FF5450" stroke-miterlimit="10"/>
<path d="M220.415 -18.0647L44.5163 157.486" stroke="#FF5450" stroke-miterlimit="10"/>
<path d="M231.466 -18.0647L55.5676 157.486" stroke="#FF5450" stroke-miterlimit="10"/>
<path d="M242.517 -18.0647L66.6189 157.486" stroke="#FF5450" stroke-miterlimit="10"/>
<path d="M253.569 -18.0647L77.6702 157.486" stroke="#FF5450" stroke-miterlimit="10"/>
<path d="M264.63 -18.0647L88.7215 157.486" stroke="#FF5450" stroke-miterlimit="10"/>
<path d="M275.681 -18.0647L99.7728 157.486" stroke="#FF5450" stroke-miterlimit="10"/>
<path d="M286.733 -18.0647L110.824 157.486" stroke="#FF5450" stroke-miterlimit="10"/>
<path d="M297.784 -18.0647L121.885 157.486" stroke="#FF5450" stroke-miterlimit="10"/>
</g>
<path d="M169.32 123.849C174.892 123.849 179.409 119.341 179.409 113.781C179.409 108.22 174.892 103.713 169.32 103.713C163.748 103.713 159.231 108.22 159.231 113.781C159.231 119.341 163.748 123.849 169.32 123.849Z" stroke="#FFE562" stroke-miterlimit="10"/>
<path d="M203.116 123.849C208.687 123.849 213.204 119.341 213.204 113.781C213.204 108.22 208.687 103.713 203.116 103.713C197.544 103.713 193.027 108.22 193.027 113.781C193.027 119.341 197.544 123.849 203.116 123.849Z" fill="#FFE562"/>
<path d="M236.911 123.849C242.483 123.849 247 119.341 247 113.781C247 108.22 242.483 103.713 236.911 103.713C231.34 103.713 226.823 108.22 226.823 113.781C226.823 119.341 231.34 123.849 236.911 123.849Z" fill="#FFE562"/>
<path d="M169.32 161.929C174.892 161.929 179.409 157.422 179.409 151.861C179.409 146.301 174.892 141.793 169.32 141.793C163.748 141.793 159.231 146.301 159.231 151.861C159.231 157.422 163.748 161.929 169.32 161.929Z" stroke="#FFE562" stroke-miterlimit="10"/>
<path d="M203.116 161.929C208.687 161.929 213.204 157.422 213.204 151.861C213.204 146.301 208.687 141.793 203.116 141.793C197.544 141.793 193.027 146.301 193.027 151.861C193.027 157.422 197.544 161.929 203.116 161.929Z" fill="#FFE562"/>
<path d="M236.911 161.929C242.483 161.929 247 157.422 247 151.861C247 146.301 242.483 141.793 236.911 141.793C231.34 141.793 226.823 146.301 226.823 151.861C226.823 157.422 231.34 161.929 236.911 161.929Z" fill="#FFE562"/>
<path d="M169.32 200C174.892 200 179.409 195.492 179.409 189.932C179.409 184.371 174.892 179.864 169.32 179.864C163.748 179.864 159.231 184.371 159.231 189.932C159.231 195.492 163.748 200 169.32 200Z" fill="#FFE562"/>
<path d="M203.116 200C208.687 200 213.204 195.492 213.204 189.932C213.204 184.371 208.687 179.864 203.116 179.864C197.544 179.864 193.027 184.371 193.027 189.932C193.027 195.492 197.544 200 203.116 200Z" fill="#FFE562"/>
<path d="M236.911 200C242.483 200 247 195.492 247 189.932C247 184.371 242.483 179.864 236.911 179.864C231.34 179.864 226.823 184.371 226.823 189.932C226.823 195.492 231.34 200 236.911 200Z" fill="#FFE562"/>
</svg>
