<svg width="110" height="283" viewBox="0 0 110 283" fill="none" xmlns="http://www.w3.org/2000/svg">
<path d="M110 112.171H58.4985V161.666H110V112.171Z" fill="#38869C"/>
<path d="M51.5014 56.0802H0V105.575H51.5014V56.0802Z" fill="#FF5450"/>
<path d="M110 0H58.4985V49.495H110V0Z" fill="#38869C"/>
<path d="M51.5014 0H0V49.495H51.5014V0Z" fill="#FFE562"/>
<path d="M110 179.583V283H6.84759L110 179.583Z" fill="#FF5450"/>
<path d="M84.2543 105.575C97.8843 105.575 108.934 94.4977 108.934 80.8328C108.934 67.1679 97.8843 56.0903 84.2543 56.0903C70.6243 56.0903 59.5751 67.1679 59.5751 80.8328C59.5751 94.4977 70.6243 105.575 84.2543 105.575Z" fill="#38869C"/>
<path d="M25.7557 162.085C39.3856 162.085 50.4349 151.008 50.4349 137.343C50.4349 123.678 39.3856 112.6 25.7557 112.6C12.1257 112.6 1.07643 123.678 1.07643 137.343C1.07643 151.008 12.1257 162.085 25.7557 162.085Z" fill="#4BB462"/>
<path d="M39.4708 179.583H6.84759V212.29H39.4708V179.583Z" fill="#38869C"/>
</svg>
