<svg width="576" height="245" fill="none" xmlns="http://www.w3.org/2000/svg"><path d="M510.99 15.78v103.85H180.46V15.78H511z" fill="#4BB462"/><path d="M.36 119.63V15.78h184.36v103.85H.36z" fill="#FFE562"/><path d="M283.83 15.78v.3c0 27.47-10.9 53.8-30.28 73.23a103.31 103.31 0 01-146.23 0 103.66 103.66 0 01-30.28-73.23v-.3h206.8z" fill="#FF5450"/><mask id="a" maskUnits="userSpaceOnUse" x="320" y="16" width="89" height="104"><path transform="matrix(0 -1 -1 0 408.16 119.2)" fill="#C4C4C4" d="M0 0h102.83v88H0z"/></mask><g mask="url(#a)" stroke="#FF5450" stroke-miterlimit="10"><path d="M319.56 23.64l255.8-256.22M319.56 39.73l255.8-256.2M319.56 55.83l255.8-256.2M319.56 71.93l255.8-256.2M319.56 88.03l255.8-256.2M319.56 104.13l255.8-256.2M319.56 120.23l255.8-256.22M319.56 136.32l255.8-256.2M319.56 152.42l255.8-256.2M319.56 168.52l255.8-256.2M319.56 184.62l255.8-256.2M319.56 200.72l255.8-256.2"/></g><path d="M319.56 216.83L575.36-39.4M319.56 232.91l255.8-256.2M319.56 249.01l255.8-256.2M319.56 265.12L575.36 8.9M319.56 281.21l255.8-256.2M319.56 297.32L575.36 41.1M319.56 313.42L575.36 57.2M319.56 329.5l255.8-256.2M319.56 345.6l255.8-256.2" stroke="#FF5450" stroke-miterlimit="10"/><path d="M407.6 119.63V16.08H511v103.55H407.6z" fill="#FF5450"/><path d="M510.99 15.78v103.85a103.3 103.3 0 01-73.1-30.33 103.64 103.64 0 01-30.29-73.22v-.3H511z" fill="#38869C"/><path d="M179.95 15.78l.51.3-90.05 52.08L.37 120.23V15.78h179.58z" fill="#4BB462"/><path d="M179.95 15.78l.51.3L91 67.85a103.17 103.17 0 01-13.86-51.77v-.3h102.81z" fill="#38869C"/></svg>