<svg width="40" height="40" viewBox="0 0 40 40" fill="none" xmlns="http://www.w3.org/2000/svg">
<path d="M-1.74846e-06 0L40 -1.74846e-06L40 40L-1.74846e-06 0Z" fill="#FFE562"/>
<path d="M6.32525 27.3495C2.83191 27.3495 -4.29184e-07 30.1814 -2.76485e-07 33.6748C-1.23787e-07 37.1681 2.83191 40 6.32525 40C9.81859 40 12.6505 37.1681 12.6505 33.6748C12.6505 30.1814 9.81859 27.3495 6.32525 27.3495Z" fill="#38869C"/>
<path d="M20 13.6747C16.5066 13.6747 13.6747 16.5066 13.6747 19.9999C13.6747 23.4933 16.5066 26.3252 20 26.3252C23.4933 26.3252 26.3252 23.4933 26.3252 19.9999C26.3252 16.5066 23.4933 13.6747 20 13.6747Z" fill="#FF5450"/>
</svg>
