<svg width="264" height="108" viewBox="0 0 264 108" fill="none" xmlns="http://www.w3.org/2000/svg">
<path d="M0.0124817 108L264 108V-7.62939e-06L0.0124817 -7.62939e-06V108Z" fill="#38869C"/>
<path d="M219.998 108H175.996L197.997 72.4954L219.998 36.9909L241.999 72.4954L263.988 108H219.998Z" fill="#4BB462"/>
<path d="M131.994 108H88.0043L109.993 72.4954L131.994 36.9909L153.995 72.4954L175.996 108H131.994Z" fill="#4BB462"/>
<path d="M44.0021 108H0L22.0011 72.4954L44.0021 36.9909L66.0031 72.4954L88.0041 108H44.0021Z" fill="#4BB462"/>
<path d="M44.002 108H26.3171L35.1595 93.7334L44.002 79.4671L52.8445 93.7334L61.6746 108H44.002Z" fill="#FF5450"/>
<path d="M131.994 108H114.321L123.151 93.7334L131.994 79.4671L140.836 93.7334L149.679 108H131.994Z" fill="#FF5450"/>
<path d="M219.998 108H202.313L211.155 93.7334L219.998 79.4671L228.84 93.7334L237.67 108H219.998Z" fill="#FF5450"/>
<path d="M263.988 8.61951H0V13.2405H263.988V8.61951Z" fill="#FFE562"/>
<path d="M263.988 20.9845H0V25.6055H263.988V20.9845Z" fill="#FFE562"/>
</svg>
