<svg width="292" height="248" viewBox="0 0 292 248" fill="none" xmlns="http://www.w3.org/2000/svg">
<path d="M244.713 201.47L244.713 116.667L159.831 116.667L159.831 201.47L244.713 201.47Z" fill="#FF5450"/>
<mask id="mask0" mask-type="alpha" maskUnits="userSpaceOnUse" x="0" y="163" width="215" height="85">
<path d="M214.564 248L214.564 163.151L0.727165 163.151L0.727162 248L214.564 248Z" fill="#DD4327"/>
</mask>
<g mask="url(#mask0)">
<path d="M-39.9624 239.848L226.06 505.621" stroke="#FF5450" stroke-miterlimit="10"/>
<path d="M-39.9624 223.151L226.06 488.909" stroke="#FF5450" stroke-miterlimit="10"/>
<path d="M-39.9624 206.454L226.06 472.212" stroke="#FF5450" stroke-miterlimit="10"/>
<path d="M-39.9624 189.757L226.06 455.515" stroke="#FF5450" stroke-miterlimit="10"/>
<path d="M-39.9624 173.061L226.06 438.818" stroke="#FF5450" stroke-miterlimit="10"/>
<path d="M-39.9624 156.348L226.06 422.121" stroke="#FF5450" stroke-miterlimit="10"/>
<path d="M-39.9624 139.651L226.06 405.424" stroke="#FF5450" stroke-miterlimit="10"/>
<path d="M-39.9624 122.954L226.06 388.727" stroke="#FF5450" stroke-miterlimit="10"/>
<path d="M-39.9624 106.257L226.06 372.03" stroke="#FF5450" stroke-miterlimit="10"/>
<path d="M-39.9624 89.5603L226.06 355.318" stroke="#FF5450" stroke-miterlimit="10"/>
<path d="M-39.9624 72.8633L226.06 338.621" stroke="#FF5450" stroke-miterlimit="10"/>
<path d="M-39.9624 56.1662L226.06 321.924" stroke="#FF5450" stroke-miterlimit="10"/>
<path d="M-39.9624 39.4693L226.06 305.227" stroke="#FF5450" stroke-miterlimit="10"/>
<path d="M-39.9624 22.7574L226.06 288.53" stroke="#FF5450" stroke-miterlimit="10"/>
<path d="M-39.9624 6.06054L226.06 271.833" stroke="#FF5450" stroke-miterlimit="10"/>
<path d="M-39.9624 -10.6365L226.06 255.136" stroke="#FF5450" stroke-miterlimit="10"/>
<path d="M-39.9624 -27.3335L226.06 238.439" stroke="#FF5450" stroke-miterlimit="10"/>
<path d="M-39.9624 -44.0305L226.06 221.727" stroke="#FF5450" stroke-miterlimit="10"/>
<path d="M-39.9624 -60.7276L226.06 205.03" stroke="#FF5450" stroke-miterlimit="10"/>
<path d="M-39.9624 -77.4245L226.06 188.333" stroke="#FF5450" stroke-miterlimit="10"/>
</g>
<path d="M145.817 117.379C145.817 125.797 152.648 132.621 161.074 132.621C169.5 132.621 176.331 125.797 176.331 117.379C176.331 108.96 169.5 102.136 161.074 102.136C152.648 102.136 145.817 108.96 145.817 117.379Z" stroke="#FFE562" stroke-miterlimit="10"/>
<path d="M145.817 66.3181C145.817 74.7363 152.648 81.5606 161.074 81.5606C169.5 81.5606 176.331 74.7363 176.331 66.3181C176.331 57.8999 169.5 51.0757 161.074 51.0757C152.648 51.0757 145.817 57.8999 145.817 66.3181Z" fill="#FF5450"/>
<path d="M145.817 15.2424C145.817 23.6606 152.648 30.4849 161.074 30.4849C169.5 30.4849 176.331 23.6606 176.331 15.2424C176.331 6.82427 169.5 -2.98578e-07 161.074 -6.66893e-07C152.648 -1.03521e-06 145.817 6.82426 145.817 15.2424Z" fill="#38869C"/>
<path d="M203.523 117.379C203.523 125.797 210.354 132.621 218.78 132.621C227.206 132.621 234.037 125.797 234.037 117.379C234.037 108.96 227.206 102.136 218.78 102.136C210.354 102.136 203.523 108.96 203.523 117.379Z" stroke="#FFE562" stroke-miterlimit="10"/>
<path d="M203.523 66.3181C203.523 74.7363 210.354 81.5606 218.78 81.5606C227.206 81.5606 234.037 74.7363 234.037 66.3181C234.037 57.8999 227.206 51.0757 218.78 51.0757C210.354 51.0757 203.523 57.8999 203.523 66.3181Z" fill="#FF5450"/>
<path d="M203.523 15.2424C203.523 23.6606 210.354 30.4849 218.78 30.4849C227.206 30.4849 234.037 23.6606 234.037 15.2424C234.037 6.82427 227.206 -2.9858e-07 218.78 -6.66895e-07C210.354 -1.03521e-06 203.523 6.82426 203.523 15.2424Z" fill="#38869C"/>
<path d="M261.214 117.379C261.214 125.797 268.044 132.621 276.47 132.621C284.896 132.621 291.727 125.797 291.727 117.379C291.727 108.96 284.896 102.136 276.47 102.136C268.044 102.136 261.214 108.96 261.214 117.379Z" fill="#FFE562"/>
<path d="M261.214 66.3181C261.214 74.7363 268.044 81.5606 276.47 81.5606C284.897 81.5606 291.727 74.7363 291.727 66.3181C291.727 57.8999 284.897 51.0757 276.47 51.0757C268.044 51.0757 261.214 57.8999 261.214 66.3181Z" fill="#FF5450"/>
<path d="M261.214 15.2424C261.214 23.6606 268.044 30.4849 276.47 30.4849C284.897 30.4849 291.727 23.6606 291.727 15.2424C291.727 6.82427 284.897 -2.98578e-07 276.47 -6.66893e-07C268.044 -1.03521e-06 261.214 6.82426 261.214 15.2424Z" fill="#38869C"/>
</svg>
