<svg width="131" height="337" viewBox="0 0 131 337" fill="none" xmlns="http://www.w3.org/2000/svg">
<path d="M131 203.063L69.6664 203.063L69.6664 144.299L131 144.299L131 203.063Z" fill="#38869C"/>
<path d="M61.3335 269.659L-7.62939e-06 269.659L-1.27667e-05 210.894L61.3335 210.894L61.3335 269.659Z" fill="#FF5450"/>
<path d="M131 336.241L69.6664 336.241L69.6664 277.477L131 277.477L131 336.241Z" fill="#38869C"/>
<path d="M61.3335 336.241L7.62939e-06 336.241L2.49205e-06 277.477L61.3335 277.477L61.3335 336.241Z" fill="#FFE562"/>
<path d="M131 123.026L131 0.24133L8.15481 0.241341L131 123.026Z" fill="#FF5450"/>
<path d="M100.339 210.894C116.571 210.894 129.73 224.046 129.73 240.27C129.73 256.494 116.571 269.646 100.339 269.646C84.1072 269.646 70.9485 256.494 70.9485 240.27C70.9485 224.046 84.1072 210.894 100.339 210.894Z" fill="#38869C"/>
<path d="M30.6727 143.801C46.9047 143.801 60.0634 156.953 60.0634 173.177C60.0634 189.401 46.9047 202.553 30.6727 202.553C14.4406 202.553 1.28192 189.401 1.28192 173.177C1.28191 156.953 14.4406 143.801 30.6727 143.801Z" fill="#4BB462"/>
<path d="M47.0061 123.026L8.15482 123.026L8.15482 84.1939L47.0061 84.1939L47.0061 123.026Z" fill="#38869C"/>
</svg>
