<svg width="305" height="245" fill="none" xmlns="http://www.w3.org/2000/svg"><path d="M228.18 15.88H85.5v451.24h142.7V15.88z" fill="#4BB462"/><mask id="a" maskUnits="userSpaceOnUse" x="86" y="156" width="142" height="121"><path fill="#C4C4C4" d="M86.08 156.26h141.3V276.4H86.08z"/></mask><g mask="url(#a)" stroke="#FF5450" stroke-miterlimit="10"><path d="M217.38 277.22L569.44-72M195.28 277.22L547.32-72M173.16 277.22L525.19-72M151.03 277.22L503.08-72M128.91 277.22L480.95-72M106.79 277.22L458.82-72M84.67 277.22L436.72-72M62.56 277.22L414.6-72M40.44 277.22L392.47-72M18.32 277.22L370.35-72M-3.8 277.22L348.22-72M-25.93 277.22L326.1-72"/></g><path d="M-48.05 277.22L304-72M-70.16 277.22L281.88-72M-92.28 277.22L259.75-72M-114.4 277.22L237.63-72M-136.53 277.22L215.51-72M-158.65 277.22L193.38-72M-180.77 277.22L171.28-72M-202.88 277.22L149.16-72M-225 277.22L127.03-72" stroke="#FF5450" stroke-miterlimit="10"/><path d="M85.5 157.02h142.28V15.88H85.49v141.14z" fill="#FF5450"/><path d="M228.18 15.88H85.5c0 37.43 15 73.33 41.68 99.8a142.88 142.88 0 00100.61 41.34h.4V15.88z" fill="#38869C"/></svg>