<svg width="1334" height="2071" viewBox="0 0 1334 2071" fill="none" xmlns="http://www.w3.org/2000/svg">
<path d="M144.232 356.17H0V227.997H144.232V356.17Z" fill="#FFE562"/>
<path d="M72.32 73.0469H0.408081V1.16999H72.32V73.0469Z" fill="#FFE562"/>
<mask id="mask0" mask-type="alpha" maskUnits="userSpaceOnUse" x="0" y="73" width="144" height="52">
<path d="M0.948776 73.4548L143.773 73.4548V124.439L0.948776 124.439V73.4548Z" fill="#5081A2"/>
</mask>
<g mask="url(#mask0)">
<path d="M23.0661 134.248L-154.852 -43.5837" stroke="#FF5450" stroke-miterlimit="10"/>
<path d="M34.2471 134.248L-143.671 -43.5835" stroke="#FF5450" stroke-miterlimit="10"/>
<path d="M45.4281 134.248L-132.49 -43.5835" stroke="#FF5450" stroke-miterlimit="10"/>
<path d="M56.6094 134.248L-121.308 -43.5835" stroke="#FF5450" stroke-miterlimit="10"/>
<path d="M67.7904 134.248L-110.138 -43.5835" stroke="#FF5450" stroke-miterlimit="10"/>
<path d="M78.9614 134.248L-98.9565 -43.5835" stroke="#FF5450" stroke-miterlimit="10"/>
<path d="M90.1424 134.248L-87.7755 -43.5835" stroke="#FF5450" stroke-miterlimit="10"/>
<path d="M101.323 134.248L-76.5945 -43.5835" stroke="#FF5450" stroke-miterlimit="10"/>
<path d="M112.504 134.248L-65.4135 -43.5835" stroke="#FF5450" stroke-miterlimit="10"/>
<path d="M123.686 134.248L-54.2323 -43.5835" stroke="#FF5450" stroke-miterlimit="10"/>
<path d="M134.867 134.248L-43.0614 -43.5835" stroke="#FF5450" stroke-miterlimit="10"/>
<path d="M146.038 134.248L-31.8804 -43.5835" stroke="#FF5450" stroke-miterlimit="10"/>
<path d="M157.219 134.248L-20.6992 -43.5835" stroke="#FF5450" stroke-miterlimit="10"/>
<path d="M168.4 134.248L-9.51819 -43.5835" stroke="#FF5450" stroke-miterlimit="10"/>
<path d="M179.581 134.248L1.66284 -43.5835" stroke="#FF5450" stroke-miterlimit="10"/>
<path d="M190.762 134.248L12.8439 -43.5835" stroke="#FF5450" stroke-miterlimit="10"/>
<path d="M201.943 134.248L24.0148 -43.5835" stroke="#FF5450" stroke-miterlimit="10"/>
<path d="M213.114 134.248L35.1958 -43.5835" stroke="#FF5450" stroke-miterlimit="10"/>
<path d="M224.295 134.248L46.377 -43.5835" stroke="#FF5450" stroke-miterlimit="10"/>
<path d="M235.476 134.248L57.5581 -43.5835" stroke="#FF5450" stroke-miterlimit="10"/>
<path d="M246.657 134.248L68.7391 -43.5835" stroke="#FF5450" stroke-miterlimit="10"/>
<path d="M257.838 134.248L79.9202 -43.5835" stroke="#FF5450" stroke-miterlimit="10"/>
<path d="M269.019 134.248L91.0911 -43.5835" stroke="#FF5450" stroke-miterlimit="10"/>
<path d="M280.19 134.248L102.272 -43.5835" stroke="#FF5450" stroke-miterlimit="10"/>
<path d="M291.371 134.248L113.453 -43.5835" stroke="#FF5450" stroke-miterlimit="10"/>
<path d="M302.552 134.248L124.634 -43.5835" stroke="#FF5450" stroke-miterlimit="10"/>
</g>
<path d="M145 231H0V1.99976H145V231Z" fill="#4BB462"/>
<mask id="mask1" mask-type="alpha" maskUnits="userSpaceOnUse" x="0" y="72" width="144" height="52">
<path d="M-3.05176e-05 72.9998L143.824 72.9998V123.984L-3.05176e-05 123.984V72.9998Z" fill="#5081A2"/>
</mask>
<g mask="url(#mask1)">
<path d="M22.2721 133.792L-156.891 -44.0388" stroke="#FF5450" stroke-miterlimit="10"/>
<path d="M33.5314 133.793L-145.632 -44.0386" stroke="#FF5450" stroke-miterlimit="10"/>
<path d="M44.7907 133.793L-134.373 -44.0386" stroke="#FF5450" stroke-miterlimit="10"/>
<path d="M56.0503 133.793L-123.113 -44.0386" stroke="#FF5450" stroke-miterlimit="10"/>
<path d="M67.3095 133.793L-111.864 -44.0386" stroke="#FF5450" stroke-miterlimit="10"/>
<path d="M78.5588 133.793L-100.605 -44.0386" stroke="#FF5450" stroke-miterlimit="10"/>
<path d="M89.818 133.793L-89.3456 -44.0386" stroke="#FF5450" stroke-miterlimit="10"/>
<path d="M101.077 133.793L-78.0863 -44.0386" stroke="#FF5450" stroke-miterlimit="10"/>
<path d="M112.337 133.793L-66.8269 -44.0386" stroke="#FF5450" stroke-miterlimit="10"/>
<path d="M123.596 133.793L-55.5675 -44.0386" stroke="#FF5450" stroke-miterlimit="10"/>
<path d="M134.856 133.793L-44.3184 -44.0386" stroke="#FF5450" stroke-miterlimit="10"/>
<path d="M146.105 133.793L-33.0591 -44.0386" stroke="#FF5450" stroke-miterlimit="10"/>
<path d="M157.364 133.793L-21.7997 -44.0386" stroke="#FF5450" stroke-miterlimit="10"/>
<path d="M168.623 133.793L-10.5403 -44.0386" stroke="#FF5450" stroke-miterlimit="10"/>
<path d="M179.883 133.793L0.718994 -44.0386" stroke="#FF5450" stroke-miterlimit="10"/>
<path d="M191.142 133.793L11.9783 -44.0386" stroke="#FF5450" stroke-miterlimit="10"/>
<path d="M202.401 133.793L23.2274 -44.0386" stroke="#FF5450" stroke-miterlimit="10"/>
<path d="M213.65 133.793L34.4867 -44.0386" stroke="#FF5450" stroke-miterlimit="10"/>
<path d="M224.91 133.793L45.7462 -44.0386" stroke="#FF5450" stroke-miterlimit="10"/>
<path d="M236.169 133.793L57.0056 -44.0386" stroke="#FF5450" stroke-miterlimit="10"/>
<path d="M247.429 133.793L68.2649 -44.0386" stroke="#FF5450" stroke-miterlimit="10"/>
<path d="M258.688 133.793L79.5243 -44.0386" stroke="#FF5450" stroke-miterlimit="10"/>
<path d="M269.947 133.793L90.7733 -44.0386" stroke="#FF5450" stroke-miterlimit="10"/>
<path d="M281.196 133.793L102.033 -44.0386" stroke="#FF5450" stroke-miterlimit="10"/>
<path d="M292.456 133.793L113.292 -44.0386" stroke="#FF5450" stroke-miterlimit="10"/>
<path d="M303.715 133.793L124.551 -44.0386" stroke="#FF5450" stroke-miterlimit="10"/>
</g>
<path d="M145 72.9998H0V0.999756H145V72.9998Z" fill="#FF5450"/>
<path d="M72.32 159.087C112.036 159.087 144.232 191.267 144.232 230.963C144.232 270.66 112.036 302.84 72.32 302.84C32.6041 302.84 0.408081 270.66 0.408081 230.963C0.408081 191.267 32.6041 159.087 72.32 159.087Z" fill="#FF5450"/>
<path d="M72.32 73.0469C53.2477 73.0469 34.9567 65.4742 21.4706 51.9946C7.98449 38.5151 0.408081 20.2329 0.408081 1.16999H144.252C144.252 10.6107 142.392 19.959 138.776 28.6808C135.161 37.4026 129.862 45.3272 123.183 52.0019C116.503 58.6765 108.573 63.9705 99.8457 67.5814C91.1186 71.1924 81.7653 73.0496 72.32 73.0469Z" fill="#38869C"/>
<path d="M72.32 356.17H144.64L108.485 293.572L72.32 230.964L36.1549 293.572L0 356.17H72.32Z" fill="#4BB462"/>
<path d="M108.271 293.204C97.3419 299.517 84.9423 302.841 72.3199 302.841C59.6974 302.841 47.2978 299.517 36.369 293.204L72.3199 231.004L108.271 293.204Z" fill="#FFE562"/>
<path d="M151.414 115.628H204.126V166.133H151.414V115.628Z" fill="#38869C"/>
<path d="M211.288 115.628H264V166.133H211.288V115.628Z" fill="#FFE562"/>
<path d="M151.414 58.394L204.126 58.394V108.899H151.414V58.394Z" fill="#38869C"/>
<path d="M211.288 58.394L264 58.394V108.899H211.288V58.394Z" fill="#FF5450"/>
<path d="M151.414 1.16968L204.126 1.16968V51.6742L151.414 51.6742V1.16968Z" fill="#38869C"/>
<path d="M211.288 1.16968L264 1.16968V51.6742L211.288 51.6742V1.16968Z" fill="#4BB462"/>
<path d="M72.5 132H114L93.2529 155.998L72.5 180L51.7471 155.998L31 132H72.5Z" fill="#38869C"/>
<path d="M73 216H83L78.0007 221.999L73 228L67.9993 221.999L63 216H73Z" fill="#154E60"/>
<path d="M73 216H83L78.0007 210L73 204L67.9993 210L63 216H73Z" fill="#154E60"/>
<path d="M36.4764 155.265L45.4867 166.53L29.7501 169.882L14.0104 173.234L20.7385 158.615L27.4661 144L36.4764 155.265Z" fill="#154E60"/>
<path d="M108.404 154.679L117.809 144L123.755 158.715L129.701 173.434L114.349 169.396L99 165.358L108.404 154.679Z" fill="#154E60"/>
<circle cx="107" cy="198" r="24" fill="#FFE562"/>
<circle cx="39" cy="198" r="24" fill="#FFE562"/>
<path d="M1256 203.063L1194.67 203.063L1194.67 144.299L1256 144.299L1256 203.063Z" fill="#38869C"/>
<path d="M1186.33 269.659L1125 269.659L1125 210.894L1186.33 210.894L1186.33 269.659Z" fill="#FF5450"/>
<path d="M1256 336.241L1194.67 336.241L1194.67 277.477L1256 277.477L1256 336.241Z" fill="#38869C"/>
<path d="M1186.33 336.241L1125 336.241L1125 277.477L1186.33 277.477L1186.33 336.241Z" fill="#FFE562"/>
<path d="M1256 123.026L1256 0.24133L1133.15 0.241341L1256 123.026Z" fill="#FF5450"/>
<path d="M1225.34 210.894C1241.57 210.894 1254.73 224.046 1254.73 240.27C1254.73 256.494 1241.57 269.646 1225.34 269.646C1209.11 269.646 1195.95 256.494 1195.95 240.27C1195.95 224.046 1209.11 210.894 1225.34 210.894Z" fill="#38869C"/>
<path d="M1155.67 143.801C1171.9 143.801 1185.06 156.953 1185.06 173.177C1185.06 189.401 1171.9 202.553 1155.67 202.553C1139.44 202.553 1126.28 189.401 1126.28 173.177C1126.28 156.953 1139.44 143.801 1155.67 143.801Z" fill="#4BB462"/>
<path d="M1172.01 123.026L1133.15 123.026L1133.15 84.1939L1172.01 84.1939L1172.01 123.026Z" fill="#38869C"/>
<path d="M1255.63 2041.82L1255.63 1937.97L925.105 1937.97L925.105 2041.82L1255.63 2041.82Z" fill="#4BB462"/>
<path d="M745 1937.97L745 2041.82L929.358 2041.82L929.358 1937.97L745 1937.97Z" fill="#FFE562"/>
<path d="M1028.47 2041.82L1028.47 2041.53C1028.47 2014.06 1017.58 1987.72 998.189 1968.29C978.798 1948.87 952.498 1937.96 925.075 1937.96C897.652 1937.96 871.352 1948.87 851.961 1968.29C832.57 1987.72 821.677 2014.06 821.677 2041.53L821.677 2041.82L1028.47 2041.82Z" fill="#FF5450"/>
<mask id="mask2" mask-type="alpha" maskUnits="userSpaceOnUse" x="1064" y="1938" width="89" height="104">
<rect x="1152.8" y="1938.4" width="102.835" height="87.999" transform="rotate(90 1152.8 1938.4)" fill="#C4C4C4"/>
</mask>
<g mask="url(#mask2)">
<path d="M1064.2 2033.96L1320 2290.18" stroke="#FF5450" stroke-miterlimit="10"/>
<path d="M1064.2 2017.88L1320 2274.08" stroke="#FF5450" stroke-miterlimit="10"/>
<path d="M1064.2 2001.77L1320 2257.98" stroke="#FF5450" stroke-miterlimit="10"/>
<path d="M1064.2 1985.67L1320 2241.88" stroke="#FF5450" stroke-miterlimit="10"/>
<path d="M1064.2 1969.57L1320 2225.78" stroke="#FF5450" stroke-miterlimit="10"/>
<path d="M1064.2 1953.47L1320 2209.68" stroke="#FF5450" stroke-miterlimit="10"/>
<path d="M1064.2 1937.37L1320 2193.59" stroke="#FF5450" stroke-miterlimit="10"/>
<path d="M1064.2 1921.28L1320 2177.49" stroke="#FF5450" stroke-miterlimit="10"/>
<path d="M1064.2 1905.18L1320 2161.39" stroke="#FF5450" stroke-miterlimit="10"/>
<path d="M1064.2 1889.08L1320 2145.29" stroke="#FF5450" stroke-miterlimit="10"/>
<path d="M1064.2 1872.98L1320 2129.19" stroke="#FF5450" stroke-miterlimit="10"/>
<path d="M1064.2 1856.88L1320 2113.09" stroke="#FF5450" stroke-miterlimit="10"/>
</g>
<path d="M1064.2 1840.78L1320 2097" stroke="#FF5450" stroke-miterlimit="10"/>
<path d="M1064.2 1824.69L1320 2080.9" stroke="#FF5450" stroke-miterlimit="10"/>
<path d="M1064.2 1808.59L1320 2064.8" stroke="#FF5450" stroke-miterlimit="10"/>
<path d="M1064.2 1792.49L1320 2048.7" stroke="#FF5450" stroke-miterlimit="10"/>
<path d="M1064.2 1776.39L1320 2032.6" stroke="#FF5450" stroke-miterlimit="10"/>
<path d="M1064.2 1760.29L1320 2016.49" stroke="#FF5450" stroke-miterlimit="10"/>
<path d="M1064.2 1744.19L1320 2000.41" stroke="#FF5450" stroke-miterlimit="10"/>
<path d="M1064.2 1728.1L1320 1984.31" stroke="#FF5450" stroke-miterlimit="10"/>
<path d="M1064.2 1712L1320 1968.21" stroke="#FF5450" stroke-miterlimit="10"/>
<path d="M1152.24 1937.97L1152.24 2041.53L1255.63 2041.53L1255.63 1937.97L1152.24 1937.97Z" fill="#FF5450"/>
<path d="M1255.63 2041.82L1255.63 1937.97C1228.21 1937.97 1201.91 1948.88 1182.53 1968.3C1163.14 1987.72 1152.24 2014.06 1152.24 2041.53L1152.24 2041.82L1255.63 2041.82Z" fill="#38869C"/>
<path d="M924.591 2041.82L925.105 2041.53L835.052 1989.45L745.015 1937.37L745.015 2041.53L745.015 2041.82L924.591 2041.82Z" fill="#4BB462"/>
<path d="M924.591 2041.82L925.105 2041.53L835.639 1989.76C826.541 2005.49 821.759 2023.35 821.779 2041.53L821.779 2041.82L924.591 2041.82Z" fill="#38869C"/>
<mask id="mask3" mask-type="alpha" maskUnits="userSpaceOnUse" x="125" y="972" width="180" height="179">
<path d="M215.187 1150.66C264.458 1150.66 304.4 1110.72 304.4 1061.44C304.4 1012.17 264.458 972.232 215.187 972.232C165.917 972.232 125.975 1012.17 125.975 1061.44C125.975 1110.72 165.917 1150.66 215.187 1150.66Z" fill="#FFE562"/>
</mask>
<g mask="url(#mask3)">
<path d="M160.538 960.698L-38.011 1159.25" stroke="#FF5450" stroke-miterlimit="10"/>
<path d="M173.027 960.698L-25.5211 1159.25" stroke="#FF5450" stroke-miterlimit="10"/>
<path d="M185.499 960.698L-13.0499 1159.25" stroke="#FF5450" stroke-miterlimit="10"/>
<path d="M197.97 960.698L-0.578491 1159.25" stroke="#FF5450" stroke-miterlimit="10"/>
<path d="M210.442 960.698L11.8929 1159.25" stroke="#FF5450" stroke-miterlimit="10"/>
<path d="M222.931 960.698L24.3644 1159.25" stroke="#FF5450" stroke-miterlimit="10"/>
<path d="M235.403 960.698L36.854 1159.25" stroke="#FF5450" stroke-miterlimit="10"/>
<path d="M247.874 960.698L49.3254 1159.25" stroke="#FF5450" stroke-miterlimit="10"/>
<path d="M260.345 960.698L61.7969 1159.25" stroke="#FF5450" stroke-miterlimit="10"/>
<path d="M272.835 960.698L74.2683 1159.25" stroke="#FF5450" stroke-miterlimit="10"/>
<path d="M285.306 960.698L86.7578 1159.25" stroke="#FF5450" stroke-miterlimit="10"/>
<path d="M297.778 960.698L99.2292 1159.25" stroke="#FF5450" stroke-miterlimit="10"/>
<path d="M310.249 960.698L111.701 1159.25" stroke="#FF5450" stroke-miterlimit="10"/>
<path d="M322.739 960.698L124.172 1159.25" stroke="#FF5450" stroke-miterlimit="10"/>
<path d="M335.21 960.698L136.662 1159.25" stroke="#FF5450" stroke-miterlimit="10"/>
<path d="M347.682 960.698L149.133 1159.25" stroke="#FF5450" stroke-miterlimit="10"/>
<path d="M360.153 960.698L161.605 1159.25" stroke="#FF5450" stroke-miterlimit="10"/>
<path d="M372.643 960.698L174.076 1159.25" stroke="#FF5450" stroke-miterlimit="10"/>
<path d="M385.114 960.698L186.566 1159.25" stroke="#FF5450" stroke-miterlimit="10"/>
<path d="M397.586 960.698L199.037 1159.25" stroke="#FF5450" stroke-miterlimit="10"/>
<path d="M410.057 960.698L211.508 1159.25" stroke="#FF5450" stroke-miterlimit="10"/>
<path d="M422.547 960.698L223.98 1159.25" stroke="#FF5450" stroke-miterlimit="10"/>
<path d="M435.018 960.698L236.47 1159.25" stroke="#FF5450" stroke-miterlimit="10"/>
<path d="M447.49 960.698L248.941 1159.25" stroke="#FF5450" stroke-miterlimit="10"/>
<path d="M459.961 960.698L261.412 1159.25" stroke="#FF5450" stroke-miterlimit="10"/>
<path d="M472.432 960.698L273.884 1159.25" stroke="#FF5450" stroke-miterlimit="10"/>
</g>
<path d="M317 960H114V1163H317V960Z" stroke="#FF5450" stroke-miterlimit="10"/>
<path d="M1087 718.626H1157.77V648H1087V718.626Z" fill="#FFE562"/>
<path d="M1200.19 817.796H1256.32V761.781H1200.19V817.796Z" fill="#38869C"/>
<mask id="mask4" mask-type="alpha" maskUnits="userSpaceOnUse" x="1087" y="647" width="148" height="154">
<path d="M1087 800.122H1234.42V648H1087V800.122Z" fill="#EF9020"/>
</mask>
<g mask="url(#mask4)">
<path d="M1108.47 629.935L932.562 805.486" stroke="#FF5450" stroke-miterlimit="10"/>
<path d="M1119.52 629.935L943.614 805.486" stroke="#FF5450" stroke-miterlimit="10"/>
<path d="M1130.57 629.935L954.675 805.486" stroke="#FF5450" stroke-miterlimit="10"/>
<path d="M1141.62 629.935L965.726 805.486" stroke="#FF5450" stroke-miterlimit="10"/>
<path d="M1152.68 629.935L976.778 805.486" stroke="#FF5450" stroke-miterlimit="10"/>
<path d="M1163.73 629.935L987.829 805.486" stroke="#FF5450" stroke-miterlimit="10"/>
<path d="M1174.79 629.935L998.88 805.486" stroke="#FF5450" stroke-miterlimit="10"/>
<path d="M1185.84 629.935L1009.93 805.486" stroke="#FF5450" stroke-miterlimit="10"/>
<path d="M1196.89 629.935L1020.98 805.486" stroke="#FF5450" stroke-miterlimit="10"/>
<path d="M1207.94 629.935L1032.04 805.486" stroke="#FF5450" stroke-miterlimit="10"/>
<path d="M1218.99 629.935L1043.1 805.486" stroke="#FF5450" stroke-miterlimit="10"/>
<path d="M1230.05 629.935L1054.15 805.486" stroke="#FF5450" stroke-miterlimit="10"/>
<path d="M1241.1 629.935L1065.2 805.486" stroke="#FF5450" stroke-miterlimit="10"/>
<path d="M1252.15 629.935L1076.25 805.486" stroke="#FF5450" stroke-miterlimit="10"/>
<path d="M1263.21 629.935L1087.3 805.486" stroke="#FF5450" stroke-miterlimit="10"/>
<path d="M1274.26 629.935L1098.35 805.486" stroke="#FF5450" stroke-miterlimit="10"/>
<path d="M1285.31 629.935L1109.4 805.486" stroke="#FF5450" stroke-miterlimit="10"/>
<path d="M1296.36 629.935L1120.46 805.486" stroke="#FF5450" stroke-miterlimit="10"/>
<path d="M1307.41 629.935L1131.52 805.486" stroke="#FF5450" stroke-miterlimit="10"/>
<path d="M1318.47 629.935L1142.57 805.486" stroke="#FF5450" stroke-miterlimit="10"/>
<path d="M1329.52 629.935L1153.62 805.486" stroke="#FF5450" stroke-miterlimit="10"/>
<path d="M1340.57 629.935L1164.67 805.486" stroke="#FF5450" stroke-miterlimit="10"/>
<path d="M1351.63 629.935L1175.72 805.486" stroke="#FF5450" stroke-miterlimit="10"/>
<path d="M1362.68 629.935L1186.77 805.486" stroke="#FF5450" stroke-miterlimit="10"/>
<path d="M1373.73 629.935L1197.82 805.486" stroke="#FF5450" stroke-miterlimit="10"/>
<path d="M1384.78 629.935L1208.89 805.486" stroke="#FF5450" stroke-miterlimit="10"/>
</g>
<path d="M1256.32 771.849C1261.89 771.849 1266.41 767.341 1266.41 761.781C1266.41 756.22 1261.89 751.713 1256.32 751.713C1250.75 751.713 1246.23 756.22 1246.23 761.781C1246.23 767.341 1250.75 771.849 1256.32 771.849Z" stroke="#FFE562" stroke-miterlimit="10"/>
<path d="M1290.12 771.849C1295.69 771.849 1300.2 767.341 1300.2 761.781C1300.2 756.22 1295.69 751.713 1290.12 751.713C1284.54 751.713 1280.03 756.22 1280.03 761.781C1280.03 767.341 1284.54 771.849 1290.12 771.849Z" fill="#FFE562"/>
<path d="M1323.91 771.849C1329.48 771.849 1334 767.341 1334 761.781C1334 756.22 1329.48 751.713 1323.91 751.713C1318.34 751.713 1313.82 756.22 1313.82 761.781C1313.82 767.341 1318.34 771.849 1323.91 771.849Z" fill="#FFE562"/>
<path d="M1256.32 809.929C1261.89 809.929 1266.41 805.422 1266.41 799.861C1266.41 794.301 1261.89 789.793 1256.32 789.793C1250.75 789.793 1246.23 794.301 1246.23 799.861C1246.23 805.422 1250.75 809.929 1256.32 809.929Z" stroke="#FFE562" stroke-miterlimit="10"/>
<path d="M1290.12 809.929C1295.69 809.929 1300.2 805.422 1300.2 799.861C1300.2 794.301 1295.69 789.793 1290.12 789.793C1284.54 789.793 1280.03 794.301 1280.03 799.861C1280.03 805.422 1284.54 809.929 1290.12 809.929Z" fill="#FFE562"/>
<path d="M1323.91 809.929C1329.48 809.929 1334 805.422 1334 799.861C1334 794.301 1329.48 789.793 1323.91 789.793C1318.34 789.793 1313.82 794.301 1313.82 799.861C1313.82 805.422 1318.34 809.929 1323.91 809.929Z" fill="#FFE562"/>
<path d="M1256.32 848C1261.89 848 1266.41 843.492 1266.41 837.932C1266.41 832.371 1261.89 827.864 1256.32 827.864C1250.75 827.864 1246.23 832.371 1246.23 837.932C1246.23 843.492 1250.75 848 1256.32 848Z" fill="#FFE562"/>
<path d="M1290.12 848C1295.69 848 1300.2 843.492 1300.2 837.932C1300.2 832.371 1295.69 827.864 1290.12 827.864C1284.54 827.864 1280.03 832.371 1280.03 837.932C1280.03 843.492 1284.54 848 1290.12 848Z" fill="#FFE562"/>
<path d="M1323.91 848C1329.48 848 1334 843.492 1334 837.932C1334 832.371 1329.48 827.864 1323.91 827.864C1318.34 827.864 1313.82 832.371 1313.82 837.932C1313.82 843.492 1318.34 848 1323.91 848Z" fill="#FFE562"/>
</svg>
