<svg width="1260" height="536" viewBox="0 0 1276 536" fill="none" xmlns="http://www.w3.org/2000/svg">
<path d="M144.232 355.17H0V226.997H144.232V355.17Z" fill="#FFE562"/>
<path d="M144.232 229.964H0.408081V0.170044H144.232V229.964Z" fill="#4BB462"/>
<path d="M72.32 72.0469H0.408081V0.170052H72.32V72.0469Z" fill="#FFE562"/>
<mask id="mask0" mask-type="alpha" maskUnits="userSpaceOnUse" x="0" y="72" width="144" height="52">
<path d="M0.948776 72.4551L143.773 72.4551V123.439L0.948776 123.439V72.4551Z" fill="#5081A2"/>
</mask>
<g mask="url(#mask0)">
<path d="M23.0661 133.248L-154.852 -44.5837" stroke="#FF5450" stroke-miterlimit="10"/>
<path d="M34.2471 133.248L-143.671 -44.5832" stroke="#FF5450" stroke-miterlimit="10"/>
<path d="M45.4281 133.248L-132.49 -44.5832" stroke="#FF5450" stroke-miterlimit="10"/>
<path d="M56.6094 133.248L-121.308 -44.5832" stroke="#FF5450" stroke-miterlimit="10"/>
<path d="M67.7904 133.248L-110.138 -44.5832" stroke="#FF5450" stroke-miterlimit="10"/>
<path d="M78.9614 133.248L-98.9565 -44.5832" stroke="#FF5450" stroke-miterlimit="10"/>
<path d="M90.1424 133.248L-87.7755 -44.5832" stroke="#FF5450" stroke-miterlimit="10"/>
<path d="M101.323 133.248L-76.5945 -44.5832" stroke="#FF5450" stroke-miterlimit="10"/>
<path d="M112.504 133.248L-65.4135 -44.5832" stroke="#FF5450" stroke-miterlimit="10"/>
<path d="M123.686 133.248L-54.2323 -44.5832" stroke="#FF5450" stroke-miterlimit="10"/>
<path d="M134.867 133.248L-43.0614 -44.5832" stroke="#FF5450" stroke-miterlimit="10"/>
<path d="M146.038 133.248L-31.8804 -44.5832" stroke="#FF5450" stroke-miterlimit="10"/>
<path d="M157.219 133.248L-20.6992 -44.5832" stroke="#FF5450" stroke-miterlimit="10"/>
<path d="M168.4 133.248L-9.51819 -44.5832" stroke="#FF5450" stroke-miterlimit="10"/>
<path d="M179.581 133.248L1.66284 -44.5832" stroke="#FF5450" stroke-miterlimit="10"/>
<path d="M190.762 133.248L12.8439 -44.5832" stroke="#FF5450" stroke-miterlimit="10"/>
<path d="M201.943 133.248L24.0148 -44.5832" stroke="#FF5450" stroke-miterlimit="10"/>
<path d="M213.114 133.248L35.1958 -44.5832" stroke="#FF5450" stroke-miterlimit="10"/>
<path d="M224.295 133.248L46.377 -44.5832" stroke="#FF5450" stroke-miterlimit="10"/>
<path d="M235.476 133.248L57.5581 -44.5832" stroke="#FF5450" stroke-miterlimit="10"/>
<path d="M246.657 133.248L68.7391 -44.5832" stroke="#FF5450" stroke-miterlimit="10"/>
<path d="M257.838 133.248L79.9202 -44.5832" stroke="#FF5450" stroke-miterlimit="10"/>
<path d="M269.019 133.248L91.0911 -44.5832" stroke="#FF5450" stroke-miterlimit="10"/>
<path d="M280.19 133.248L102.272 -44.5832" stroke="#FF5450" stroke-miterlimit="10"/>
<path d="M291.371 133.248L113.453 -44.5832" stroke="#FF5450" stroke-miterlimit="10"/>
<path d="M302.552 133.248L124.634 -44.5832" stroke="#FF5450" stroke-miterlimit="10"/>
</g>
<path d="M144.232 72.0469H72.3199V0.170052H144.232V72.0469Z" fill="#FF5450"/>
<path d="M72.32 158.087C112.036 158.087 144.232 190.267 144.232 229.964C144.232 269.66 112.036 301.841 72.32 301.841C32.6041 301.841 0.408081 269.66 0.408081 229.964C0.408081 190.267 32.6041 158.087 72.32 158.087Z" fill="#FF5450"/>
<path d="M72.5 131H114L93.2529 154.998L72.5 179L51.7471 154.998L31 131H72.5Z" fill="#38869C"/>
<path d="M73 215H83L78.0007 221L73 227L67.9993 221L63 215H73Z" fill="#154E60"/>
<path d="M73 215H83L78.0007 209L73 203L67.9993 209L63 215H73Z" fill="#154E60"/>
<path d="M36.4764 154.265L45.4867 165.531L29.7501 168.883L14.0104 172.234L20.7385 157.616L27.4661 143L36.4764 154.265Z" fill="#154E60"/>
<path d="M108.404 153.679L117.809 143L123.755 157.716L129.701 172.434L114.349 168.396L99 164.358L108.404 153.679Z" fill="#154E60"/>
<circle cx="107" cy="197" r="24" fill="#FFE562"/>
<circle cx="39" cy="197" r="24" fill="#FFE562"/>
<path d="M72.32 72.0469C53.2477 72.0469 34.9567 64.4742 21.4706 50.9947C7.98449 37.5152 0.408081 19.233 0.408081 0.170052H144.252C144.252 9.61077 142.392 18.959 138.776 27.6809C135.161 36.4027 129.862 44.3273 123.183 51.0019C116.503 57.6766 108.573 62.9705 99.8457 66.5815C91.1186 70.1924 81.7653 72.0496 72.32 72.0469Z" fill="#38869C"/>
<path d="M72.32 355.17H144.64L108.485 292.572L72.32 229.964L36.1549 292.572L0 355.17H72.32Z" fill="#4BB462"/>
<path d="M108.271 292.205C97.3419 298.517 84.9423 301.841 72.3199 301.841C59.6974 301.841 47.2978 298.517 36.369 292.205L72.3199 230.005L108.271 292.205Z" fill="#FFE562"/>
<path d="M151.414 114.629H204.126V165.133H151.414V114.629Z" fill="#38869C"/>
<path d="M211.288 114.629H264V165.133H211.288V114.629Z" fill="#FFE562"/>
<path d="M151.414 57.3943L204.126 57.3943V107.899H151.414V57.3943Z" fill="#38869C"/>
<path d="M211.288 57.3943L264 57.3943V107.899H211.288V57.3943Z" fill="#FF5450"/>
<path d="M151.414 0.169922L204.126 0.169922V50.6744L151.414 50.6744V0.169922Z" fill="#38869C"/>
<path d="M211.288 0.169922L264 0.169922V50.6744L211.288 50.6744V0.169922Z" fill="#4BB462"/>
<path d="M1275.8 535H1137.8" stroke="#38869C" stroke-miterlimit="10"/>
<path d="M1275.8 525.792H1137.8" stroke="#38869C" stroke-miterlimit="10"/>
<path d="M1275.8 516.597H1137.8" stroke="#38869C" stroke-miterlimit="10"/>
<path d="M1275.8 507.403H1137.8" stroke="#38869C" stroke-miterlimit="10"/>
<path d="M1275.8 498.194H1137.8" stroke="#38869C" stroke-miterlimit="10"/>
<path d="M1275.8 489H1137.8" stroke="#38869C" stroke-miterlimit="10"/>
<path d="M1275.8 479.792H1137.8" stroke="#38869C" stroke-miterlimit="10"/>
<path d="M1275.8 470.597H1137.8" stroke="#38869C" stroke-miterlimit="10"/>
<path d="M1275.8 461.403H1137.8" stroke="#38869C" stroke-miterlimit="10"/>
<path d="M1275.8 452.194H1137.8" stroke="#38869C" stroke-miterlimit="10"/>
<path d="M1275.8 443H1137.8" stroke="#38869C" stroke-miterlimit="10"/>
<path d="M1275.8 433.806H1137.8" stroke="#38869C" stroke-miterlimit="10"/>
<path d="M1275.8 424.597H1137.8" stroke="#38869C" stroke-miterlimit="10"/>
<path d="M1275.8 415.403H1137.8" stroke="#38869C" stroke-miterlimit="10"/>
<path d="M1275.8 406.208H1137.8" stroke="#38869C" stroke-miterlimit="10"/>
<path d="M1275.8 397H1137.8" stroke="#38869C" stroke-miterlimit="10"/>
<path d="M1151 0.48999L1254 0.489991L1254 103.49L1151 0.48999Z" fill="#FFE562"/>
<path d="M1167.29 70.915C1158.29 70.915 1151 78.2071 1151 87.2025C1151 96.1978 1158.29 103.49 1167.29 103.49C1176.28 103.49 1183.58 96.1978 1183.58 87.2025C1183.58 78.2071 1176.28 70.915 1167.29 70.915Z" fill="#38869C"/>
<path d="M1202.5 35.7025C1193.5 35.7025 1186.21 42.9947 1186.21 51.99C1186.21 60.9854 1193.5 68.2775 1202.5 68.2775C1211.5 68.2775 1218.79 60.9854 1218.79 51.99C1218.79 42.9947 1211.5 35.7025 1202.5 35.7025Z" fill="#FF5450"/>
</svg>
