<svg width="291" height="1334" viewBox="0 0 291 1334" fill="none" xmlns="http://www.w3.org/2000/svg">
<path d="M38.2433 94H0V60.0774H38.2433V94Z" fill="#FFE562"/>
<path d="M19.1757 19.0684H0.108154V0.0452728H19.1757V19.0684Z" fill="#FFE562"/>
<mask id="mask0" mask-type="alpha" maskUnits="userSpaceOnUse" x="0" y="19" width="39" height="14">
<path d="M0.251461 19.1758L38.1215 19.1758V32.6692L0.251461 32.6692V19.1758Z" fill="#5081A2"/>
</mask>
<g mask="url(#mask0)">
<path d="M6.11587 35.2651L-41.0593 -11.8001" stroke="#FF5450" stroke-miterlimit="10"/>
<path d="M9.0806 35.2656L-38.0946 -11.7996" stroke="#FF5450" stroke-miterlimit="10"/>
<path d="M12.0452 35.2656L-35.13 -11.7996" stroke="#FF5450" stroke-miterlimit="10"/>
<path d="M15.0099 35.2656L-32.1653 -11.7996" stroke="#FF5450" stroke-miterlimit="10"/>
<path d="M17.9747 35.2656L-29.2032 -11.7996" stroke="#FF5450" stroke-miterlimit="10"/>
<path d="M20.9366 35.2656L-26.2386 -11.7996" stroke="#FF5450" stroke-miterlimit="10"/>
<path d="M23.9013 35.2656L-23.2739 -11.7996" stroke="#FF5450" stroke-miterlimit="10"/>
<path d="M26.8659 35.2656L-20.3093 -11.7996" stroke="#FF5450" stroke-miterlimit="10"/>
<path d="M29.8306 35.2656L-17.3446 -11.7996" stroke="#FF5450" stroke-miterlimit="10"/>
<path d="M32.7953 35.2656L-14.3799 -11.7996" stroke="#FF5450" stroke-miterlimit="10"/>
<path d="M35.7599 35.2656L-11.418 -11.7996" stroke="#FF5450" stroke-miterlimit="10"/>
<path d="M38.722 35.2656L-8.45325 -11.7996" stroke="#FF5450" stroke-miterlimit="10"/>
<path d="M41.6867 35.2656L-5.48853 -11.7996" stroke="#FF5450" stroke-miterlimit="10"/>
<path d="M44.6513 35.2656L-2.52393 -11.7996" stroke="#FF5450" stroke-miterlimit="10"/>
<path d="M47.616 35.2656L0.440796 -11.7996" stroke="#FF5450" stroke-miterlimit="10"/>
<path d="M50.5806 35.2656L3.4054 -11.7996" stroke="#FF5450" stroke-miterlimit="10"/>
<path d="M53.5453 35.2656L6.36743 -11.7996" stroke="#FF5450" stroke-miterlimit="10"/>
<path d="M56.5074 35.2656L9.33215 -11.7996" stroke="#FF5450" stroke-miterlimit="10"/>
<path d="M59.4719 35.2656L12.2968 -11.7996" stroke="#FF5450" stroke-miterlimit="10"/>
<path d="M62.4367 35.2656L15.2615 -11.7996" stroke="#FF5450" stroke-miterlimit="10"/>
<path d="M65.4014 35.2656L18.2262 -11.7996" stroke="#FF5450" stroke-miterlimit="10"/>
<path d="M68.366 35.2656L21.1908 -11.7996" stroke="#FF5450" stroke-miterlimit="10"/>
<path d="M71.3307 35.2656L24.1528 -11.7996" stroke="#FF5450" stroke-miterlimit="10"/>
<path d="M74.2926 35.2656L27.1174 -11.7996" stroke="#FF5450" stroke-miterlimit="10"/>
<path d="M77.2573 35.2656L30.0822 -11.7996" stroke="#FF5450" stroke-miterlimit="10"/>
<path d="M80.2221 35.2656L33.0469 -11.7996" stroke="#FF5450" stroke-miterlimit="10"/>
</g>
<path d="M38.447 60.8721H0V0.264454H38.447V60.8721Z" fill="#4BB462"/>
<mask id="mask1" mask-type="alpha" maskUnits="userSpaceOnUse" x="0" y="19" width="39" height="14">
<path d="M-1.52588e-05 19.0552L38.1351 19.0552V32.5486L-1.52588e-05 32.5486V19.0552Z" fill="#5081A2"/>
</mask>
<g mask="url(#mask1)">
<path d="M5.90552 35.145L-41.6 -11.9202" stroke="#FF5450" stroke-miterlimit="10"/>
<path d="M8.89088 35.145L-38.6146 -11.9202" stroke="#FF5450" stroke-miterlimit="10"/>
<path d="M11.8763 35.145L-35.6292 -11.9202" stroke="#FF5450" stroke-miterlimit="10"/>
<path d="M14.8618 35.145L-32.6437 -11.9202" stroke="#FF5450" stroke-miterlimit="10"/>
<path d="M17.8472 35.145L-29.661 -11.9202" stroke="#FF5450" stroke-miterlimit="10"/>
<path d="M20.83 35.145L-26.6755 -11.9202" stroke="#FF5450" stroke-miterlimit="10"/>
<path d="M23.8154 35.145L-23.6901 -11.9202" stroke="#FF5450" stroke-miterlimit="10"/>
<path d="M26.8009 35.145L-20.7046 -11.9202" stroke="#FF5450" stroke-miterlimit="10"/>
<path d="M29.7863 35.145L-17.7192 -11.9202" stroke="#FF5450" stroke-miterlimit="10"/>
<path d="M32.7717 35.145L-14.7338 -11.9202" stroke="#FF5450" stroke-miterlimit="10"/>
<path d="M35.7571 35.145L-11.7511 -11.9202" stroke="#FF5450" stroke-miterlimit="10"/>
<path d="M38.7399 35.145L-8.76562 -11.9202" stroke="#FF5450" stroke-miterlimit="10"/>
<path d="M41.7253 35.145L-5.78015 -11.9202" stroke="#FF5450" stroke-miterlimit="10"/>
<path d="M44.7107 35.145L-2.7948 -11.9202" stroke="#FF5450" stroke-miterlimit="10"/>
<path d="M47.6962 35.145L0.190674 -11.9202" stroke="#FF5450" stroke-miterlimit="10"/>
<path d="M50.6817 35.145L3.17615 -11.9202" stroke="#FF5450" stroke-miterlimit="10"/>
<path d="M53.667 35.145L6.15881 -11.9202" stroke="#FF5450" stroke-miterlimit="10"/>
<path d="M56.6498 35.145L9.14429 -11.9202" stroke="#FF5450" stroke-miterlimit="10"/>
<path d="M59.6351 35.145L12.1296 -11.9202" stroke="#FF5450" stroke-miterlimit="10"/>
<path d="M62.6206 35.145L15.1151 -11.9202" stroke="#FF5450" stroke-miterlimit="10"/>
<path d="M65.6061 35.145L18.1006 -11.9202" stroke="#FF5450" stroke-miterlimit="10"/>
<path d="M68.5916 35.145L21.0861 -11.9202" stroke="#FF5450" stroke-miterlimit="10"/>
<path d="M71.5769 35.145L24.0687 -11.9202" stroke="#FF5450" stroke-miterlimit="10"/>
<path d="M74.5597 35.145L27.0542 -11.9202" stroke="#FF5450" stroke-miterlimit="10"/>
<path d="M77.5452 35.145L30.0397 -11.9202" stroke="#FF5450" stroke-miterlimit="10"/>
<path d="M80.5305 35.145L33.025 -11.9202" stroke="#FF5450" stroke-miterlimit="10"/>
</g>
<path d="M38.447 19.0557H0V-3.8147e-06H38.447V19.0557Z" fill="#FF5450"/>
<path d="M19.1757 41.8396C29.7064 41.8396 38.2432 50.3565 38.2432 60.8627C38.2432 71.3688 29.7064 79.8857 19.1757 79.8857C8.64498 79.8857 0.108154 71.3688 0.108154 60.8627C0.108154 50.3565 8.64498 41.8396 19.1757 41.8396Z" fill="#FF5450"/>
<path d="M19.1757 19.0684C14.1187 19.0684 9.26877 17.0642 5.69291 13.4966C2.11705 9.92911 0.108154 5.09051 0.108154 0.0452728H38.2486C38.2486 2.54387 37.7553 5.018 36.7967 7.32634C35.8381 9.63468 34.4331 11.732 32.662 13.4985C30.8908 15.2651 28.7882 16.6662 26.4742 17.6219C24.1602 18.5775 21.6801 19.0691 19.1757 19.0684Z" fill="#38869C"/>
<path d="M19.1757 94H38.3515L28.765 77.4327L19.1757 60.8627L9.58652 77.4327L0 94H19.1757Z" fill="#4BB462"/>
<path d="M28.7081 77.3354C25.8104 79.0061 22.5226 79.8857 19.1757 79.8857C15.8289 79.8857 12.5411 79.0061 9.64331 77.3354L19.1757 60.8734L28.7081 77.3354Z" fill="#FFE562"/>
<path d="M40.1475 30.3379H54.1243V43.7045H40.1475V30.3379Z" fill="#38869C"/>
<path d="M56.0233 30.3379H70V43.7045H56.0233V30.3379Z" fill="#FFE562"/>
<path d="M40.1475 15.1904L54.1243 15.1904V28.5571H40.1475V15.1904Z" fill="#38869C"/>
<path d="M56.0233 15.1904L70 15.1904V28.5571H56.0233V15.1904Z" fill="#FF5450"/>
<path d="M40.1475 0.0449219L54.1243 0.0449219V13.4115L40.1475 13.4115V0.0449219Z" fill="#38869C"/>
<path d="M56.0233 0.0449219L70 0.0449219V13.4115L56.0233 13.4115V0.0449219Z" fill="#4BB462"/>
<path d="M19.2234 34.6704H30.2272L24.7261 41.0218L19.2234 47.3742L13.7207 41.0218L8.2196 34.6704H19.2234Z" fill="#38869C"/>
<path d="M19.356 56.9023H22.0075L20.6819 58.4902L19.356 60.0783L18.03 58.4902L16.7045 56.9023H19.356Z" fill="#154E60"/>
<path d="M19.356 56.9023H22.0075L20.6819 55.3145L19.356 53.7264L18.03 55.3145L16.7045 56.9023H19.356Z" fill="#154E60"/>
<path d="M9.67169 40.8282L12.0608 43.8097L7.8882 44.6968L3.71479 45.5839L5.49877 41.7149L7.28259 37.8467L9.67169 40.8282Z" fill="#154E60"/>
<path d="M28.7436 40.6727L31.2372 37.8464L32.8138 41.741L34.3904 45.6365L30.3198 44.5677L26.25 43.499L28.7436 40.6727Z" fill="#154E60"/>
<ellipse cx="28.3712" cy="52.138" rx="6.36364" ry="6.35189" fill="#FFE562"/>
<ellipse cx="10.3409" cy="52.138" rx="6.36364" ry="6.35189" fill="#FFE562"/>
<mask id="mask2" mask-type="alpha" maskUnits="userSpaceOnUse" x="26" y="871" width="70" height="70">
<path d="M96 871H26V941H96V871Z" fill="#5081A2"/>
</mask>
<g mask="url(#mask2)">
<path d="M33.5811 857.814L-62.7399 954.135" stroke="#FF5450" stroke-miterlimit="10"/>
<path d="M39.6339 857.814L-56.687 954.135" stroke="#FF5450" stroke-miterlimit="10"/>
<path d="M45.6822 857.814L-50.6387 954.135" stroke="#FF5450" stroke-miterlimit="10"/>
<path d="M51.7352 857.814L-44.5857 954.135" stroke="#FF5450" stroke-miterlimit="10"/>
<path d="M57.7881 857.814L-38.5328 954.135" stroke="#FF5450" stroke-miterlimit="10"/>
<path d="M63.8411 857.814L-32.4799 954.135" stroke="#FF5450" stroke-miterlimit="10"/>
<path d="M69.8939 857.814L-26.427 954.135" stroke="#FF5450" stroke-miterlimit="10"/>
<path d="M75.9469 857.814L-20.374 954.135" stroke="#FF5450" stroke-miterlimit="10"/>
<path d="M81.9999 857.814L-14.3256 954.135" stroke="#FF5450" stroke-miterlimit="10"/>
<path d="M88.0483 857.814L-8.27258 954.135" stroke="#FF5450" stroke-miterlimit="10"/>
<path d="M94.1012 857.814L-2.21973 954.135" stroke="#FF5450" stroke-miterlimit="10"/>
<path d="M100.154 857.814L3.83325 954.135" stroke="#FF5450" stroke-miterlimit="10"/>
<path d="M106.207 857.814L9.88623 954.135" stroke="#FF5450" stroke-miterlimit="10"/>
<path d="M112.26 857.814L15.9391 954.135" stroke="#FF5450" stroke-miterlimit="10"/>
<path d="M118.313 857.814L21.9875 954.135" stroke="#FF5450" stroke-miterlimit="10"/>
<path d="M124.361 857.814L28.0404 954.135" stroke="#FF5450" stroke-miterlimit="10"/>
<path d="M130.414 857.814L34.0934 954.135" stroke="#FF5450" stroke-miterlimit="10"/>
<path d="M136.467 857.814L40.1462 954.135" stroke="#FF5450" stroke-miterlimit="10"/>
<path d="M142.52 857.814L46.1992 954.135" stroke="#FF5450" stroke-miterlimit="10"/>
<path d="M148.573 857.814L52.2522 954.135" stroke="#FF5450" stroke-miterlimit="10"/>
<path d="M154.626 857.814L58.3051 954.135" stroke="#FF5450" stroke-miterlimit="10"/>
<path d="M160.674 857.814L64.3535 954.135" stroke="#FF5450" stroke-miterlimit="10"/>
<path d="M166.727 857.814L70.4064 954.135" stroke="#FF5450" stroke-miterlimit="10"/>
<path d="M172.78 857.814L76.4594 954.135" stroke="#FF5450" stroke-miterlimit="10"/>
<path d="M178.833 857.814L82.5122 954.135" stroke="#FF5450" stroke-miterlimit="10"/>
<path d="M184.886 857.814L88.5652 954.135" stroke="#FF5450" stroke-miterlimit="10"/>
</g>
<path d="M86.0673 880.768H34.4137V932.422H86.0673V880.768Z" fill="#38869C"/>
<path d="M76.2078 890.627H44.2777V922.558H76.2078V890.627Z" fill="#FFE562"/>
<path d="M66.3666 900.473H54.1189V912.721H66.3666V900.473Z" fill="#FF5450"/>
<mask id="mask3" mask-type="alpha" maskUnits="userSpaceOnUse" x="221" y="1279" width="70" height="70">
<path d="M291 1279H221V1349H291V1279Z" fill="#5081A2"/>
</mask>
<g mask="url(#mask3)">
<path d="M228.581 1265.81L132.26 1362.14" stroke="#FF5450" stroke-miterlimit="10"/>
<path d="M234.634 1265.81L138.313 1362.14" stroke="#FF5450" stroke-miterlimit="10"/>
<path d="M240.682 1265.81L144.361 1362.14" stroke="#FF5450" stroke-miterlimit="10"/>
<path d="M246.735 1265.81L150.414 1362.14" stroke="#FF5450" stroke-miterlimit="10"/>
<path d="M252.788 1265.81L156.467 1362.14" stroke="#FF5450" stroke-miterlimit="10"/>
<path d="M258.841 1265.81L162.52 1362.14" stroke="#FF5450" stroke-miterlimit="10"/>
<path d="M264.894 1265.81L168.573 1362.14" stroke="#FF5450" stroke-miterlimit="10"/>
<path d="M270.947 1265.81L174.626 1362.14" stroke="#FF5450" stroke-miterlimit="10"/>
<path d="M277 1265.81L180.674 1362.14" stroke="#FF5450" stroke-miterlimit="10"/>
<path d="M283.048 1265.81L186.727 1362.14" stroke="#FF5450" stroke-miterlimit="10"/>
<path d="M289.101 1265.81L192.78 1362.14" stroke="#FF5450" stroke-miterlimit="10"/>
<path d="M295.154 1265.81L198.833 1362.14" stroke="#FF5450" stroke-miterlimit="10"/>
<path d="M301.207 1265.81L204.886 1362.14" stroke="#FF5450" stroke-miterlimit="10"/>
<path d="M307.26 1265.81L210.939 1362.14" stroke="#FF5450" stroke-miterlimit="10"/>
<path d="M313.313 1265.81L216.987 1362.14" stroke="#FF5450" stroke-miterlimit="10"/>
<path d="M319.361 1265.81L223.04 1362.14" stroke="#FF5450" stroke-miterlimit="10"/>
<path d="M325.414 1265.81L229.093 1362.14" stroke="#FF5450" stroke-miterlimit="10"/>
<path d="M331.467 1265.81L235.146 1362.14" stroke="#FF5450" stroke-miterlimit="10"/>
<path d="M337.52 1265.81L241.199 1362.14" stroke="#FF5450" stroke-miterlimit="10"/>
<path d="M343.573 1265.81L247.252 1362.14" stroke="#FF5450" stroke-miterlimit="10"/>
<path d="M349.626 1265.81L253.305 1362.14" stroke="#FF5450" stroke-miterlimit="10"/>
<path d="M355.674 1265.81L259.353 1362.14" stroke="#FF5450" stroke-miterlimit="10"/>
<path d="M361.727 1265.81L265.406 1362.14" stroke="#FF5450" stroke-miterlimit="10"/>
<path d="M367.78 1265.81L271.459 1362.14" stroke="#FF5450" stroke-miterlimit="10"/>
<path d="M373.833 1265.81L277.512 1362.14" stroke="#FF5450" stroke-miterlimit="10"/>
<path d="M379.886 1265.81L283.565 1362.14" stroke="#FF5450" stroke-miterlimit="10"/>
</g>
<path d="M281.067 1288.77H229.414V1340.42H281.067V1288.77Z" fill="#38869C"/>
<path d="M271.208 1298.63H239.278V1330.56H271.208V1298.63Z" fill="#FFE562"/>
<path d="M261.367 1308.47H249.119V1320.72H261.367V1308.47Z" fill="#FF5450"/>
<path d="M290 30.5918H275.954V44.0904H290V30.5918Z" fill="#38869C"/>
<path d="M274.046 15.2944H260V28.7931H274.046V15.2944Z" fill="#FF5450"/>
<path d="M290 0H275.954V13.4986H290V0Z" fill="#38869C"/>
<path d="M274.046 0H260V13.4986H274.046V0Z" fill="#FFE562"/>
<path d="M290 48.9771V77.1817H261.868L290 48.9771Z" fill="#FF5450"/>
<path d="M282.978 28.7933C286.696 28.7933 289.709 25.7721 289.709 22.0453C289.709 18.3185 286.696 15.2974 282.978 15.2974C279.261 15.2974 276.248 18.3185 276.248 22.0453C276.248 25.7721 279.261 28.7933 282.978 28.7933Z" fill="#38869C"/>
<path d="M267.024 44.2049C270.742 44.2049 273.755 41.1837 273.755 37.4569C273.755 33.7301 270.742 30.709 267.024 30.709C263.307 30.709 260.294 33.7301 260.294 37.4569C260.294 41.1837 263.307 44.2049 267.024 44.2049Z" fill="#4BB462"/>
<path d="M270.765 48.9771H261.868V57.8971H270.765V48.9771Z" fill="#38869C"/>
<mask id="mask4" mask-type="alpha" maskUnits="userSpaceOnUse" x="205" y="438" width="62" height="62">
<path d="M235.892 499.744C252.882 499.744 266.655 485.971 266.655 468.981C266.655 451.991 252.882 438.218 235.892 438.218C218.902 438.218 205.129 451.991 205.129 468.981C205.129 485.971 218.902 499.744 235.892 499.744Z" fill="#EF9020"/>
</mask>
<g mask="url(#mask4)">
<path d="M217.048 434.241L148.583 502.706" stroke="#FF5450" stroke-miterlimit="10"/>
<path d="M221.354 434.241L152.889 502.706" stroke="#FF5450" stroke-miterlimit="10"/>
<path d="M225.655 434.241L157.19 502.706" stroke="#FF5450" stroke-miterlimit="10"/>
<path d="M229.955 434.241L161.49 502.706" stroke="#FF5450" stroke-miterlimit="10"/>
<path d="M234.256 434.241L165.791 502.706" stroke="#FF5450" stroke-miterlimit="10"/>
<path d="M238.563 434.241L170.091 502.706" stroke="#FF5450" stroke-miterlimit="10"/>
<path d="M242.863 434.241L174.398 502.706" stroke="#FF5450" stroke-miterlimit="10"/>
<path d="M247.163 434.241L178.698 502.706" stroke="#FF5450" stroke-miterlimit="10"/>
<path d="M251.464 434.241L182.999 502.706" stroke="#FF5450" stroke-miterlimit="10"/>
<path d="M255.771 434.241L187.299 502.706" stroke="#FF5450" stroke-miterlimit="10"/>
<path d="M260.071 434.241L191.606 502.706" stroke="#FF5450" stroke-miterlimit="10"/>
<path d="M264.372 434.241L195.907 502.706" stroke="#FF5450" stroke-miterlimit="10"/>
<path d="M268.672 434.241L200.207 502.706" stroke="#FF5450" stroke-miterlimit="10"/>
<path d="M272.979 434.241L204.508 502.706" stroke="#FF5450" stroke-miterlimit="10"/>
<path d="M277.279 434.241L208.814 502.706" stroke="#FF5450" stroke-miterlimit="10"/>
<path d="M281.58 434.241L213.115 502.706" stroke="#FF5450" stroke-miterlimit="10"/>
<path d="M285.88 434.241L217.415 502.706" stroke="#FF5450" stroke-miterlimit="10"/>
<path d="M290.187 434.241L221.716 502.706" stroke="#FF5450" stroke-miterlimit="10"/>
<path d="M294.488 434.241L226.023 502.706" stroke="#FF5450" stroke-miterlimit="10"/>
<path d="M298.788 434.241L230.323 502.706" stroke="#FF5450" stroke-miterlimit="10"/>
<path d="M303.089 434.241L234.624 502.706" stroke="#FF5450" stroke-miterlimit="10"/>
<path d="M307.395 434.241L238.924 502.706" stroke="#FF5450" stroke-miterlimit="10"/>
<path d="M311.696 434.241L243.231 502.706" stroke="#FF5450" stroke-miterlimit="10"/>
<path d="M315.996 434.241L247.531 502.706" stroke="#FF5450" stroke-miterlimit="10"/>
<path d="M320.297 434.241L251.832 502.706" stroke="#FF5450" stroke-miterlimit="10"/>
<path d="M324.597 434.241L256.132 502.706" stroke="#FF5450" stroke-miterlimit="10"/>
</g>
<path d="M271 434H201V504H271V434Z" stroke="#FF5450" stroke-miterlimit="10"/>
</svg>
