<svg width="1276" height="825" viewBox="0 0 1276 825" fill="none" xmlns="http://www.w3.org/2000/svg">
<path d="M144.232 355.17H0V226.997H144.232V355.17Z" fill="#FFE562"/>
<path d="M144.232 229.964H0.408081V0.170021H144.232V229.964Z" fill="#4BB462"/>
<path d="M72.32 72.0469H0.408081V0.170052H72.32V72.0469Z" fill="#FFE562"/>
<mask id="mask0" mask-type="alpha" maskUnits="userSpaceOnUse" x="0" y="72" width="144" height="52">
<path d="M0.948715 72.4551L143.773 72.4551V123.439L0.948715 123.439V72.4551Z" fill="#5081A2"/>
</mask>
<g mask="url(#mask0)">
<path d="M23.0661 133.248L-154.852 -44.5836" stroke="#FF5450" stroke-miterlimit="10"/>
<path d="M34.2471 133.248L-143.671 -44.5832" stroke="#FF5450" stroke-miterlimit="10"/>
<path d="M45.4281 133.248L-132.49 -44.5832" stroke="#FF5450" stroke-miterlimit="10"/>
<path d="M56.6094 133.248L-121.308 -44.5832" stroke="#FF5450" stroke-miterlimit="10"/>
<path d="M67.7904 133.248L-110.138 -44.5832" stroke="#FF5450" stroke-miterlimit="10"/>
<path d="M78.9614 133.248L-98.9565 -44.5832" stroke="#FF5450" stroke-miterlimit="10"/>
<path d="M90.1424 133.248L-87.7755 -44.5832" stroke="#FF5450" stroke-miterlimit="10"/>
<path d="M101.323 133.248L-76.5945 -44.5832" stroke="#FF5450" stroke-miterlimit="10"/>
<path d="M112.504 133.248L-65.4135 -44.5832" stroke="#FF5450" stroke-miterlimit="10"/>
<path d="M123.686 133.248L-54.2323 -44.5832" stroke="#FF5450" stroke-miterlimit="10"/>
<path d="M134.867 133.248L-43.0614 -44.5832" stroke="#FF5450" stroke-miterlimit="10"/>
<path d="M146.038 133.248L-31.8804 -44.5832" stroke="#FF5450" stroke-miterlimit="10"/>
<path d="M157.219 133.248L-20.6992 -44.5832" stroke="#FF5450" stroke-miterlimit="10"/>
<path d="M168.4 133.248L-9.51819 -44.5832" stroke="#FF5450" stroke-miterlimit="10"/>
<path d="M179.581 133.248L1.66284 -44.5832" stroke="#FF5450" stroke-miterlimit="10"/>
<path d="M190.762 133.248L12.8439 -44.5832" stroke="#FF5450" stroke-miterlimit="10"/>
<path d="M201.943 133.248L24.0148 -44.5832" stroke="#FF5450" stroke-miterlimit="10"/>
<path d="M213.114 133.248L35.1958 -44.5832" stroke="#FF5450" stroke-miterlimit="10"/>
<path d="M224.295 133.248L46.377 -44.5832" stroke="#FF5450" stroke-miterlimit="10"/>
<path d="M235.476 133.248L57.5581 -44.5832" stroke="#FF5450" stroke-miterlimit="10"/>
<path d="M246.657 133.248L68.7391 -44.5832" stroke="#FF5450" stroke-miterlimit="10"/>
<path d="M257.838 133.248L79.9202 -44.5832" stroke="#FF5450" stroke-miterlimit="10"/>
<path d="M269.019 133.248L91.0911 -44.5832" stroke="#FF5450" stroke-miterlimit="10"/>
<path d="M280.19 133.248L102.272 -44.5832" stroke="#FF5450" stroke-miterlimit="10"/>
<path d="M291.371 133.248L113.453 -44.5832" stroke="#FF5450" stroke-miterlimit="10"/>
<path d="M302.552 133.248L124.634 -44.5832" stroke="#FF5450" stroke-miterlimit="10"/>
</g>
<path d="M144.232 72.0469H72.3199V0.170052H144.232V72.0469Z" fill="#FF5450"/>
<path d="M72.32 158.087C112.036 158.087 144.232 190.267 144.232 229.964C144.232 269.66 112.036 301.841 72.32 301.841C32.6041 301.841 0.408081 269.66 0.408081 229.964C0.408081 190.267 32.6041 158.087 72.32 158.087Z" fill="#FF5450"/>
<path d="M72.5 129H114L93.2529 152.998L72.5 177L51.7471 152.998L31 129H72.5Z" fill="#38869C"/>
<path d="M73 213H83L78.0007 219L73 225L67.9993 219L63 213H73Z" fill="#154E60"/>
<path d="M73 213H83L78.0007 207L73 201L67.9993 207L63 213H73Z" fill="#154E60"/>
<path d="M36.4764 152.265L45.4867 163.531L29.7501 166.883L14.0104 170.234L20.7385 155.616L27.4661 141L36.4764 152.265Z" fill="#154E60"/>
<path d="M108.404 151.679L117.809 141L123.755 155.716L129.701 170.434L114.349 166.396L99 162.358L108.404 151.679Z" fill="#154E60"/>
<circle cx="107" cy="195" r="24" fill="#FFE562"/>
<circle cx="39" cy="195" r="24" fill="#FFE562"/>
<path d="M72.32 72.0469C53.2477 72.0469 34.9567 64.4742 21.4706 50.9947C7.98449 37.5152 0.408081 19.233 0.408081 0.170052H144.252C144.252 9.61077 142.392 18.959 138.776 27.6809C135.161 36.4027 129.862 44.3273 123.183 51.0019C116.503 57.6766 108.573 62.9705 99.8457 66.5815C91.1186 70.1924 81.7653 72.0496 72.32 72.0469Z" fill="#38869C"/>
<path d="M72.32 355.17H144.64L108.485 292.572L72.32 229.964L36.1549 292.572L0 355.17H72.32Z" fill="#4BB462"/>
<path d="M108.271 292.205C97.3419 298.517 84.9423 301.841 72.3199 301.841C59.6974 301.841 47.2978 298.517 36.369 292.205L72.3199 230.005L108.271 292.205Z" fill="#FFE562"/>
<path d="M151.414 114.629H204.126V165.133H151.414V114.629Z" fill="#38869C"/>
<path d="M211.288 114.629H264V165.133H211.288V114.629Z" fill="#FFE562"/>
<path d="M151.414 57.3943L204.126 57.3943V107.899H151.414V57.3943Z" fill="#38869C"/>
<path d="M211.288 57.3943L264 57.3943V107.899H211.288V57.3943Z" fill="#FF5450"/>
<path d="M151.414 0.169891L204.126 0.169891V50.6744L151.414 50.6744V0.169891Z" fill="#38869C"/>
<path d="M211.288 0.169891L264 0.169891V50.6744L211.288 50.6744V0.169891Z" fill="#4BB462"/>
<mask id="mask1" mask-type="alpha" maskUnits="userSpaceOnUse" x="1134" y="683" width="142" height="142">
<path d="M1276 683H1134V825H1276V683Z" fill="#5081A2"/>
</mask>
<g mask="url(#mask1)">
<path d="M1149.38 656.252L953.985 851.646" stroke="#FF5450" stroke-miterlimit="10"/>
<path d="M1161.66 656.252L966.264 851.646" stroke="#FF5450" stroke-miterlimit="10"/>
<path d="M1173.93 656.252L978.533 851.646" stroke="#FF5450" stroke-miterlimit="10"/>
<path d="M1186.21 656.252L990.812 851.646" stroke="#FF5450" stroke-miterlimit="10"/>
<path d="M1198.48 656.252L1003.09 851.646" stroke="#FF5450" stroke-miterlimit="10"/>
<path d="M1210.76 656.252L1015.37 851.646" stroke="#FF5450" stroke-miterlimit="10"/>
<path d="M1223.04 656.252L1027.65 851.646" stroke="#FF5450" stroke-miterlimit="10"/>
<path d="M1235.32 656.252L1039.93 851.646" stroke="#FF5450" stroke-miterlimit="10"/>
<path d="M1247.6 656.252L1052.2 851.646" stroke="#FF5450" stroke-miterlimit="10"/>
<path d="M1259.87 656.252L1064.48 851.646" stroke="#FF5450" stroke-miterlimit="10"/>
<path d="M1272.15 656.252L1076.75 851.646" stroke="#FF5450" stroke-miterlimit="10"/>
<path d="M1284.43 656.252L1089.03 851.646" stroke="#FF5450" stroke-miterlimit="10"/>
<path d="M1296.71 656.252L1101.31 851.646" stroke="#FF5450" stroke-miterlimit="10"/>
<path d="M1308.98 656.252L1113.59 851.646" stroke="#FF5450" stroke-miterlimit="10"/>
<path d="M1321.26 656.252L1125.86 851.646" stroke="#FF5450" stroke-miterlimit="10"/>
<path d="M1333.53 656.252L1138.14 851.646" stroke="#FF5450" stroke-miterlimit="10"/>
<path d="M1345.81 656.252L1150.42 851.646" stroke="#FF5450" stroke-miterlimit="10"/>
<path d="M1358.09 656.252L1162.7 851.646" stroke="#FF5450" stroke-miterlimit="10"/>
<path d="M1370.37 656.252L1174.98 851.646" stroke="#FF5450" stroke-miterlimit="10"/>
<path d="M1382.65 656.252L1187.25 851.646" stroke="#FF5450" stroke-miterlimit="10"/>
<path d="M1394.93 656.252L1199.53 851.646" stroke="#FF5450" stroke-miterlimit="10"/>
<path d="M1407.2 656.252L1211.8 851.646" stroke="#FF5450" stroke-miterlimit="10"/>
<path d="M1419.48 656.252L1224.08 851.646" stroke="#FF5450" stroke-miterlimit="10"/>
<path d="M1431.75 656.252L1236.36 851.646" stroke="#FF5450" stroke-miterlimit="10"/>
<path d="M1444.03 656.252L1248.64 851.646" stroke="#FF5450" stroke-miterlimit="10"/>
<path d="M1456.31 656.252L1260.92 851.646" stroke="#FF5450" stroke-miterlimit="10"/>
</g>
<path d="M1255.85 702.815H1151.07V807.598H1255.85V702.815Z" fill="#38869C"/>
<path d="M1235.85 722.816H1171.08V787.588H1235.85V722.816Z" fill="#FFE562"/>
<path d="M1215.89 742.788H1191.04V767.634H1215.89V742.788Z" fill="#FF5450"/>
<path d="M1255 113.171H1203.5V162.666H1255V113.171Z" fill="#38869C"/>
<path d="M1196.5 57.0802H1145V106.575H1196.5V57.0802Z" fill="#FF5450"/>
<path d="M1255 1H1203.5V50.495H1255V1Z" fill="#38869C"/>
<path d="M1196.5 1H1145V50.495H1196.5V1Z" fill="#FFE562"/>
<path d="M1255 180.583V284H1151.85L1255 180.583Z" fill="#FF5450"/>
<path d="M1229.25 106.575C1242.88 106.575 1253.93 95.4977 1253.93 81.8328C1253.93 68.1679 1242.88 57.0903 1229.25 57.0903C1215.62 57.0903 1204.58 68.1679 1204.58 81.8328C1204.58 95.4977 1215.62 106.575 1229.25 106.575Z" fill="#38869C"/>
<path d="M1170.76 163.085C1184.39 163.085 1195.43 152.008 1195.43 138.343C1195.43 124.678 1184.39 113.6 1170.76 113.6C1157.13 113.6 1146.08 124.678 1146.08 138.343C1146.08 152.008 1157.13 163.085 1170.76 163.085Z" fill="#4BB462"/>
<path d="M1184.47 180.583H1151.85V213.29H1184.47V180.583Z" fill="#38869C"/>
<mask id="mask2" mask-type="alpha" maskUnits="userSpaceOnUse" x="9" y="690" width="126" height="126">
<path d="M71.7813 815.366C106.247 815.366 134.186 787.427 134.186 752.961C134.186 718.496 106.247 690.556 71.7813 690.556C37.3161 690.556 9.37646 718.496 9.37646 752.961C9.37646 787.427 37.3161 815.366 71.7813 815.366Z" fill="#EF9020"/>
</mask>
<g mask="url(#mask2)">
<path d="M33.5536 682.489L-105.333 821.375" stroke="#FF5450" stroke-miterlimit="10"/>
<path d="M42.2903 682.489L-96.5958 821.375" stroke="#FF5450" stroke-miterlimit="10"/>
<path d="M51.0141 682.489L-87.8721 821.375" stroke="#FF5450" stroke-miterlimit="10"/>
<path d="M59.7378 682.489L-79.1483 821.375" stroke="#FF5450" stroke-miterlimit="10"/>
<path d="M68.4617 682.489L-70.4244 821.375" stroke="#FF5450" stroke-miterlimit="10"/>
<path d="M77.1983 682.489L-61.7007 821.375" stroke="#FF5450" stroke-miterlimit="10"/>
<path d="M85.9222 682.489L-52.964 821.375" stroke="#FF5450" stroke-miterlimit="10"/>
<path d="M94.6459 682.489L-44.2402 821.375" stroke="#FF5450" stroke-miterlimit="10"/>
<path d="M103.37 682.489L-35.5164 821.375" stroke="#FF5450" stroke-miterlimit="10"/>
<path d="M112.106 682.489L-26.7926 821.375" stroke="#FF5450" stroke-miterlimit="10"/>
<path d="M120.83 682.489L-18.0559 821.375" stroke="#FF5450" stroke-miterlimit="10"/>
<path d="M129.554 682.489L-9.33215 821.375" stroke="#FF5450" stroke-miterlimit="10"/>
<path d="M138.278 682.489L-0.608276 821.375" stroke="#FF5450" stroke-miterlimit="10"/>
<path d="M147.015 682.489L8.11548 821.375" stroke="#FF5450" stroke-miterlimit="10"/>
<path d="M155.738 682.489L16.8523 821.375" stroke="#FF5450" stroke-miterlimit="10"/>
<path d="M164.462 682.489L25.576 821.375" stroke="#FF5450" stroke-miterlimit="10"/>
<path d="M173.186 682.489L34.2998 821.375" stroke="#FF5450" stroke-miterlimit="10"/>
<path d="M181.923 682.489L43.0237 821.375" stroke="#FF5450" stroke-miterlimit="10"/>
<path d="M190.647 682.489L51.7604 821.375" stroke="#FF5450" stroke-miterlimit="10"/>
<path d="M199.37 682.489L60.4841 821.375" stroke="#FF5450" stroke-miterlimit="10"/>
<path d="M208.094 682.489L69.208 821.375" stroke="#FF5450" stroke-miterlimit="10"/>
<path d="M216.831 682.489L77.9318 821.375" stroke="#FF5450" stroke-miterlimit="10"/>
<path d="M225.555 682.489L86.6685 821.375" stroke="#FF5450" stroke-miterlimit="10"/>
<path d="M234.278 682.489L95.3922 821.375" stroke="#FF5450" stroke-miterlimit="10"/>
<path d="M243.002 682.489L104.116 821.375" stroke="#FF5450" stroke-miterlimit="10"/>
<path d="M251.726 682.489L112.84 821.375" stroke="#FF5450" stroke-miterlimit="10"/>
</g>
<path d="M143 682H1V824H143V682Z" stroke="#FF5450" stroke-miterlimit="10"/>
</svg>
