<svg width="1323" height="5161" viewBox="0 0 1323 5161" fill="none" xmlns="http://www.w3.org/2000/svg">
<path d="M145.232 356.17H1V227.997H145.232V356.17Z" fill="#FFE562"/>
<path d="M73.3201 73.0469H1.4082V1.16999H73.3201V73.0469Z" fill="#FFE562"/>
<mask id="mask0" mask-type="alpha" maskUnits="userSpaceOnUse" x="1" y="73" width="144" height="52">
<path d="M1.94945 73.4548L144.773 73.4548V124.439L1.94945 124.439V73.4548Z" fill="#5081A2"/>
</mask>
<g mask="url(#mask0)">
<path d="M24.0663 134.248L-153.852 -43.5837" stroke="#FF5450" stroke-miterlimit="10"/>
<path d="M35.247 134.248L-142.671 -43.5835" stroke="#FF5450" stroke-miterlimit="10"/>
<path d="M46.4286 134.248L-131.489 -43.5835" stroke="#FF5450" stroke-miterlimit="10"/>
<path d="M57.6093 134.248L-120.309 -43.5835" stroke="#FF5450" stroke-miterlimit="10"/>
<path d="M68.7904 134.248L-109.138 -43.5835" stroke="#FF5450" stroke-miterlimit="10"/>
<path d="M79.9618 134.248L-97.9561 -43.5835" stroke="#FF5450" stroke-miterlimit="10"/>
<path d="M91.1425 134.248L-86.7754 -43.5835" stroke="#FF5450" stroke-miterlimit="10"/>
<path d="M102.324 134.248L-75.5938 -43.5835" stroke="#FF5450" stroke-miterlimit="10"/>
<path d="M113.505 134.248L-64.4131 -43.5835" stroke="#FF5450" stroke-miterlimit="10"/>
<path d="M124.685 134.248L-53.2324 -43.5835" stroke="#FF5450" stroke-miterlimit="10"/>
<path d="M135.867 134.248L-42.0615 -43.5835" stroke="#FF5450" stroke-miterlimit="10"/>
<path d="M147.038 134.248L-30.8799 -43.5835" stroke="#FF5450" stroke-miterlimit="10"/>
<path d="M158.219 134.248L-19.6992 -43.5835" stroke="#FF5450" stroke-miterlimit="10"/>
<path d="M169.4 134.248L-8.51758 -43.5835" stroke="#FF5450" stroke-miterlimit="10"/>
<path d="M180.581 134.248L2.66309 -43.5835" stroke="#FF5450" stroke-miterlimit="10"/>
<path d="M191.762 134.248L13.8438 -43.5835" stroke="#FF5450" stroke-miterlimit="10"/>
<path d="M202.943 134.248L25.0146 -43.5835" stroke="#FF5450" stroke-miterlimit="10"/>
<path d="M214.114 134.248L36.1963 -43.5835" stroke="#FF5450" stroke-miterlimit="10"/>
<path d="M225.295 134.248L47.377 -43.5835" stroke="#FF5450" stroke-miterlimit="10"/>
<path d="M236.476 134.248L58.5586 -43.5835" stroke="#FF5450" stroke-miterlimit="10"/>
<path d="M247.657 134.248L69.7393 -43.5835" stroke="#FF5450" stroke-miterlimit="10"/>
<path d="M258.838 134.248L80.9199 -43.5835" stroke="#FF5450" stroke-miterlimit="10"/>
<path d="M270.02 134.248L92.0918 -43.5835" stroke="#FF5450" stroke-miterlimit="10"/>
<path d="M281.19 134.248L103.272 -43.5835" stroke="#FF5450" stroke-miterlimit="10"/>
<path d="M292.371 134.248L114.453 -43.5835" stroke="#FF5450" stroke-miterlimit="10"/>
<path d="M303.553 134.248L125.635 -43.5835" stroke="#FF5450" stroke-miterlimit="10"/>
</g>
<path d="M146 231H1V1.99976H146V231Z" fill="#4BB462"/>
<mask id="mask1" mask-type="alpha" maskUnits="userSpaceOnUse" x="1" y="72" width="144" height="52">
<path d="M1.00021 72.9998L144.824 72.9998V123.984L1.00021 123.984V72.9998Z" fill="#5081A2"/>
</mask>
<g mask="url(#mask1)">
<path d="M23.272 133.792L-155.892 -44.0388" stroke="#FF5450" stroke-miterlimit="10"/>
<path d="M34.5318 133.793L-144.632 -44.0386" stroke="#FF5450" stroke-miterlimit="10"/>
<path d="M45.7905 133.793L-133.373 -44.0386" stroke="#FF5450" stroke-miterlimit="10"/>
<path d="M57.0503 133.793L-122.113 -44.0386" stroke="#FF5450" stroke-miterlimit="10"/>
<path d="M68.3096 133.793L-110.864 -44.0386" stroke="#FF5450" stroke-miterlimit="10"/>
<path d="M79.5582 133.793L-99.6055 -44.0386" stroke="#FF5450" stroke-miterlimit="10"/>
<path d="M90.8179 133.793L-88.3457 -44.0386" stroke="#FF5450" stroke-miterlimit="10"/>
<path d="M102.078 133.793L-77.0859 -44.0386" stroke="#FF5450" stroke-miterlimit="10"/>
<path d="M113.336 133.793L-65.8271 -44.0386" stroke="#FF5450" stroke-miterlimit="10"/>
<path d="M124.596 133.793L-54.5674 -44.0386" stroke="#FF5450" stroke-miterlimit="10"/>
<path d="M135.856 133.793L-43.3184 -44.0386" stroke="#FF5450" stroke-miterlimit="10"/>
<path d="M147.104 133.793L-32.0596 -44.0386" stroke="#FF5450" stroke-miterlimit="10"/>
<path d="M158.364 133.793L-20.7998 -44.0386" stroke="#FF5450" stroke-miterlimit="10"/>
<path d="M169.624 133.793L-9.54004 -44.0386" stroke="#FF5450" stroke-miterlimit="10"/>
<path d="M180.882 133.793L1.71875 -44.0386" stroke="#FF5450" stroke-miterlimit="10"/>
<path d="M192.142 133.793L12.9785 -44.0386" stroke="#FF5450" stroke-miterlimit="10"/>
<path d="M203.401 133.793L24.2275 -44.0386" stroke="#FF5450" stroke-miterlimit="10"/>
<path d="M214.65 133.793L35.4863 -44.0386" stroke="#FF5450" stroke-miterlimit="10"/>
<path d="M225.91 133.793L46.7461 -44.0386" stroke="#FF5450" stroke-miterlimit="10"/>
<path d="M237.169 133.793L58.0059 -44.0386" stroke="#FF5450" stroke-miterlimit="10"/>
<path d="M248.428 133.793L69.2646 -44.0386" stroke="#FF5450" stroke-miterlimit="10"/>
<path d="M259.688 133.793L80.5244 -44.0386" stroke="#FF5450" stroke-miterlimit="10"/>
<path d="M270.947 133.793L91.7734 -44.0386" stroke="#FF5450" stroke-miterlimit="10"/>
<path d="M282.196 133.793L103.032 -44.0386" stroke="#FF5450" stroke-miterlimit="10"/>
<path d="M293.456 133.793L114.292 -44.0386" stroke="#FF5450" stroke-miterlimit="10"/>
<path d="M304.715 133.793L125.552 -44.0386" stroke="#FF5450" stroke-miterlimit="10"/>
</g>
<path d="M146 72.9998H1V0.999756H146V72.9998Z" fill="#FF5450"/>
<path d="M73.3201 159.087C113.036 159.087 145.232 191.267 145.232 230.963C145.232 270.66 113.036 302.84 73.3201 302.84C33.6042 302.84 1.4082 270.66 1.4082 230.963C1.4082 191.267 33.6042 159.087 73.3201 159.087Z" fill="#FF5450"/>
<path d="M73.3201 73.0469C54.2479 73.0469 35.9568 65.4742 22.4707 51.9946C8.98461 38.5151 1.4082 20.2329 1.4082 1.16999H145.252C145.252 10.6107 143.392 19.959 139.776 28.6808C136.161 37.4026 130.862 45.3272 124.183 52.0019C117.503 58.6765 109.573 63.9705 100.846 67.5814C92.1187 71.1924 82.7654 73.0496 73.3201 73.0469Z" fill="#38869C"/>
<path d="M73.32 356.17H145.64L109.485 293.572L73.32 230.964L37.1549 293.572L1 356.17H73.32Z" fill="#4BB462"/>
<path d="M109.271 293.204C98.3421 299.517 85.9424 302.841 73.32 302.841C60.6976 302.841 48.2979 299.517 37.3691 293.204L73.32 231.004L109.271 293.204Z" fill="#FFE562"/>
<path d="M152.414 115.628H205.126V166.133H152.414V115.628Z" fill="#38869C"/>
<path d="M212.288 115.628H265V166.133H212.288V115.628Z" fill="#FFE562"/>
<path d="M152.414 58.394L205.126 58.394V108.899H152.414V58.394Z" fill="#38869C"/>
<path d="M212.288 58.394L265 58.394V108.899H212.288V58.394Z" fill="#FF5450"/>
<path d="M152.414 1.16968L205.126 1.16968V51.6742L152.414 51.6742V1.16968Z" fill="#38869C"/>
<path d="M212.288 1.16968L265 1.16968V51.6742L212.288 51.6742V1.16968Z" fill="#4BB462"/>
<path d="M73.5 132H115L94.2529 155.998L73.5 180L52.7471 155.998L32 132H73.5Z" fill="#38869C"/>
<path d="M74 216H84L79.0007 221.999L74 228L68.9993 221.999L64 216H74Z" fill="#154E60"/>
<path d="M74 216H84L79.0007 210L74 204L68.9993 210L64 216H74Z" fill="#154E60"/>
<path d="M37.4761 155.265L46.4865 166.53L30.7498 169.882L15.0101 173.234L21.7382 158.615L28.4658 144L37.4761 155.265Z" fill="#154E60"/>
<path d="M109.404 154.679L118.809 144L124.755 158.715L130.701 173.434L115.349 169.396L100 165.358L109.404 154.679Z" fill="#154E60"/>
<circle cx="108" cy="198" r="24" fill="#FFE562"/>
<circle cx="40" cy="198" r="24" fill="#FFE562"/>
<path d="M1257 203.063L1195.67 203.063L1195.67 144.299L1257 144.299L1257 203.063Z" fill="#38869C"/>
<path d="M1187.33 269.659L1126 269.659L1126 210.894L1187.33 210.894L1187.33 269.659Z" fill="#FF5450"/>
<path d="M1257 336.241L1195.67 336.241L1195.67 277.477L1257 277.477L1257 336.241Z" fill="#38869C"/>
<path d="M1187.33 336.241L1126 336.241L1126 277.477L1187.33 277.477L1187.33 336.241Z" fill="#FFE562"/>
<path d="M1257 123.026L1257 0.24133L1134.16 0.241341L1257 123.026Z" fill="#FF5450"/>
<path d="M1226.34 210.894C1242.57 210.894 1255.73 224.046 1255.73 240.27C1255.73 256.494 1242.57 269.646 1226.34 269.646C1210.11 269.646 1196.95 256.494 1196.95 240.27C1196.95 224.046 1210.11 210.894 1226.34 210.894Z" fill="#38869C"/>
<path d="M1156.67 143.801C1172.91 143.801 1186.06 156.953 1186.06 173.177C1186.06 189.401 1172.91 202.553 1156.67 202.553C1140.44 202.553 1127.28 189.401 1127.28 173.177C1127.28 156.953 1140.44 143.801 1156.67 143.801Z" fill="#4BB462"/>
<path d="M1173.01 123.026L1134.16 123.026L1134.16 84.1939L1173.01 84.1939L1173.01 123.026Z" fill="#38869C"/>
<path d="M1257.63 5114.82L1257.63 5010.97L927.105 5010.97L927.105 5114.82L1257.63 5114.82Z" fill="#4BB462"/>
<path d="M747 5010.97L747 5114.82L931.358 5114.82L931.358 5010.97L747 5010.97Z" fill="#FFE562"/>
<path d="M1030.47 5114.82L1030.47 5114.53C1030.47 5087.06 1019.58 5060.72 1000.19 5041.29C980.798 5021.87 954.498 5010.96 927.075 5010.96C899.652 5010.96 873.352 5021.87 853.961 5041.29C834.57 5060.72 823.676 5087.06 823.676 5114.53L823.676 5114.82L1030.47 5114.82Z" fill="#FF5450"/>
<mask id="mask2" mask-type="alpha" maskUnits="userSpaceOnUse" x="1066" y="5011" width="89" height="104">
<rect x="1154.8" y="5011.4" width="102.835" height="87.999" transform="rotate(90 1154.8 5011.4)" fill="#C4C4C4"/>
</mask>
<g mask="url(#mask2)">
<path d="M1066.2 5106.96L1322 5363.18" stroke="#FF5450" stroke-miterlimit="10"/>
<path d="M1066.2 5090.88L1322 5347.08" stroke="#FF5450" stroke-miterlimit="10"/>
<path d="M1066.2 5074.77L1322 5330.98" stroke="#FF5450" stroke-miterlimit="10"/>
<path d="M1066.2 5058.67L1322 5314.88" stroke="#FF5450" stroke-miterlimit="10"/>
<path d="M1066.2 5042.57L1322 5298.78" stroke="#FF5450" stroke-miterlimit="10"/>
<path d="M1066.2 5026.47L1322 5282.68" stroke="#FF5450" stroke-miterlimit="10"/>
<path d="M1066.2 5010.37L1322 5266.59" stroke="#FF5450" stroke-miterlimit="10"/>
<path d="M1066.2 4994.28L1322 5250.49" stroke="#FF5450" stroke-miterlimit="10"/>
<path d="M1066.2 4978.18L1322 5234.39" stroke="#FF5450" stroke-miterlimit="10"/>
<path d="M1066.2 4962.08L1322 5218.29" stroke="#FF5450" stroke-miterlimit="10"/>
<path d="M1066.2 4945.98L1322 5202.19" stroke="#FF5450" stroke-miterlimit="10"/>
<path d="M1066.2 4929.88L1322 5186.09" stroke="#FF5450" stroke-miterlimit="10"/>
</g>
<path d="M1066.2 4913.78L1322 5170" stroke="#FF5450" stroke-miterlimit="10"/>
<path d="M1066.2 4897.69L1322 5153.9" stroke="#FF5450" stroke-miterlimit="10"/>
<path d="M1066.2 4881.59L1322 5137.8" stroke="#FF5450" stroke-miterlimit="10"/>
<path d="M1066.2 4865.49L1322 5121.7" stroke="#FF5450" stroke-miterlimit="10"/>
<path d="M1066.2 4849.39L1322 5105.6" stroke="#FF5450" stroke-miterlimit="10"/>
<path d="M1066.2 4833.29L1322 5089.5" stroke="#FF5450" stroke-miterlimit="10"/>
<path d="M1066.2 4817.19L1322 5073.41" stroke="#FF5450" stroke-miterlimit="10"/>
<path d="M1066.2 4801.1L1322 5057.31" stroke="#FF5450" stroke-miterlimit="10"/>
<path d="M1066.2 4785L1322 5041.21" stroke="#FF5450" stroke-miterlimit="10"/>
<path d="M1154.25 5010.97L1154.25 5114.53L1257.63 5114.53L1257.63 5010.97L1154.25 5010.97Z" fill="#FF5450"/>
<path d="M1257.63 5114.82L1257.63 5010.97C1230.21 5010.97 1203.91 5021.88 1184.53 5041.3C1165.14 5060.72 1154.24 5087.06 1154.24 5114.53L1154.24 5114.82L1257.63 5114.82Z" fill="#38869C"/>
<path d="M926.591 5114.82L927.104 5114.53L837.052 5062.45L747.015 5010.37L747.015 5114.53L747.015 5114.82L926.591 5114.82Z" fill="#4BB462"/>
<path d="M926.591 5114.82L927.104 5114.53L837.639 5062.76C828.541 5078.49 823.759 5096.35 823.779 5114.53L823.779 5114.82L926.591 5114.82Z" fill="#38869C"/>
<path d="M1 4962H143" stroke="#38869C" stroke-miterlimit="10"/>
<path d="M1 4971.48H143" stroke="#38869C" stroke-miterlimit="10"/>
<path d="M1 4980.95H143" stroke="#38869C" stroke-miterlimit="10"/>
<path d="M1 4990.45H143" stroke="#38869C" stroke-miterlimit="10"/>
<path d="M1 4999.93H143" stroke="#38869C" stroke-miterlimit="10"/>
<path d="M1 5009.38H143" stroke="#38869C" stroke-miterlimit="10"/>
<path d="M1 5018.88H143" stroke="#38869C" stroke-miterlimit="10"/>
<path d="M1 5028.36H143" stroke="#38869C" stroke-miterlimit="10"/>
<path d="M1 5037.81H143" stroke="#38869C" stroke-miterlimit="10"/>
<path d="M1 5047.31H143" stroke="#38869C" stroke-miterlimit="10"/>
<path d="M1 5056.79H143" stroke="#38869C" stroke-miterlimit="10"/>
<path d="M1 5066.24H143" stroke="#38869C" stroke-miterlimit="10"/>
<path d="M1 5075.74H143" stroke="#38869C" stroke-miterlimit="10"/>
<path d="M1 5085.22H143" stroke="#38869C" stroke-miterlimit="10"/>
<path d="M1 5094.67H143" stroke="#38869C" stroke-miterlimit="10"/>
<path d="M142.985 5104.17H1V5133H142.985V5104.17Z" stroke="#38869C" stroke-miterlimit="10"/>
</svg>
