<svg width="289" height="35" viewBox="0 0 289 35" fill="none" xmlns="http://www.w3.org/2000/svg">
<path d="M0.00411987 35L86 35V0L0.00411987 0V35Z" fill="#38869C"/>
<path d="M71.6659 34.9995H57.3319L64.4989 23.4934L71.6659 11.9873L78.8329 23.4934L85.9959 34.9995H71.6659Z" fill="#4BB462"/>
<path d="M42.9979 34.9995H28.668L35.8309 23.4934L42.9979 11.9873L50.1649 23.4934L57.3319 34.9995H42.9979Z" fill="#4BB462"/>
<path d="M14.334 34.9995H0L7.16701 23.4934L14.334 11.9873L21.501 23.4934L28.668 34.9995H14.334Z" fill="#4BB462"/>
<path d="M14.334 34.9996H8.573L11.4535 30.3763L14.334 25.7529L17.2145 30.3763L20.0909 34.9996H14.334Z" fill="#FF5450"/>
<path d="M42.9979 34.9996H37.241L40.1174 30.3763L42.9979 25.7529L45.8784 30.3763L48.7589 34.9996H42.9979Z" fill="#FF5450"/>
<path d="M71.6658 34.9996H65.9048L68.7853 30.3763L71.6658 25.7529L74.5463 30.3763L77.4227 34.9996H71.6658Z" fill="#FF5450"/>
<path d="M85.9959 2.79297H0V4.29052H85.9959V2.79297Z" fill="#FFE562"/>
<path d="M85.9959 6.80078H0V8.29832H85.9959V6.80078Z" fill="#FFE562"/>
<mask id="mask0" mask-type="alpha" maskUnits="userSpaceOnUse" x="254" y="0" width="35" height="35">
<path d="M289 0H254V35H289V0Z" fill="#5081A2"/>
</mask>
<g mask="url(#mask0)">
<path d="M257.791 -6.59277L209.63 41.5677" stroke="#FF5450" stroke-miterlimit="10"/>
<path d="M260.817 -6.59277L212.656 41.5677" stroke="#FF5450" stroke-miterlimit="10"/>
<path d="M263.841 -6.59277L215.681 41.5677" stroke="#FF5450" stroke-miterlimit="10"/>
<path d="M266.867 -6.59277L218.707 41.5677" stroke="#FF5450" stroke-miterlimit="10"/>
<path d="M269.894 -6.59277L221.734 41.5677" stroke="#FF5450" stroke-miterlimit="10"/>
<path d="M272.92 -6.59277L224.76 41.5677" stroke="#FF5450" stroke-miterlimit="10"/>
<path d="M275.947 -6.59277L227.786 41.5677" stroke="#FF5450" stroke-miterlimit="10"/>
<path d="M278.973 -6.59277L230.813 41.5677" stroke="#FF5450" stroke-miterlimit="10"/>
<path d="M282 -6.59277L233.837 41.5677" stroke="#FF5450" stroke-miterlimit="10"/>
<path d="M285.024 -6.59277L236.864 41.5677" stroke="#FF5450" stroke-miterlimit="10"/>
<path d="M288.051 -6.59277L239.89 41.5677" stroke="#FF5450" stroke-miterlimit="10"/>
<path d="M291.077 -6.59277L242.917 41.5677" stroke="#FF5450" stroke-miterlimit="10"/>
<path d="M294.103 -6.59277L245.943 41.5677" stroke="#FF5450" stroke-miterlimit="10"/>
<path d="M297.13 -6.59277L248.969 41.5677" stroke="#FF5450" stroke-miterlimit="10"/>
<path d="M300.156 -6.59277L251.994 41.5677" stroke="#FF5450" stroke-miterlimit="10"/>
<path d="M303.181 -6.59277L255.02 41.5677" stroke="#FF5450" stroke-miterlimit="10"/>
<path d="M306.207 -6.59277L258.047 41.5677" stroke="#FF5450" stroke-miterlimit="10"/>
<path d="M309.234 -6.59277L261.073 41.5677" stroke="#FF5450" stroke-miterlimit="10"/>
<path d="M312.26 -6.59277L264.1 41.5677" stroke="#FF5450" stroke-miterlimit="10"/>
<path d="M315.286 -6.59277L267.126 41.5677" stroke="#FF5450" stroke-miterlimit="10"/>
<path d="M318.313 -6.59277L270.152 41.5677" stroke="#FF5450" stroke-miterlimit="10"/>
<path d="M321.337 -6.59277L273.177 41.5677" stroke="#FF5450" stroke-miterlimit="10"/>
<path d="M324.364 -6.59277L276.203 41.5677" stroke="#FF5450" stroke-miterlimit="10"/>
<path d="M327.39 -6.59277L279.23 41.5677" stroke="#FF5450" stroke-miterlimit="10"/>
<path d="M330.417 -6.59277L282.256 41.5677" stroke="#FF5450" stroke-miterlimit="10"/>
<path d="M333.443 -6.59277L285.283 41.5677" stroke="#FF5450" stroke-miterlimit="10"/>
</g>
<path d="M284.034 4.88379H258.207V30.7106H284.034V4.88379Z" fill="#38869C"/>
<path d="M279.104 9.81348H263.139V25.7785H279.104V9.81348Z" fill="#FFE562"/>
<path d="M274.183 14.7363H268.059V20.8602H274.183V14.7363Z" fill="#FF5450"/>
</svg>
