<svg width="1440" height="590" viewBox="0 0 1272 590" fill="none" xmlns="http://www.w3.org/2000/svg">
<path d="M0.0124817 110L264 110V1.99999L0.0124817 1.99999V110Z" fill="#38869C"/>
<path d="M219.998 110H175.996L197.997 74.4954L219.998 38.9909L241.999 74.4954L263.988 110H219.998Z" fill="#4BB462"/>
<path d="M131.994 110H88.0043L109.993 74.4954L131.994 38.9909L153.995 74.4954L175.996 110H131.994Z" fill="#4BB462"/>
<path d="M44.0021 110H0L22.0011 74.4954L44.0021 38.9909L66.0031 74.4954L88.0041 110H44.0021Z" fill="#4BB462"/>
<path d="M44.002 110H26.3171L35.1595 95.7334L44.002 81.4671L52.8445 95.7334L61.6746 110H44.002Z" fill="#FF5450"/>
<path d="M131.994 110H114.321L123.151 95.7334L131.994 81.4671L140.836 95.7334L149.679 110H131.994Z" fill="#FF5450"/>
<path d="M219.998 110H202.313L211.155 95.7334L219.998 81.4671L228.84 95.7334L237.67 110H219.998Z" fill="#FF5450"/>
<path d="M263.988 10.6195H0V15.2405H263.988V10.6195Z" fill="#FFE562"/>
<path d="M263.988 22.9845H0V27.6055H263.988V22.9845Z" fill="#FFE562"/>
<mask id="mask0" mask-type="alpha" maskUnits="userSpaceOnUse" x="1142" y="475" width="108" height="108">
<path d="M1196.28 582.307C1225.85 582.307 1249.83 558.329 1249.83 528.751C1249.83 499.173 1225.85 475.196 1196.28 475.196C1166.7 475.196 1142.72 499.173 1142.72 528.751C1142.72 558.329 1166.7 582.307 1196.28 582.307Z" fill="#EF9020"/>
</mask>
<g mask="url(#mask0)">
<path d="M1241.29 601.449L1389.51 453.224" stroke="#FF5450" stroke-miterlimit="10"/>
<path d="M1231.98 601.449L1380.2 453.224" stroke="#FF5450" stroke-miterlimit="10"/>
<path d="M1222.67 601.449L1370.89 453.224" stroke="#FF5450" stroke-miterlimit="10"/>
<path d="M1213.34 601.449L1361.58 453.224" stroke="#FF5450" stroke-miterlimit="10"/>
<path d="M1204.03 601.449L1352.26 453.224" stroke="#FF5450" stroke-miterlimit="10"/>
<path d="M1194.72 601.449L1342.95 453.224" stroke="#FF5450" stroke-miterlimit="10"/>
<path d="M1185.41 601.449L1333.64 453.224" stroke="#FF5450" stroke-miterlimit="10"/>
<path d="M1176.09 601.449L1324.33 453.224" stroke="#FF5450" stroke-miterlimit="10"/>
<path d="M1166.78 601.449L1315 453.224" stroke="#FF5450" stroke-miterlimit="10"/>
<path d="M1157.47 601.449L1305.69 453.224" stroke="#FF5450" stroke-miterlimit="10"/>
<path d="M1148.16 601.449L1296.38 453.224" stroke="#FF5450" stroke-miterlimit="10"/>
<path d="M1138.85 601.449L1287.07 453.224" stroke="#FF5450" stroke-miterlimit="10"/>
<path d="M1129.52 601.449L1277.75 453.224" stroke="#FF5450" stroke-miterlimit="10"/>
<path d="M1120.21 601.449L1268.44 453.224" stroke="#FF5450" stroke-miterlimit="10"/>
<path d="M1110.9 601.449L1259.13 453.224" stroke="#FF5450" stroke-miterlimit="10"/>
<path d="M1101.59 601.449L1249.82 453.224" stroke="#FF5450" stroke-miterlimit="10"/>
<path d="M1092.27 601.449L1240.51 453.224" stroke="#FF5450" stroke-miterlimit="10"/>
<path d="M1082.96 601.449L1231.18 453.224" stroke="#FF5450" stroke-miterlimit="10"/>
<path d="M1073.65 601.449L1221.87 453.224" stroke="#FF5450" stroke-miterlimit="10"/>
<path d="M1064.34 601.449L1212.56 453.224" stroke="#FF5450" stroke-miterlimit="10"/>
<path d="M1055.01 601.449L1203.25 453.224" stroke="#FF5450" stroke-miterlimit="10"/>
<path d="M1045.7 601.449L1193.93 453.224" stroke="#FF5450" stroke-miterlimit="10"/>
<path d="M1036.39 601.449L1184.62 453.224" stroke="#FF5450" stroke-miterlimit="10"/>
<path d="M1027.08 601.449L1175.31 453.224" stroke="#FF5450" stroke-miterlimit="10"/>
<path d="M1017.76 601.449L1166 453.224" stroke="#FF5450" stroke-miterlimit="10"/>
</g>
<path d="M1170.86 468H1134V504.871C1136.98 496.351 1141.84 488.613 1148.22 482.229C1154.6 475.846 1162.34 470.983 1170.86 468Z" fill="#38869C"/>
<path d="M1255.42 504.871V468H1218.56C1227.08 470.983 1234.82 475.846 1241.2 482.229C1247.58 488.613 1252.44 496.351 1255.42 504.871Z" fill="#38869C"/>
<path d="M1134 552.563V589.42H1170.86C1162.34 586.44 1154.6 581.58 1148.22 575.199C1141.84 568.818 1136.98 561.081 1134 552.563Z" fill="#38869C"/>
<path d="M1218.56 589.42H1255.42V552.563C1252.44 561.081 1247.58 568.818 1241.2 575.199C1234.82 581.58 1227.08 586.44 1218.56 589.42Z" fill="#38869C"/>
<mask id="mask1" mask-type="alpha" maskUnits="userSpaceOnUse" x="1130" y="0" width="142" height="142">
<path d="M1272 0H1130V142H1272V0Z" fill="#5081A2"/>
</mask>
<g mask="url(#mask1)">
<path d="M1145.38 -26.748L949.985 168.646" stroke="#FF5450" stroke-miterlimit="10"/>
<path d="M1157.66 -26.748L962.264 168.646" stroke="#FF5450" stroke-miterlimit="10"/>
<path d="M1169.93 -26.748L974.533 168.646" stroke="#FF5450" stroke-miterlimit="10"/>
<path d="M1182.21 -26.748L986.812 168.646" stroke="#FF5450" stroke-miterlimit="10"/>
<path d="M1194.48 -26.748L999.091 168.646" stroke="#FF5450" stroke-miterlimit="10"/>
<path d="M1206.76 -26.748L1011.37 168.646" stroke="#FF5450" stroke-miterlimit="10"/>
<path d="M1219.04 -26.748L1023.65 168.646" stroke="#FF5450" stroke-miterlimit="10"/>
<path d="M1231.32 -26.748L1035.93 168.646" stroke="#FF5450" stroke-miterlimit="10"/>
<path d="M1243.6 -26.748L1048.2 168.646" stroke="#FF5450" stroke-miterlimit="10"/>
<path d="M1255.87 -26.748L1060.48 168.646" stroke="#FF5450" stroke-miterlimit="10"/>
<path d="M1268.15 -26.748L1072.75 168.646" stroke="#FF5450" stroke-miterlimit="10"/>
<path d="M1280.43 -26.748L1085.03 168.646" stroke="#FF5450" stroke-miterlimit="10"/>
<path d="M1292.71 -26.748L1097.31 168.646" stroke="#FF5450" stroke-miterlimit="10"/>
<path d="M1304.98 -26.748L1109.59 168.646" stroke="#FF5450" stroke-miterlimit="10"/>
<path d="M1317.26 -26.748L1121.86 168.646" stroke="#FF5450" stroke-miterlimit="10"/>
<path d="M1329.53 -26.748L1134.14 168.646" stroke="#FF5450" stroke-miterlimit="10"/>
<path d="M1341.81 -26.748L1146.42 168.646" stroke="#FF5450" stroke-miterlimit="10"/>
<path d="M1354.09 -26.748L1158.7 168.646" stroke="#FF5450" stroke-miterlimit="10"/>
<path d="M1366.37 -26.748L1170.98 168.646" stroke="#FF5450" stroke-miterlimit="10"/>
<path d="M1378.65 -26.748L1183.25 168.646" stroke="#FF5450" stroke-miterlimit="10"/>
<path d="M1390.93 -26.748L1195.53 168.646" stroke="#FF5450" stroke-miterlimit="10"/>
<path d="M1403.2 -26.748L1207.8 168.646" stroke="#FF5450" stroke-miterlimit="10"/>
<path d="M1415.48 -26.748L1220.08 168.646" stroke="#FF5450" stroke-miterlimit="10"/>
<path d="M1427.75 -26.748L1232.36 168.646" stroke="#FF5450" stroke-miterlimit="10"/>
<path d="M1440.03 -26.748L1244.64 168.646" stroke="#FF5450" stroke-miterlimit="10"/>
<path d="M1452.31 -26.748L1256.92 168.646" stroke="#FF5450" stroke-miterlimit="10"/>
</g>
<path d="M1251.85 19.8151H1147.07V124.598H1251.85V19.8151Z" fill="#38869C"/>
<path d="M1231.85 39.8156H1167.08V104.588H1231.85V39.8156Z" fill="#FFE562"/>
<path d="M1211.89 59.7885H1187.04V84.6338H1211.89V59.7885Z" fill="#FF5450"/>
</svg>
