<svg width="1302" height="944" viewBox="0 0 1302 944" fill="none" xmlns="http://www.w3.org/2000/svg">
<path d="M146.232 355.17H2V226.997H146.232V355.17Z" fill="#FFE562"/>
<path d="M146.232 229.964H2.40808V0.170044H146.232V229.964Z" fill="#4BB462"/>
<path d="M74.32 72.0469H2.40808V0.169991H74.32V72.0469Z" fill="#FFE562"/>
<mask id="mask0" mask-type="alpha" maskUnits="userSpaceOnUse" x="2" y="72" width="144" height="52">
<path d="M2.94872 72.4551L145.773 72.4551V123.439L2.94872 123.439V72.4551Z" fill="#5081A2"/>
</mask>
<g mask="url(#mask0)">
<path d="M25.0661 133.248L-152.852 -44.5836" stroke="#FF5450" stroke-miterlimit="10"/>
<path d="M36.2471 133.248L-141.671 -44.5832" stroke="#FF5450" stroke-miterlimit="10"/>
<path d="M47.4281 133.248L-130.49 -44.5832" stroke="#FF5450" stroke-miterlimit="10"/>
<path d="M58.6094 133.248L-119.308 -44.5832" stroke="#FF5450" stroke-miterlimit="10"/>
<path d="M69.7904 133.248L-108.138 -44.5832" stroke="#FF5450" stroke-miterlimit="10"/>
<path d="M80.9614 133.248L-96.9565 -44.5832" stroke="#FF5450" stroke-miterlimit="10"/>
<path d="M92.1424 133.248L-85.7755 -44.5832" stroke="#FF5450" stroke-miterlimit="10"/>
<path d="M103.323 133.248L-74.5945 -44.5832" stroke="#FF5450" stroke-miterlimit="10"/>
<path d="M114.504 133.248L-63.4135 -44.5832" stroke="#FF5450" stroke-miterlimit="10"/>
<path d="M125.686 133.248L-52.2323 -44.5832" stroke="#FF5450" stroke-miterlimit="10"/>
<path d="M136.867 133.248L-41.0614 -44.5832" stroke="#FF5450" stroke-miterlimit="10"/>
<path d="M148.038 133.248L-29.8804 -44.5832" stroke="#FF5450" stroke-miterlimit="10"/>
<path d="M159.219 133.248L-18.6992 -44.5832" stroke="#FF5450" stroke-miterlimit="10"/>
<path d="M170.4 133.248L-7.51819 -44.5832" stroke="#FF5450" stroke-miterlimit="10"/>
<path d="M181.581 133.248L3.66284 -44.5832" stroke="#FF5450" stroke-miterlimit="10"/>
<path d="M192.762 133.248L14.8439 -44.5832" stroke="#FF5450" stroke-miterlimit="10"/>
<path d="M203.943 133.248L26.0148 -44.5832" stroke="#FF5450" stroke-miterlimit="10"/>
<path d="M215.114 133.248L37.1958 -44.5832" stroke="#FF5450" stroke-miterlimit="10"/>
<path d="M226.295 133.248L48.377 -44.5832" stroke="#FF5450" stroke-miterlimit="10"/>
<path d="M237.476 133.248L59.5581 -44.5832" stroke="#FF5450" stroke-miterlimit="10"/>
<path d="M248.657 133.248L70.7391 -44.5832" stroke="#FF5450" stroke-miterlimit="10"/>
<path d="M259.838 133.248L81.9202 -44.5832" stroke="#FF5450" stroke-miterlimit="10"/>
<path d="M271.019 133.248L93.0911 -44.5832" stroke="#FF5450" stroke-miterlimit="10"/>
<path d="M282.19 133.248L104.272 -44.5832" stroke="#FF5450" stroke-miterlimit="10"/>
<path d="M293.371 133.248L115.453 -44.5832" stroke="#FF5450" stroke-miterlimit="10"/>
<path d="M304.552 133.248L126.634 -44.5832" stroke="#FF5450" stroke-miterlimit="10"/>
</g>
<path d="M146.232 72.0469H74.3199V0.169991H146.232V72.0469Z" fill="#FF5450"/>
<path d="M74.32 158.087C114.036 158.087 146.232 190.267 146.232 229.964C146.232 269.66 114.036 301.841 74.32 301.841C34.6041 301.841 2.40808 269.66 2.40808 229.964C2.40808 190.267 34.6041 158.087 74.32 158.087Z" fill="#FF5450"/>
<path d="M74.5 131H116L95.2529 154.998L74.5 179L53.7471 154.998L33 131H74.5Z" fill="#38869C"/>
<path d="M75 215H85L80.0007 221L75 227L69.9993 221L65 215H75Z" fill="#154E60"/>
<path d="M75 215H85L80.0007 209L75 203L69.9993 209L65 215H75Z" fill="#154E60"/>
<path d="M38.4764 154.265L47.4867 165.531L31.7501 168.883L16.0104 172.234L22.7385 157.616L29.4661 143L38.4764 154.265Z" fill="#154E60"/>
<path d="M110.404 153.679L119.809 143L125.755 157.716L131.701 172.434L116.349 168.396L101 164.358L110.404 153.679Z" fill="#154E60"/>
<circle cx="109" cy="197" r="24" fill="#FFE562"/>
<circle cx="41" cy="197" r="24" fill="#FFE562"/>
<path d="M74.32 72.0469C55.2477 72.0469 36.9567 64.4742 23.4706 50.9946C9.98449 37.5151 2.40808 19.2329 2.40808 0.169991H146.252C146.252 9.61071 144.392 18.959 140.776 27.6808C137.161 36.4026 131.862 44.3272 125.183 51.0019C118.503 57.6765 110.573 62.9705 101.846 66.5814C93.1186 70.1924 83.7653 72.0496 74.32 72.0469Z" fill="#38869C"/>
<path d="M74.32 355.17H146.64L110.485 292.572L74.32 229.964L38.1549 292.572L2 355.17H74.32Z" fill="#4BB462"/>
<path d="M110.271 292.205C99.3419 298.517 86.9423 301.841 74.3199 301.841C61.6974 301.841 49.2978 298.517 38.369 292.205L74.3199 230.005L110.271 292.205Z" fill="#FFE562"/>
<path d="M153.414 114.629H206.126V165.133H153.414V114.629Z" fill="#38869C"/>
<path d="M213.288 114.629H266V165.133H213.288V114.629Z" fill="#FFE562"/>
<path d="M153.414 57.3943L206.126 57.3943V107.899H153.414V57.3943Z" fill="#38869C"/>
<path d="M213.288 57.3943L266 57.3943V107.899H213.288V57.3943Z" fill="#FF5450"/>
<path d="M153.414 0.169922L206.126 0.169922V50.6744L153.414 50.6744V0.169922Z" fill="#38869C"/>
<path d="M213.288 0.169922L266 0.169922V50.6744L213.288 50.6744V0.169922Z" fill="#4BB462"/>
<path d="M1257 113.171H1205.5V162.666H1257V113.171Z" fill="#38869C"/>
<path d="M1198.5 57.0802H1147V106.575H1198.5V57.0802Z" fill="#FF5450"/>
<path d="M1257 1H1205.5V50.495H1257V1Z" fill="#38869C"/>
<path d="M1198.5 1H1147V50.495H1198.5V1Z" fill="#FFE562"/>
<path d="M1257 180.583V284H1153.85L1257 180.583Z" fill="#FF5450"/>
<path d="M1231.25 106.575C1244.88 106.575 1255.93 95.4976 1255.93 81.8327C1255.93 68.1678 1244.88 57.0902 1231.25 57.0902C1217.62 57.0902 1206.58 68.1678 1206.58 81.8327C1206.58 95.4976 1217.62 106.575 1231.25 106.575Z" fill="#38869C"/>
<path d="M1172.76 163.085C1186.39 163.085 1197.43 152.008 1197.43 138.343C1197.43 124.678 1186.39 113.6 1172.76 113.6C1159.13 113.6 1148.08 124.678 1148.08 138.343C1148.08 152.008 1159.13 163.085 1172.76 163.085Z" fill="#4BB462"/>
<path d="M1186.47 180.583H1153.85V213.29H1186.47V180.583Z" fill="#38869C"/>
<path d="M314 943H0" stroke="#38869C" stroke-miterlimit="10"/>
<path d="M314 920.2H0" stroke="#38869C" stroke-miterlimit="10"/>
<path d="M314 897.4H0" stroke="#38869C" stroke-miterlimit="10"/>
<path d="M314 874.6H0" stroke="#38869C" stroke-miterlimit="10"/>
<path d="M314 851.8H0" stroke="#38869C" stroke-miterlimit="10"/>
<path d="M314 829H0" stroke="#38869C" stroke-miterlimit="10"/>
<path d="M314 806.2H0" stroke="#38869C" stroke-miterlimit="10"/>
<path d="M314 783.4H0" stroke="#38869C" stroke-miterlimit="10"/>
<path d="M314 760.6H0" stroke="#38869C" stroke-miterlimit="10"/>
<path d="M314 737.8H0" stroke="#38869C" stroke-miterlimit="10"/>
<path d="M314 715H0" stroke="#38869C" stroke-miterlimit="10"/>
<path d="M314 692.2H0" stroke="#38869C" stroke-miterlimit="10"/>
<path d="M314 669.4H0" stroke="#38869C" stroke-miterlimit="10"/>
<path d="M314 646.6H0" stroke="#38869C" stroke-miterlimit="10"/>
<path d="M314 623.8H0" stroke="#38869C" stroke-miterlimit="10"/>
<path d="M314 601H0" stroke="#38869C" stroke-miterlimit="10"/>
<path d="M1254.71 897.47L1254.71 812.667L1169.83 812.667L1169.83 897.47L1254.71 897.47Z" fill="#FF5450"/>
<mask id="mask1" mask-type="alpha" maskUnits="userSpaceOnUse" x="1010" y="859" width="215" height="85">
<path d="M1224.56 944L1224.56 859.151L1010.73 859.151L1010.73 944L1224.56 944Z" fill="#DD4327"/>
</mask>
<g mask="url(#mask1)">
<path d="M970.038 935.848L1236.06 1201.62" stroke="#FF5450" stroke-miterlimit="10"/>
<path d="M970.038 919.151L1236.06 1184.91" stroke="#FF5450" stroke-miterlimit="10"/>
<path d="M970.038 902.454L1236.06 1168.21" stroke="#FF5450" stroke-miterlimit="10"/>
<path d="M970.038 885.757L1236.06 1151.51" stroke="#FF5450" stroke-miterlimit="10"/>
<path d="M970.038 869.061L1236.06 1134.82" stroke="#FF5450" stroke-miterlimit="10"/>
<path d="M970.038 852.348L1236.06 1118.12" stroke="#FF5450" stroke-miterlimit="10"/>
<path d="M970.038 835.651L1236.06 1101.42" stroke="#FF5450" stroke-miterlimit="10"/>
<path d="M970.038 818.954L1236.06 1084.73" stroke="#FF5450" stroke-miterlimit="10"/>
<path d="M970.038 802.257L1236.06 1068.03" stroke="#FF5450" stroke-miterlimit="10"/>
<path d="M970.038 785.56L1236.06 1051.32" stroke="#FF5450" stroke-miterlimit="10"/>
<path d="M970.038 768.863L1236.06 1034.62" stroke="#FF5450" stroke-miterlimit="10"/>
<path d="M970.038 752.166L1236.06 1017.92" stroke="#FF5450" stroke-miterlimit="10"/>
<path d="M970.038 735.469L1236.06 1001.23" stroke="#FF5450" stroke-miterlimit="10"/>
<path d="M970.038 718.757L1236.06 984.53" stroke="#FF5450" stroke-miterlimit="10"/>
<path d="M970.038 702.061L1236.06 967.833" stroke="#FF5450" stroke-miterlimit="10"/>
<path d="M970.038 685.364L1236.06 951.136" stroke="#FF5450" stroke-miterlimit="10"/>
<path d="M970.038 668.666L1236.06 934.439" stroke="#FF5450" stroke-miterlimit="10"/>
<path d="M970.038 651.969L1236.06 917.727" stroke="#FF5450" stroke-miterlimit="10"/>
<path d="M970.038 635.272L1236.06 901.03" stroke="#FF5450" stroke-miterlimit="10"/>
<path d="M970.038 618.576L1236.06 884.333" stroke="#FF5450" stroke-miterlimit="10"/>
</g>
<path d="M1155.82 813.379C1155.82 821.797 1162.65 828.621 1171.07 828.621C1179.5 828.621 1186.33 821.797 1186.33 813.379C1186.33 804.96 1179.5 798.136 1171.07 798.136C1162.65 798.136 1155.82 804.96 1155.82 813.379Z" stroke="#FFE562" stroke-miterlimit="10"/>
<path d="M1155.82 762.318C1155.82 770.736 1162.65 777.561 1171.07 777.561C1179.5 777.561 1186.33 770.736 1186.33 762.318C1186.33 753.9 1179.5 747.076 1171.07 747.076C1162.65 747.076 1155.82 753.9 1155.82 762.318Z" fill="#FF5450"/>
<path d="M1155.82 711.242C1155.82 719.661 1162.65 726.485 1171.07 726.485C1179.5 726.485 1186.33 719.661 1186.33 711.242C1186.33 702.824 1179.5 696 1171.07 696C1162.65 696 1155.82 702.824 1155.82 711.242Z" fill="#38869C"/>
<path d="M1213.52 813.379C1213.52 821.797 1220.35 828.621 1228.78 828.621C1237.21 828.621 1244.04 821.797 1244.04 813.379C1244.04 804.96 1237.21 798.136 1228.78 798.136C1220.35 798.136 1213.52 804.96 1213.52 813.379Z" stroke="#FFE562" stroke-miterlimit="10"/>
<path d="M1213.52 762.318C1213.52 770.736 1220.35 777.561 1228.78 777.561C1237.21 777.561 1244.04 770.736 1244.04 762.318C1244.04 753.9 1237.21 747.076 1228.78 747.076C1220.35 747.076 1213.52 753.9 1213.52 762.318Z" fill="#FF5450"/>
<path d="M1213.52 711.242C1213.52 719.661 1220.35 726.485 1228.78 726.485C1237.21 726.485 1244.04 719.661 1244.04 711.242C1244.04 702.824 1237.21 696 1228.78 696C1220.35 696 1213.52 702.824 1213.52 711.242Z" fill="#38869C"/>
<path d="M1271.21 813.379C1271.21 821.797 1278.04 828.621 1286.47 828.621C1294.9 828.621 1301.73 821.797 1301.73 813.379C1301.73 804.96 1294.9 798.136 1286.47 798.136C1278.04 798.136 1271.21 804.96 1271.21 813.379Z" fill="#FFE562"/>
<path d="M1271.21 762.318C1271.21 770.736 1278.04 777.561 1286.47 777.561C1294.9 777.561 1301.73 770.736 1301.73 762.318C1301.73 753.9 1294.9 747.076 1286.47 747.076C1278.04 747.076 1271.21 753.9 1271.21 762.318Z" fill="#FF5450"/>
<path d="M1271.21 711.242C1271.21 719.661 1278.04 726.485 1286.47 726.485C1294.9 726.485 1301.73 719.661 1301.73 711.242C1301.73 702.824 1294.9 696 1286.47 696C1278.04 696 1271.21 702.824 1271.21 711.242Z" fill="#38869C"/>
</svg>
