<svg width="22" height="22" viewBox="0 0 22 22" fill="none" xmlns="http://www.w3.org/2000/svg">
<g filter="url(#filter0_d)">
<path d="M6.82902 0.541992C3.50643 0.541992 0.776123 3.26856 0.776123 6.59489V15.074C0.776123 18.3966 3.50269 21.1269 6.82902 21.1269H15.3081C18.6307 21.1269 21.361 18.4003 21.361 15.074V6.59583C21.361 3.2723 18.6345 0.541992 15.3081 0.541992H6.82902ZM6.82902 2.41335H15.3081C15.8575 2.41261 16.4015 2.52026 16.9092 2.73014C17.4169 2.94002 17.8781 3.24801 18.2666 3.63644C18.655 4.02488 18.963 4.48615 19.1729 4.99381C19.3828 5.50147 19.4904 6.04555 19.4897 6.59489V15.074C19.4904 15.6233 19.3828 16.1674 19.1729 16.6751C18.963 17.1827 18.655 17.644 18.2666 18.0324C17.8781 18.4209 17.4169 18.7289 16.9092 18.9387C16.4015 19.1486 15.8575 19.2563 15.3081 19.2555H6.82996C6.28054 19.2564 5.73636 19.1488 5.22859 18.939C4.72082 18.7292 4.25944 18.4212 3.87091 18.0328C3.48237 17.6443 3.1743 17.183 2.96436 16.6753C2.75442 16.1676 2.64674 15.6234 2.64748 15.074V6.59583C2.64662 6.04641 2.75418 5.50223 2.964 4.99446C3.17383 4.48669 3.48179 4.02531 3.87024 3.63677C4.2587 3.24824 4.72 2.94017 5.22772 2.73023C5.73545 2.52029 6.27961 2.41261 6.82902 2.41335ZM16.5947 4.46061C16.4832 4.46011 16.3728 4.4817 16.2697 4.52413C16.1666 4.56656 16.073 4.62898 15.9942 4.7078C15.9153 4.78661 15.8529 4.88026 15.8105 4.98334C15.7681 5.08641 15.7465 5.19687 15.747 5.30833C15.747 5.77991 16.1231 6.15606 16.5947 6.15606C16.7062 6.15668 16.8168 6.13518 16.92 6.09281C17.0232 6.05044 17.1169 5.98803 17.1958 5.9092C17.2747 5.83037 17.3373 5.73668 17.3797 5.63355C17.4222 5.53041 17.4438 5.41988 17.4433 5.30833C17.4438 5.19679 17.4222 5.08626 17.3797 4.98312C17.3373 4.87998 17.2747 4.78629 17.1958 4.70746C17.1169 4.62863 17.0232 4.56623 16.92 4.52386C16.8168 4.48149 16.7062 4.45999 16.5947 4.46061ZM11.0686 5.22038C7.98084 5.22038 5.45451 7.74671 5.45451 10.8344C5.45451 13.9222 7.98084 16.4485 11.0686 16.4485C14.1563 16.4485 16.6826 13.9222 16.6826 10.8344C16.6826 7.74671 14.1563 5.22038 11.0686 5.22038ZM11.0686 7.09173C13.1486 7.09173 14.8113 8.75443 14.8113 10.8344C14.8113 12.9145 13.1486 14.5772 11.0686 14.5772C8.98856 14.5772 7.32587 12.9145 7.32587 10.8344C7.32587 8.75443 8.98856 7.09173 11.0686 7.09173Z" fill="#38869C"/>
</g>
<defs>
<filter id="filter0_d" x="0.776123" y="0.541992" width="20.5849" height="21.0849" filterUnits="userSpaceOnUse" color-interpolation-filters="sRGB">
<feFlood flood-opacity="0" result="BackgroundImageFix"/>
<feColorMatrix in="SourceAlpha" type="matrix" values="0 0 0 0 0 0 0 0 0 0 0 0 0 0 0 0 0 0 127 0"/>
<feOffset dy="0.5"/>
<feColorMatrix type="matrix" values="0 0 0 0 1 0 0 0 0 0.898039 0 0 0 0 0.384314 0 0 0 1 0"/>
<feBlend mode="normal" in2="BackgroundImageFix" result="effect1_dropShadow"/>
<feBlend mode="normal" in="SourceGraphic" in2="effect1_dropShadow" result="shape"/>
</filter>
</defs>
</svg>
