<svg width="31" height="30" viewBox="0 0 31 30" fill="none" xmlns="http://www.w3.org/2000/svg">
<path d="M9.76304 0.0185547C4.92654 0.0185547 0.952187 3.98746 0.952187 8.82941V21.172C0.952187 26.0085 4.92109 29.9828 9.76304 29.9828H22.1056C26.9421 29.9828 30.9165 26.0139 30.9165 21.172V8.83078C30.9165 3.99291 26.9476 0.0185547 22.1056 0.0185547H9.76304ZM9.76304 2.74258H22.1056C22.9052 2.7415 23.6972 2.89821 24.4362 3.20372C25.1752 3.50923 25.8466 3.95754 26.412 4.52297C26.9775 5.0884 27.4258 5.75984 27.7313 6.49881C28.0368 7.23778 28.1935 8.02978 28.1924 8.82941V21.172C28.1935 21.9716 28.0368 22.7636 27.7313 23.5026C27.4258 24.2415 26.9775 24.913 26.412 25.4784C25.8466 26.0438 25.1752 26.4921 24.4362 26.7977C23.6972 27.1032 22.9052 27.2599 22.1056 27.2588H9.76441C8.96466 27.2601 8.17252 27.1035 7.43339 26.7981C6.69425 26.4926 6.02266 26.0443 5.45709 25.4789C4.89151 24.9134 4.44308 24.242 4.13748 23.5029C3.83189 22.7638 3.67514 21.9717 3.67621 21.172V8.83078C3.67496 8.03102 3.83153 7.23889 4.13696 6.49975C4.44239 5.76062 4.89067 5.08903 5.45612 4.52345C6.02157 3.95788 6.69306 3.50945 7.43213 3.20385C8.17119 2.89825 8.96329 2.7415 9.76304 2.74258ZM23.9784 5.72266C23.8161 5.72194 23.6553 5.75337 23.5053 5.81513C23.3553 5.87688 23.2189 5.96775 23.1042 6.08248C22.9895 6.19721 22.8986 6.33353 22.8368 6.48357C22.7751 6.63361 22.7437 6.79439 22.7444 6.95665C22.7444 7.6431 23.2919 8.19063 23.9784 8.19063C24.1407 8.19153 24.3017 8.16024 24.4519 8.09856C24.6021 8.03688 24.7385 7.94604 24.8534 7.8313C24.9683 7.71655 25.0593 7.58017 25.1211 7.43004C25.183 7.27991 25.2144 7.11901 25.2137 6.95665C25.2144 6.79428 25.183 6.63338 25.1211 6.48325C25.0593 6.33312 24.9683 6.19674 24.8534 6.08199C24.7385 5.96725 24.6021 5.87641 24.4519 5.81473C24.3017 5.75305 24.1407 5.72176 23.9784 5.72266ZM15.9343 6.82862C11.4397 6.82862 7.76225 10.5061 7.76225 15.0007C7.76225 19.4953 11.4397 23.1728 15.9343 23.1728C20.429 23.1728 24.1064 19.4953 24.1064 15.0007C24.1064 10.5061 20.429 6.82862 15.9343 6.82862ZM15.9343 9.55264C18.9621 9.55264 21.3824 11.9729 21.3824 15.0007C21.3824 18.0284 18.9621 20.4487 15.9343 20.4487C12.9066 20.4487 10.4863 18.0284 10.4863 15.0007C10.4863 11.9729 12.9066 9.55264 15.9343 9.55264Z" fill="#38869C"/>
</svg>
