<svg width="30" height="19" viewBox="0 0 30 19" fill="none" xmlns="http://www.w3.org/2000/svg">
<path d="M27.4805 0H2.51953C1.81641 0 1.2207 0.202047 0.732422 0.606142C0.244141 1.01024 0 1.50323 0 2.08513V16.5356C0 17.1175 0.244141 17.6105 0.732422 18.0145C1.2207 18.4186 1.81641 18.6207 2.51953 18.6207H27.4805C28.1836 18.6207 28.7793 18.4186 29.2676 18.0145C29.7559 17.6105 30 17.1175 30 16.5356V2.08513C30 1.50323 29.7559 1.01024 29.2676 0.606142C28.7793 0.202047 28.1836 0 27.4805 0ZM2.51953 16.5356V2.08513H27.4805V16.5356H2.51953ZM22.5 9.31034H15C14.1797 9.31034 13.7695 9.64978 13.7695 10.3287C13.7695 11.0399 14.1797 11.3955 15 11.3955H22.5C23.3203 11.3955 23.7305 11.0399 23.7305 10.3287C23.7305 9.64978 23.3203 9.31034 22.5 9.31034ZM18.75 12.4138H15C14.1797 12.4138 13.7695 12.7532 13.7695 13.4321C13.7695 14.1433 14.1797 14.4989 15 14.4989H18.75C19.5703 14.4989 19.9805 14.1433 19.9805 13.4321C19.9805 12.7532 19.5703 12.4138 18.75 12.4138ZM25.0195 3.10345H22.5C21.6797 3.10345 21.2695 3.44289 21.2695 4.12177V7.22522C21.2695 7.93642 21.6797 8.29203 22.5 8.29203H25.0195C25.3711 8.29203 25.6641 8.19504 25.8984 8.00108C26.1328 7.80711 26.25 7.54849 26.25 7.22522V4.12177C26.25 3.83082 26.1328 3.58836 25.8984 3.3944C25.6641 3.20043 25.3711 3.10345 25.0195 3.10345Z" fill="#F49402"/>
</svg>
