<svg width="17" height="10" viewBox="0 0 17 10" fill="none" xmlns="http://www.w3.org/2000/svg">
<path d="M14.758 0H1.35308C0.975477 0 0.655563 0.108507 0.393338 0.325521C0.131113 0.542535 0 0.807292 0 1.11979V8.88021C0 9.19271 0.131113 9.45747 0.393338 9.67448C0.655563 9.89149 0.975477 10 1.35308 10H14.758C15.1356 10 15.4555 9.89149 15.7178 9.67448C15.98 9.45747 16.1111 9.19271 16.1111 8.88021V1.11979C16.1111 0.807292 15.98 0.542535 15.7178 0.325521C15.4555 0.108507 15.1356 0 14.758 0ZM1.35308 8.88021V1.11979H14.758V8.88021H1.35308ZM12.0833 5H8.05556C7.61502 5 7.39475 5.18229 7.39475 5.54688C7.39475 5.92882 7.61502 6.11979 8.05556 6.11979H12.0833C12.5239 6.11979 12.7441 5.92882 12.7441 5.54688C12.7441 5.18229 12.5239 5 12.0833 5ZM10.0694 6.66667H8.05556C7.61502 6.66667 7.39475 6.84896 7.39475 7.21354C7.39475 7.59549 7.61502 7.78646 8.05556 7.78646H10.0694C10.51 7.78646 10.7303 7.59549 10.7303 7.21354C10.7303 6.84896 10.51 6.66667 10.0694 6.66667ZM13.4364 1.66667H12.0833C11.6428 1.66667 11.4225 1.84896 11.4225 2.21354V3.88021C11.4225 4.26215 11.6428 4.45312 12.0833 4.45312H13.4364C13.6252 4.45312 13.7826 4.40104 13.9084 4.29688C14.0343 4.19271 14.0972 4.05382 14.0972 3.88021V2.21354C14.0972 2.05729 14.0343 1.92708 13.9084 1.82292C13.7826 1.71875 13.6252 1.66667 13.4364 1.66667Z" fill="#F49402"/>
</svg>
