<svg width="26" height="32" viewBox="0 0 26 32" fill="none" xmlns="http://www.w3.org/2000/svg">
<path d="M0.783926 11.4204C0.783926 10.0462 1.02415 8.7479 1.49753 7.53618C1.94982 6.35926 2.62178 5.27908 3.47762 4.3532C4.33172 3.43948 5.3091 2.64937 6.38151 2.00571C7.4818 1.34007 8.67301 0.837881 9.91776 0.514908C11.1775 0.184107 12.4748 0.0172805 13.7773 0.018562C15.7891 0.018562 17.6615 0.444254 19.3978 1.29211C21.1115 2.1245 22.5701 3.40192 23.6212 4.99086C24.7057 6.60707 25.2444 8.43525 25.2444 10.4736C25.2444 11.6959 25.1243 12.8918 24.8788 14.0611C24.6377 15.2298 24.2545 16.3646 23.7377 17.4401C23.2452 18.4813 22.6011 19.4438 21.8265 20.2963C21.0481 21.1353 20.1053 21.8051 19.0569 22.2641C17.9187 22.7629 16.6874 23.014 15.4447 23.0006C14.5809 23.0006 13.719 22.7975 12.8676 22.3895C12.0162 21.9832 11.405 21.425 11.0376 20.7097C10.9087 21.206 10.7321 21.9232 10.4971 22.8611C10.271 23.7973 10.1191 24.4014 10.052 24.6751C9.98135 24.9472 9.85064 25.4011 9.65987 26.0299C9.5305 26.4951 9.36453 26.9493 9.16353 27.3883L8.5559 28.5788C8.29312 29.0897 7.99936 29.584 7.67625 30.059C7.35654 30.5218 6.96088 31.0747 6.48926 31.7105L6.22607 31.8042L6.0512 31.6134C5.8622 29.6121 5.76505 28.4145 5.76505 28.0189C5.76505 26.8478 5.9046 25.5336 6.18015 24.0746C6.4504 22.6173 6.87786 20.7856 7.45193 18.583C8.02599 16.3821 8.35453 15.0874 8.44285 14.7041C8.03836 13.8792 7.83346 12.8017 7.83346 11.4769C7.83346 10.4189 8.16377 9.42795 8.82615 8.49531C9.4903 7.56621 10.3293 7.10166 11.3467 7.10166C12.1257 7.10166 12.7298 7.35954 13.1626 7.87709C13.5971 8.39286 13.809 9.04288 13.809 9.83598C13.809 10.6768 13.53 11.8938 12.9683 13.4853C12.4066 15.0785 12.1275 16.2673 12.1275 17.0568C12.1275 17.857 12.4136 18.5265 12.9859 19.0511C13.5507 19.5759 14.2976 19.8604 15.0685 19.8442C15.7679 19.8442 16.4162 19.6852 17.0185 19.3655C17.6114 19.0551 18.1246 18.612 18.5182 18.0707C19.3752 16.8949 19.9862 15.5581 20.3145 14.1406C20.4841 13.3952 20.6148 12.6869 20.6961 12.021C20.7826 11.3515 20.8197 10.7192 20.8197 10.1186C20.8197 7.91595 20.1202 6.19905 18.7301 4.96966C17.3329 3.74028 15.5136 3.12912 13.2756 3.12912C10.7303 3.12912 8.60182 3.95224 6.89729 5.60378C5.19099 7.25003 4.33254 9.34316 4.33254 11.8814C4.33254 12.4414 4.41732 12.9819 4.57806 13.5047C4.73527 14.0258 4.9066 14.4409 5.09207 14.7482C5.27577 15.0503 5.44888 15.3452 5.60608 15.6173C5.76505 15.8893 5.84807 16.0836 5.84807 16.2002C5.84807 16.557 5.75446 17.0215 5.56546 17.5956C5.36939 18.1697 5.138 18.4558 4.85891 18.4558C4.83242 18.4558 4.7229 18.4364 4.53214 18.3957C3.87145 18.1985 3.2748 17.8298 2.80287 17.3271C2.302 16.8061 1.90672 16.1931 1.63884 15.5219C1.37173 14.8531 1.16368 14.1621 1.01708 13.457C0.858699 12.7898 0.780426 12.1061 0.783926 11.4204Z" fill="#38869C"/>
</svg>
