<svg width="20" height="20" viewBox="0 0 20 20" fill="none" xmlns="http://www.w3.org/2000/svg">
<path d="M1.17228 15.4581C2.23029 16.3121 3.4853 16.7294 4.64531 16.6357C6.784 16.5051 10.102 15.0117 13.3707 12.5437C17.1301 9.706 19.6848 6.43929 19.9441 4.3876C20.1528 3.03959 19.7821 1.48924 18.8071 0.169559C17.9535 -0.985453 11.2214 4.09693 12.0747 5.25161C12.7297 6.13829 13.5607 6.78863 14.4408 7.17597C13.5497 8.07364 12.5191 8.97732 11.3751 9.842C10.2247 10.71 9.0697 11.4547 7.96102 12.0654C7.84235 11.103 7.46135 10.114 6.807 9.22866C5.953 8.07398 -0.778744 13.1567 0.0745986 14.3114C0.263333 14.5657 0.470801 14.8056 0.695272 15.0291C-0.118404 15.5864 -0.0237358 16.2381 0.0699318 16.5201C0.383269 17.4581 1.79862 18.0848 2.9823 17.8097C3.83931 17.6097 4.74098 17.6674 5.40766 17.9424C5.20065 18.3241 5.09565 18.6958 5.09532 18.9058C5.09532 19.5034 5.40232 19.7694 5.58533 19.8741C5.68866 19.9341 5.80266 19.9724 5.92066 19.9894C6.1556 20.0232 6.39501 19.9754 6.599 19.8541C6.86867 19.6921 7.02601 19.4178 7.02101 19.1208C7.01134 18.5878 6.76334 18.1141 6.303 17.7507C6.3 17.7491 6.29767 17.7464 6.29467 17.7444C6.45433 17.5717 6.64634 17.4251 6.87101 17.3451C7.10721 17.2586 7.36506 17.2509 7.60601 17.3231C7.34568 17.8527 7.23968 18.4591 7.42601 18.9481C7.59101 19.3811 8.03135 19.6164 8.49736 19.5184C8.96536 19.4208 9.2797 19.0274 9.26103 18.5614C9.24003 18.0178 8.94536 17.4711 8.48202 17.0997C8.62736 16.9311 8.78803 16.7991 8.9467 16.7317C9.26403 16.5971 9.56237 16.5994 9.85737 16.7377C9.94937 16.7814 10.0364 16.8354 10.1174 16.8967C10.0302 16.9938 9.95331 17.0997 9.88804 17.2127C9.65404 17.6187 9.60637 18.0778 9.75404 18.5061C9.95537 19.0881 10.443 19.2218 10.81 19.0981C11.2754 18.9428 11.6307 18.3751 11.4201 17.6954C11.3597 17.5014 11.2241 17.2254 11.0224 16.9537L10.9797 16.9074C11.1804 16.7631 11.4651 16.6207 11.8177 16.6164C11.7771 17.0484 11.8264 17.4314 11.9084 17.6247C12.1427 18.1744 12.5291 18.2984 12.7387 18.3238C12.8573 18.3378 12.9774 18.329 13.0927 18.2981C13.3219 18.2366 13.5232 18.0988 13.6634 17.9074C13.8477 17.6524 13.8854 17.3387 13.7637 17.0671C13.5461 16.5811 13.1317 16.2424 12.5657 16.0887L12.5557 16.0861C12.6347 15.8647 12.7541 15.6541 12.9287 15.4924C13.1123 15.3203 13.3464 15.2121 13.5964 15.1837C13.5644 15.7731 13.7051 16.3724 14.0681 16.7487C14.3901 17.0827 14.8874 17.1264 15.2774 16.8534C15.6698 16.5801 15.8044 16.0951 15.6044 15.6737C15.3714 15.1814 14.8864 14.7944 14.3144 14.6347C14.3818 14.4224 14.4781 14.238 14.5974 14.1137C14.8371 13.8657 15.1118 13.7504 15.4378 13.762C15.5398 13.766 15.6408 13.7817 15.7391 13.8057C15.6971 13.9294 15.668 14.0571 15.6521 14.1867C15.5961 14.652 15.7324 15.0931 16.0361 15.4294C16.4494 15.8861 16.9504 15.8177 17.2395 15.5601C17.6068 15.2344 17.7108 14.573 17.2501 14.03C17.1188 13.875 16.8858 13.675 16.5938 13.5044C16.7961 13.2314 17.0848 12.9664 17.4425 12.73C17.5104 12.6846 17.5576 12.6141 17.5737 12.5339C17.5898 12.4538 17.5735 12.3705 17.5285 12.3024C17.5066 12.2684 17.4782 12.2391 17.4449 12.2162C17.4117 12.1933 17.3742 12.1772 17.3347 12.1689C17.2952 12.1605 17.2544 12.16 17.2147 12.1675C17.175 12.175 17.1372 12.1902 17.1035 12.2124C16.6354 12.522 16.2684 12.8737 16.0184 13.2464C15.836 13.1872 15.6464 13.1529 15.4548 13.1447C14.9601 13.1264 14.5108 13.3124 14.1558 13.682C13.9491 13.8964 13.7921 14.2077 13.6971 14.5574C13.2517 14.5707 12.8354 14.7357 12.5117 15.0361C12.2274 15.2991 12.0457 15.6437 11.9377 15.9994C11.3247 15.9814 10.817 16.2804 10.5617 16.4651C10.4259 16.3502 10.276 16.2531 10.1157 16.1761C9.6677 15.9651 9.18136 15.9601 8.70969 16.1604C8.43569 16.2764 8.16902 16.5014 7.94435 16.7857C7.52968 16.6234 7.08167 16.6117 6.66634 16.7614C6.30167 16.8917 5.99933 17.1374 5.76033 17.4221C4.96099 17.0531 3.88431 16.9644 2.84496 17.2061C1.89562 17.4267 0.845274 16.9047 0.650271 16.3217C0.521603 15.9374 0.85394 15.6437 1.17228 15.4581ZM16.2601 14.2667C16.2688 14.1947 16.2848 14.122 16.3071 14.0494C16.5311 14.1837 16.7041 14.3347 16.7848 14.43C17.0338 14.724 16.9461 14.9937 16.8324 15.0951C16.7068 15.2057 16.5758 15.1127 16.4874 15.0151C16.3038 14.8124 16.2258 14.5537 16.2601 14.2667ZM15.0504 15.9367C15.1591 16.1661 14.9648 16.3171 14.9251 16.3451C14.8858 16.3731 14.6798 16.5014 14.5058 16.3211C14.2774 16.0844 14.1891 15.6664 14.2078 15.2467C14.5828 15.3667 14.9038 15.6254 15.0504 15.9367ZM12.4284 16.6904C12.8047 16.7971 13.0657 17.0081 13.2041 17.3177C13.2434 17.4047 13.2051 17.4864 13.1664 17.5401C13.0824 17.6554 12.9341 17.7251 12.8061 17.7101C12.6354 17.6894 12.5297 17.5221 12.4711 17.3844C12.4331 17.2951 12.3994 17.0187 12.4284 16.6904ZM10.4164 17.5237C10.4527 17.4611 10.4957 17.4007 10.545 17.3421C10.6984 17.5537 10.7984 17.7607 10.835 17.8794C10.949 18.2474 10.762 18.4614 10.6177 18.5101C10.459 18.5624 10.375 18.4254 10.332 18.3011C10.2427 18.0434 10.272 17.7744 10.4164 17.5237ZM8.14469 17.6201C8.44236 17.8778 8.63603 18.2414 8.64902 18.5854C8.65903 18.8394 8.42102 18.9014 8.37369 18.9118C8.32635 18.9221 8.08669 18.9594 7.99768 18.7248C7.88035 18.4181 7.96268 17.9991 8.14469 17.6201ZM5.941 18.2504C6.24533 18.4961 6.40267 18.7928 6.40833 19.1321C6.41067 19.2271 6.34333 19.2874 6.28633 19.3214C6.16433 19.3948 6.00066 19.4001 5.88866 19.3364C5.73966 19.2508 5.70799 19.0551 5.70833 18.9058C5.70799 18.8084 5.78566 18.5408 5.941 18.2504Z" fill="#F49402"/>
</svg>
