<svg width="26" height="21" viewBox="0 0 26 21" fill="none" xmlns="http://www.w3.org/2000/svg">
<path d="M23.0146 5.51471C23.0312 5.73766 23.0312 5.95934 23.0312 6.18101C23.0312 12.965 17.8677 20.7822 8.43122 20.7822C5.52397 20.7822 2.82311 19.9401 0.550308 18.4776C0.963081 18.5247 1.36057 18.5413 1.7899 18.5413C4.09964 18.5469 6.34397 17.7745 8.16113 16.3487C7.09024 16.3294 6.05213 15.976 5.19176 15.3381C4.33139 14.7002 3.6917 13.8095 3.36201 12.7905C3.67923 12.8376 3.99773 12.8695 4.33151 12.8695C4.79142 12.8695 5.25388 12.8058 5.68322 12.6949C4.52103 12.4603 3.476 11.8303 2.7258 10.9122C1.9756 9.99409 1.56656 8.84448 1.56823 7.65884V7.59514C2.25236 7.97607 3.04606 8.2143 3.88689 8.24615C3.18249 7.77807 2.6049 7.1429 2.20566 6.39732C1.80641 5.65174 1.59793 4.81893 1.5988 3.97319C1.5988 3.02024 1.85233 2.14628 2.29695 1.38444C3.58641 2.97058 5.19465 4.26819 7.01751 5.19323C8.84038 6.11827 10.8372 6.65011 12.8787 6.75431C12.7997 6.37211 12.7513 5.9759 12.7513 5.57841C12.751 4.90442 12.8835 4.23698 13.1413 3.61423C13.399 2.99148 13.777 2.42564 14.2536 1.94905C14.7302 1.47247 15.296 1.09449 15.9188 0.836719C16.5415 0.578948 17.209 0.446443 17.883 0.446778C19.3608 0.446778 20.6947 1.06594 21.6323 2.06729C22.7812 1.84513 23.8829 1.42574 24.8886 0.827701C24.5057 2.01355 23.7035 3.0191 22.6324 3.65596C23.6513 3.53975 24.6471 3.27179 25.5868 2.86099C24.885 3.88413 24.0153 4.78133 23.0146 5.51471Z" fill="#38869C"/>
</svg>
