<svg width="30" height="30" viewBox="0 0 30 30" fill="none" xmlns="http://www.w3.org/2000/svg">
<path d="M21.4697 17.4041C21.1161 17.2224 19.3545 16.3594 19.0268 16.2426C18.6992 16.1194 18.4591 16.061 18.2223 16.4243C17.9822 16.7844 17.3009 17.5858 17.0868 17.8291C16.8792 18.0691 16.6683 18.0983 16.3147 17.9199C14.2124 16.8688 12.8336 16.0448 11.4483 13.6667C11.0817 13.0341 11.8149 13.0795 12.4995 11.7137C12.6163 11.4737 12.5579 11.2693 12.467 11.0876C12.3762 10.9059 11.6625 9.14755 11.364 8.43058C11.0752 7.73307 10.7768 7.8304 10.5594 7.81742C10.3518 7.80444 10.115 7.80444 9.87489 7.80444C9.63482 7.80444 9.24876 7.89528 8.92109 8.2489C8.59342 8.60901 7.66882 9.47521 7.66882 11.2336C7.66882 12.9919 8.95029 14.6952 9.12548 14.9352C9.30715 15.1753 11.6462 18.7829 15.2376 20.3368C17.5085 21.3166 18.3974 21.401 19.5329 21.2323C20.2239 21.1284 21.6481 20.3693 21.9434 19.529C22.2386 18.692 22.2386 17.9751 22.151 17.8258C22.0634 17.6669 21.8233 17.576 21.4697 17.4041Z" fill="#38869C"/>
<path d="M28.3377 8.92068C27.6045 7.17854 26.5534 5.61483 25.2135 4.27172C23.8737 2.93186 22.31 1.87749 20.5646 1.14754C18.7803 0.398128 16.8856 0.0185547 14.9326 0.0185547H14.8677C12.9017 0.0282873 10.9974 0.417593 9.20658 1.18323C7.47741 1.92291 5.92667 2.97404 4.59979 4.3139C3.27291 5.65376 2.23151 7.21098 1.5113 8.94664C0.765126 10.7439 0.388797 12.6548 0.39853 14.6208C0.408263 16.8723 0.946802 19.1075 1.95575 21.106V26.0372C1.95575 26.8612 2.62406 27.5295 3.44809 27.5295H8.38254C10.381 28.5385 12.6162 29.077 14.8677 29.0867H14.9359C16.8791 29.0867 18.764 28.7104 20.5386 27.974C22.2743 27.2505 23.8347 26.2124 25.1714 24.8855C26.5112 23.5586 27.5656 22.0079 28.302 20.2787C29.0677 18.4879 29.457 16.5835 29.4667 14.6175C29.4764 12.6418 29.0936 10.7245 28.3377 8.92068ZM23.4357 23.1304C21.1615 25.3818 18.1444 26.6211 14.9326 26.6211H14.8775C12.9212 26.6114 10.9779 26.1248 9.26173 25.2099L8.98921 25.0639H4.42136V20.496L4.27537 20.2235C3.3605 18.5073 2.87387 16.5641 2.86413 14.6078C2.85116 11.3733 4.0872 8.33672 6.35491 6.04955C8.61937 3.76238 11.6462 2.49714 14.8807 2.48416H14.9359C16.558 2.48416 18.1314 2.79885 19.614 3.42174C21.0609 4.02841 22.3586 4.9011 23.4746 6.01711C24.5874 7.12988 25.4633 8.43081 26.07 9.87773C26.6994 11.3766 27.0141 12.9662 27.0076 14.6078C26.9881 17.839 25.7196 20.8659 23.4357 23.1304Z" fill="#38869C"/>
</svg>
