<svg width="25" height="20" viewBox="0 0 25 20" fill="none" xmlns="http://www.w3.org/2000/svg">
<g filter="url(#filter0_d)">
<path d="M24.3726 9.50576C24.3726 9.44592 24.3726 9.37791 24.3699 9.29903C24.3672 9.0787 24.3617 8.83116 24.3563 8.56731C24.3345 7.80838 24.2964 7.05218 24.2366 6.3395C24.155 5.35752 24.0353 4.53876 23.8721 3.924C23.6999 3.28245 23.3622 2.69734 22.893 2.22716C22.4238 1.75698 21.8394 1.41818 21.1982 1.24465C20.4284 1.03792 18.9214 0.91007 16.7997 0.831186C15.7905 0.793103 14.7106 0.768622 13.6307 0.755021C13.2526 0.749581 12.9017 0.746861 12.5862 0.744141H11.7864C11.4709 0.746861 11.12 0.749581 10.7419 0.755021C9.66199 0.768622 8.58209 0.793103 7.57291 0.831186C5.45119 0.91279 3.9415 1.04064 3.17442 1.24465C2.53301 1.41776 1.94836 1.75641 1.47907 2.22666C1.00977 2.69691 0.672314 3.28224 0.500509 3.924C0.334579 4.53876 0.217612 5.35752 0.136008 6.3395C0.0761643 7.05218 0.0380821 7.80838 0.0163209 8.56731C0.00816042 8.83116 0.00544027 9.0787 0.00272011 9.29903C0.00272011 9.37791 0 9.44592 0 9.50576V9.65809C0 9.71793 -4.15468e-08 9.78594 0.00272011 9.86482C0.00544027 10.0852 0.0108806 10.3327 0.0163209 10.5965C0.0380821 11.3555 0.0761643 12.1117 0.136008 12.8244C0.217612 13.8063 0.337299 14.6251 0.500509 15.2398C0.848688 16.5428 1.87147 17.571 3.17442 17.9192C3.9415 18.1259 5.45119 18.2538 7.57291 18.3327C8.58209 18.3707 9.66199 18.3952 10.7419 18.4088C11.12 18.4143 11.4709 18.417 11.7864 18.4197H12.5862C12.9017 18.417 13.2526 18.4143 13.6307 18.4088C14.7106 18.3952 15.7905 18.3707 16.7997 18.3327C18.9214 18.2511 20.4311 18.1232 21.1982 17.9192C22.5011 17.571 23.5239 16.5455 23.8721 15.2398C24.038 14.6251 24.155 13.8063 24.2366 12.8244C24.2964 12.1117 24.3345 11.3555 24.3563 10.5965C24.3644 10.3327 24.3672 10.0852 24.3699 9.86482C24.3699 9.78594 24.3726 9.71793 24.3726 9.65809V9.50576ZM22.4141 9.64721C22.4141 9.70433 22.4141 9.7669 22.4114 9.84034C22.4086 10.0525 22.4032 10.2864 22.3978 10.5394C22.3787 11.263 22.3406 11.9865 22.2835 12.6584C22.2101 13.5343 22.1067 14.2524 21.9789 14.7339C21.8102 15.3623 21.3151 15.86 20.6895 16.026C20.1183 16.1783 18.6793 16.3007 16.7235 16.3742C15.7334 16.4122 14.6671 16.4367 13.6035 16.4503C13.2308 16.4558 12.8854 16.4585 12.5753 16.4585H11.7973L10.7691 16.4503C9.70551 16.4367 8.64193 16.4122 7.64908 16.3742C5.69328 16.298 4.2516 16.1783 3.68309 16.026C3.05745 15.8573 2.56239 15.3623 2.39374 14.7339C2.26589 14.2524 2.16252 13.5343 2.08908 12.6584C2.03196 11.9865 1.99659 11.263 1.97483 10.5394C1.96667 10.2864 1.96395 10.0498 1.96123 9.84034C1.96123 9.7669 1.95851 9.70161 1.95851 9.64721V9.51664C1.95851 9.45952 1.95851 9.39695 1.96123 9.32351C1.96395 9.11134 1.96939 8.87741 1.97483 8.62443C1.99387 7.90087 2.03196 7.17731 2.08908 6.50543C2.16252 5.62954 2.26589 4.91142 2.39374 4.42995C2.56239 3.8016 3.05745 3.30381 3.68309 3.13788C4.25432 2.98555 5.69328 2.86314 7.64908 2.7897C8.63921 2.75161 9.70551 2.72713 10.7691 2.71353C11.1418 2.70809 11.4872 2.70537 11.7973 2.70537H12.5753L13.6035 2.71353C14.6671 2.72713 15.7307 2.75161 16.7235 2.7897C18.6793 2.86586 20.121 2.98555 20.6895 3.13788C21.3151 3.30653 21.8102 3.8016 21.9789 4.42995C22.1067 4.91142 22.2101 5.62954 22.2835 6.50543C22.3406 7.17731 22.376 7.90087 22.3978 8.62443C22.4059 8.87741 22.4086 9.11406 22.4114 9.32351C22.4114 9.39695 22.4141 9.46224 22.4141 9.51664V9.64721ZM9.76536 13.2269L16.0761 9.55472L9.76536 5.93692V13.2269Z" fill="#38869C"/>
</g>
<defs>
<filter id="filter0_d" x="0" y="0.744141" width="24.3726" height="18.5417" filterUnits="userSpaceOnUse" color-interpolation-filters="sRGB">
<feFlood flood-opacity="0" result="BackgroundImageFix"/>
<feColorMatrix in="SourceAlpha" type="matrix" values="0 0 0 0 0 0 0 0 0 0 0 0 0 0 0 0 0 0 127 0"/>
<feOffset dy="0.86609"/>
<feColorMatrix type="matrix" values="0 0 0 0 1 0 0 0 0 0.898039 0 0 0 0 0.384314 0 0 0 1 0"/>
<feBlend mode="normal" in2="BackgroundImageFix" result="effect1_dropShadow"/>
<feBlend mode="normal" in="SourceGraphic" in2="effect1_dropShadow" result="shape"/>
</filter>
</defs>
</svg>
